<svg width="24" height="24" viewBox="0 0 24 24" fill="none" xmlns="http://www.w3.org/2000/svg">
<path d="M18.4956 17.5323C11.2092 21 6.6872 18.0987 3.79253 16.3365C3.61341 16.2254 3.30896 16.3624 3.57311 16.6658C4.53747 17.8352 7.69789 20.6535 11.8231 20.6535C15.9512 20.6535 18.4071 18.401 18.7143 18.0081C19.0194 17.6185 18.8039 17.4036 18.4955 17.5323H18.4956ZM20.5419 16.4022C20.3463 16.1474 19.3521 16.0999 18.7265 16.1767C18.0999 16.2514 17.1593 16.6343 17.2411 16.8643C17.2831 16.9504 17.3687 16.9118 17.7992 16.8731C18.2308 16.83 19.44 16.6774 19.692 17.0068C19.9451 17.3384 19.3063 18.9183 19.1896 19.1731C19.0769 19.4279 19.2327 19.4936 19.4444 19.3239C19.6532 19.1543 20.0313 18.715 20.285 18.0933C20.5369 17.4682 20.6906 16.5962 20.5419 16.4022H20.5419Z" fill="#FF9900"/>
<path fill-rule="evenodd" clip-rule="evenodd" d="M13.5965 10.4565C13.5965 11.3664 13.6195 12.1251 13.1596 12.9332C12.7884 13.5902 12.2004 13.9942 11.5435 13.9942C10.6467 13.9942 10.1244 13.3109 10.1244 12.3025C10.1244 10.3119 11.908 9.95063 13.5965 9.95063V10.4565ZM15.9517 16.149C15.7973 16.287 15.5739 16.2969 15.3998 16.2049C14.6246 15.5611 14.4866 15.2622 14.0596 14.6479C12.7786 15.9552 11.872 16.3461 10.2099 16.3461C8.24558 16.3461 6.71484 15.134 6.71484 12.7065C6.71484 10.8113 7.74304 9.52031 9.20468 8.88968C10.4727 8.3312 12.2432 8.23267 13.5965 8.07834V7.77611C13.5965 7.22095 13.6392 6.56401 13.314 6.08446C13.0282 5.65414 12.4829 5.47675 12.0033 5.47675C11.1132 5.47675 10.3182 5.93331 10.1244 6.87932C10.085 7.0896 9.93065 7.29656 9.72044 7.30639L7.4539 7.06336C7.26342 7.02057 7.05321 6.86624 7.10577 6.57384C7.62804 3.82782 10.108 3 12.3285 3C13.465 3 14.9497 3.30223 15.8465 4.16287C16.9831 5.22382 16.8746 6.63955 16.8746 8.18012V11.8197C16.8746 12.9135 17.3279 13.3931 17.7549 13.9844C17.906 14.1946 17.9389 14.4476 17.7484 14.6052C17.2721 15.0026 16.4246 15.7417 15.9582 16.1556L15.9516 16.149" fill="black"/>
<path d="M18.4956 17.5323C11.2092 21 6.6872 18.0987 3.79253 16.3365C3.61341 16.2254 3.30896 16.3624 3.57311 16.6658C4.53747 17.8352 7.69789 20.6535 11.8231 20.6535C15.9512 20.6535 18.4071 18.401 18.7143 18.0081C19.0194 17.6185 18.8039 17.4036 18.4955 17.5323H18.4956ZM20.5419 16.4022C20.3463 16.1474 19.3521 16.0999 18.7265 16.1767C18.0999 16.2514 17.1593 16.6343 17.2411 16.8643C17.2831 16.9504 17.3687 16.9118 17.7992 16.8731C18.2308 16.83 19.44 16.6774 19.692 17.0068C19.9451 17.3384 19.3063 18.9183 19.1896 19.1731C19.0769 19.4279 19.2327 19.4936 19.4444 19.3239C19.6532 19.1543 20.0313 18.715 20.285 18.0933C20.5369 17.4682 20.6906 16.5962 20.5419 16.4022H20.5419Z" fill="#FF9900"/>
<path fill-rule="evenodd" clip-rule="evenodd" d="M13.5965 10.4565C13.5965 11.3664 13.6195 12.1251 13.1596 12.9332C12.7884 13.5902 12.2004 13.9942 11.5435 13.9942C10.6467 13.9942 10.1244 13.3109 10.1244 12.3025C10.1244 10.3119 11.908 9.95063 13.5965 9.95063V10.4565ZM15.9517 16.149C15.7973 16.287 15.5739 16.2969 15.3998 16.2049C14.6246 15.5611 14.4866 15.2622 14.0596 14.6479C12.7786 15.9552 11.872 16.3461 10.2099 16.3461C8.24558 16.3461 6.71484 15.134 6.71484 12.7065C6.71484 10.8113 7.74304 9.52031 9.20468 8.88968C10.4727 8.3312 12.2432 8.23267 13.5965 8.07834V7.77611C13.5965 7.22095 13.6392 6.56401 13.314 6.08446C13.0282 5.65414 12.4829 5.47675 12.0033 5.47675C11.1132 5.47675 10.3182 5.93331 10.1244 6.87932C10.085 7.0896 9.93065 7.29656 9.72044 7.30639L7.4539 7.06336C7.26342 7.02057 7.05321 6.86624 7.10577 6.57384C7.62804 3.82782 10.108 3 12.3285 3C13.465 3 14.9497 3.30223 15.8465 4.16287C16.9831 5.22382 16.8746 6.63955 16.8746 8.18012V11.8197C16.8746 12.9135 17.3279 13.3931 17.7549 13.9844C17.906 14.1946 17.9389 14.4476 17.7484 14.6052C17.2721 15.0026 16.4246 15.7417 15.9582 16.1556L15.9516 16.149" fill="black"/>
</svg>
