<svg width="24" height="24" viewBox="0 0 24 24" fill="none" xmlns="http://www.w3.org/2000/svg">
<path d="M16.1423 14.471C15.729 14.471 15.3928 14.1393 15.3928 13.7317C15.3928 13.3242 15.729 12.9927 16.1423 12.9927C16.5556 12.9927 16.8918 13.3242 16.8918 13.7317C16.8918 14.1393 16.5556 14.471 16.1423 14.471ZM7.85773 14.471C7.44444 14.471 7.10825 14.1393 7.10825 13.7317C7.10825 13.3242 7.44437 12.9927 7.85773 12.9927C8.27101 12.9927 8.6072 13.3242 8.6072 13.7317C8.6072 14.1393 8.27108 14.471 7.85773 14.471ZM16.4111 10.019L17.9091 7.46079C17.9503 7.39019 17.9615 7.30634 17.9401 7.22765C17.9187 7.14895 17.8665 7.08183 17.795 7.04102C17.7234 7.00038 17.6384 6.9894 17.5586 7.01049C17.4788 7.03157 17.4107 7.08301 17.3693 7.15351L15.8526 9.74408C14.6926 9.22218 13.39 8.9314 12 8.9314C10.61 8.9314 9.30735 9.22218 8.14747 9.74408L6.63069 7.15351C6.58929 7.08301 6.52122 7.03157 6.44142 7.01049C6.36162 6.9894 6.27659 7.00038 6.20499 7.04102C6.13343 7.0818 6.08122 7.14891 6.05983 7.22762C6.03844 7.30634 6.04962 7.3902 6.09091 7.46079L7.5889 10.019C5.01664 11.3985 3.25737 13.9663 3 17H21C20.7424 13.9664 18.9832 11.3985 16.4111 10.019" fill="#3DDB85"/>
</svg>
