<svg width="24" height="24" viewBox="0 0 24 24" fill="none" xmlns="http://www.w3.org/2000/svg">
<path d="M6.94199 3H17.058C19.2351 3 21 4.76489 21 6.94199V17.058C21 19.2351 19.2351 21 17.058 21H6.94199C4.76489 21 3 19.2351 3 17.058V6.94199C3 4.76489 4.76489 3 6.94199 3Z" fill="url(#paint0_linear_263_3041)"/>
<path d="M8.76897 16.0649L8.77066 16.0655L8.15524 17.1314C7.93061 17.5205 7.43304 17.6538 7.04395 17.4292C6.65487 17.2045 6.52155 16.707 6.74619 16.3179L7.19955 15.5326L7.24306 15.4573C7.32076 15.3456 7.51251 15.1529 7.89606 15.1891C7.89606 15.1891 8.79865 15.287 8.86395 15.7561C8.86397 15.7561 8.87288 15.9105 8.76897 16.0649ZM17.4978 13.3423H15.5787C15.448 13.3336 15.3909 13.2869 15.3685 13.2598L15.3671 13.2573L13.3127 9.69908L13.3101 9.70086L13.1868 9.5242C12.9849 9.21543 12.6643 10.0052 12.6643 10.0052C12.2815 10.8852 12.7186 11.8857 12.8711 12.1881L15.7244 17.1303C15.9491 17.5194 16.4466 17.6527 16.8357 17.428C17.2248 17.2034 17.3581 16.7059 17.1335 16.3168L16.4199 15.0809C16.4061 15.051 16.3821 14.9697 16.5284 14.9694H17.4978C17.9471 14.9694 18.3113 14.6051 18.3113 14.1559C18.3113 13.7066 17.9471 13.3423 17.4978 13.3423ZM13.7703 14.4483C13.7703 14.4483 13.8727 14.9694 13.4763 14.9694H13.08V14.9694H6.38187C5.93258 14.9694 5.56836 14.6051 5.56836 14.1559C5.56836 13.7066 5.93258 13.3423 6.38187 13.3423H8.20578C8.50024 13.3253 8.57006 13.1553 8.57006 13.1553L8.57166 13.1561L10.9525 9.03242L10.9518 9.03228C10.9952 8.95262 10.959 8.87735 10.9527 8.86544L10.1665 7.50361C9.94183 7.11451 10.0751 6.61697 10.4642 6.39233C10.8533 6.16768 11.3509 6.301 11.5755 6.69009L11.9402 7.32171L12.3042 6.69122C12.5288 6.30212 13.0264 6.1688 13.4155 6.39346C13.8045 6.61811 13.9379 7.11565 13.7132 7.50473L10.4003 13.2429C10.3858 13.2779 10.3813 13.3327 10.4891 13.3423H12.4694L12.4698 13.3616C12.4698 13.3616 13.6144 13.3795 13.7703 14.4483Z" fill="white"/>
<defs>
<linearGradient id="paint0_linear_263_3041" x1="12" y1="3" x2="12" y2="21" gradientUnits="userSpaceOnUse">
<stop stop-color="#17C9FB"/>
<stop offset="1" stop-color="#1A74E8"/>
</linearGradient>
</defs>
</svg>
