<svg width="24" height="24" viewBox="0 0 24 24" fill="none" xmlns="http://www.w3.org/2000/svg">
<path fill-rule="evenodd" clip-rule="evenodd" d="M20.646 18.6C20.472 19.044 20.07 19.668 19.494 20.112C19.164 20.364 18.768 20.61 18.228 20.772C17.652 20.946 16.938 21 16.05 21H7.95C7.062 21 6.354 20.94 5.772 20.772C5.232 20.61 4.836 20.37 4.506 20.112C3.936 19.674 3.528 19.044 3.354 18.6C3.006 17.706 3 16.692 3 16.05V7.95C3 7.308 3.006 6.294 3.354 5.4C3.528 4.956 3.93 4.332 4.506 3.888C4.836 3.636 5.232 3.39 5.772 3.228C6.354 3.06 7.062 3 7.95 3H16.05C16.938 3 17.646 3.06 18.228 3.228C18.768 3.39 19.164 3.63 19.494 3.888C20.064 4.326 20.472 4.956 20.646 5.4C21 6.294 21 7.314 21 7.95V16.05C21 16.692 20.994 17.706 20.646 18.6Z" fill="url(#paint0_linear_263_2994)"/>
<path d="M13.5419 13.866C13.5179 13.65 13.4459 13.494 13.3019 13.35C13.0319 13.068 12.5579 12.882 11.9999 12.882C11.4419 12.882 10.9679 13.062 10.6979 13.35C10.5599 13.5 10.4819 13.65 10.4579 13.866C10.4099 14.286 10.4399 14.646 10.4879 15.228C10.5359 15.78 10.6259 16.518 10.7399 17.262C10.8239 17.796 10.8899 18.084 10.9499 18.288C11.0519 18.624 11.4179 18.912 11.9999 18.912C12.5819 18.912 12.9539 18.618 13.0499 18.288C13.1099 18.084 13.1759 17.796 13.2599 17.262C13.3739 16.512 13.4639 15.78 13.5119 15.228C13.5659 14.646 13.5899 14.286 13.5419 13.866Z" fill="white"/>
<path d="M13.4764 10.8061C13.4764 11.6221 12.8164 12.2821 12.0004 12.2821C11.1844 12.2821 10.5244 11.6221 10.5244 10.8061C10.5244 9.99008 11.1844 9.33008 12.0004 9.33008C12.8164 9.33008 13.4764 9.99608 13.4764 10.8061Z" fill="white"/>
<path d="M11.9825 4.9922C8.53846 5.0042 5.71846 7.8002 5.67046 11.2442C5.63446 14.0342 7.41646 16.4222 9.90646 17.2982C9.96646 17.3222 10.0265 17.2682 10.0205 17.2082C9.99046 16.9922 9.95446 16.7762 9.93046 16.5602C9.91846 16.4822 9.87046 16.4222 9.80446 16.3862C7.83646 15.5282 6.46246 13.5542 6.48646 11.2682C6.51646 8.2682 8.96446 5.8262 11.9585 5.8022C15.0245 5.7782 17.5265 8.2622 17.5265 11.3222C17.5265 13.5842 16.1585 15.5282 14.2085 16.3862C14.1365 16.4162 14.0885 16.4822 14.0825 16.5602C14.0525 16.7762 14.0225 16.9922 13.9925 17.2082C13.9805 17.2742 14.0465 17.3222 14.1065 17.2982C16.5725 16.4342 18.3425 14.0822 18.3425 11.3222C18.3305 7.8302 15.4805 4.9862 11.9825 4.9922Z" fill="white"/>
<path d="M11.838 7.09198C9.59399 7.17598 7.79399 9.02998 7.76399 11.274C7.74599 12.75 8.48399 14.058 9.61799 14.832C9.67199 14.868 9.74999 14.826 9.74999 14.76C9.73199 14.502 9.73199 14.274 9.74399 14.034C9.74999 13.956 9.71999 13.884 9.65999 13.83C8.96999 13.182 8.54999 12.258 8.57399 11.238C8.62199 9.43798 10.068 7.97398 11.868 7.90198C13.824 7.82398 15.432 9.39598 15.432 11.328C15.432 12.312 15.012 13.2 14.346 13.83C14.292 13.884 14.262 13.956 14.262 14.034C14.274 14.268 14.268 14.496 14.256 14.754C14.25 14.82 14.328 14.868 14.388 14.826C15.504 14.064 16.242 12.774 16.242 11.322C16.248 8.93398 14.25 6.99598 11.838 7.09198Z" fill="white"/>
<defs>
<linearGradient id="paint0_linear_263_2994" x1="12" y1="3" x2="12" y2="21" gradientUnits="userSpaceOnUse">
<stop stop-color="#F452FF"/>
<stop offset="1" stop-color="#832BC1"/>
</linearGradient>
</defs>
</svg>
