<svg width="24" height="24" viewBox="0 0 24 24" fill="none" xmlns="http://www.w3.org/2000/svg">
<path d="M9.35785 7.92188C9.74593 7.92188 10.1002 7.95644 10.4206 8.02484C10.741 8.09324 11.0146 8.20556 11.2428 8.3618C11.4711 8.51804 11.6482 8.7254 11.7742 8.9846C11.9002 9.2438 11.9628 9.56348 11.9628 9.94436C11.9628 10.3555 11.8692 10.6982 11.6827 10.9725C11.4963 11.2468 11.2198 11.4715 10.8547 11.6464C11.3573 11.7912 11.7324 12.0446 11.9801 12.406C12.2278 12.7675 12.3516 13.2038 12.3516 13.7143C12.3516 14.1254 12.2717 14.4818 12.1119 14.7828C11.952 15.0837 11.7367 15.3292 11.466 15.5193C11.1953 15.7101 10.8871 15.8505 10.5408 15.942C10.1923 16.0334 9.83305 16.0795 9.47305 16.0788H5.51953V7.92188H9.35785ZM9.12961 11.2231C9.44929 11.2231 9.71209 11.1468 9.91801 10.9948C10.1239 10.8422 10.2269 10.5952 10.2262 10.2525C10.2262 10.0624 10.1916 9.9062 10.1232 9.78452C10.0548 9.66284 9.96337 9.56708 9.84889 9.49867C9.73441 9.43027 9.60337 9.38276 9.45505 9.35612C9.30241 9.32948 9.14761 9.3158 8.99209 9.31652H7.31377V11.2245L9.12961 11.2231ZM9.23257 14.6841C9.40177 14.6848 9.57025 14.6676 9.73513 14.633C9.89497 14.5984 10.0361 14.5416 10.1578 14.4616C10.2795 14.3817 10.3767 14.273 10.4494 14.1362C10.5214 13.9994 10.5581 13.8237 10.5581 13.6106C10.5581 13.1923 10.44 12.8928 10.2039 12.7142C9.96769 12.5349 9.65521 12.4456 9.26713 12.4456H7.31377V14.6848L9.23257 14.6841ZM14.6081 14.5128C14.8515 14.7489 15.2021 14.867 15.6593 14.867C15.9869 14.867 16.2684 14.7849 16.5046 14.6215C16.7407 14.458 16.8855 14.2845 16.9387 14.1016H18.3665C18.1383 14.8101 17.7876 15.3163 17.3153 15.6208C16.843 15.9254 16.272 16.078 15.6017 16.078C15.1373 16.078 14.7183 16.0039 14.3453 15.8556C13.9723 15.7072 13.6563 15.4956 13.3971 15.2212C13.1379 14.9469 12.9377 14.62 12.7973 14.2392C12.6569 13.8583 12.5863 13.4392 12.5863 12.9828C12.5863 12.5414 12.6583 12.1303 12.8031 11.7494C12.9478 11.3685 13.1537 11.0395 13.4201 10.7616C13.6865 10.4836 14.0047 10.2648 14.3741 10.1049C14.7435 9.94508 15.1531 9.86516 15.6024 9.86516C16.105 9.86516 16.5427 9.96236 16.9164 10.1568C17.2894 10.3512 17.5961 10.6118 17.8359 10.9394C18.0756 11.267 18.2491 11.64 18.3557 12.059C18.4623 12.478 18.5004 12.9158 18.4702 13.373H14.2092C14.2315 13.8964 14.3647 14.2773 14.6081 14.5128ZM16.4419 11.406C16.2475 11.1928 15.9523 11.0863 15.5563 11.0863C15.2971 11.0863 15.0819 11.1302 14.9112 11.2173C14.7399 11.3052 14.6031 11.4132 14.5001 11.5428C14.3971 11.6724 14.3251 11.8092 14.2834 11.9539C14.2416 12.0986 14.2164 12.2282 14.2092 12.342H16.848C16.771 11.9316 16.6356 11.6191 16.4419 11.406ZM13.9313 8.33588H17.2282V9.25028H13.9313V8.33588Z" fill="#151515"/>
</svg>
