<svg width="24" height="24" viewBox="0 0 24 24" fill="none" xmlns="http://www.w3.org/2000/svg">
<path d="M18.2378 6.24168C17.0905 5.71527 15.8602 5.32743 14.5739 5.1053C14.5505 5.10101 14.5271 5.11173 14.515 5.13316C14.3568 5.41457 14.1815 5.78169 14.0588 6.07025C12.6753 5.86312 11.2989 5.86312 9.94374 6.07025C9.82099 5.77528 9.63936 5.41457 9.48043 5.13316C9.46836 5.11244 9.44496 5.10173 9.42154 5.1053C8.13593 5.32672 6.90567 5.71456 5.7577 6.24168C5.74776 6.24596 5.73924 6.25311 5.73359 6.26239C3.40004 9.74866 2.76079 13.1492 3.07439 16.5077C3.0758 16.5241 3.08503 16.5398 3.0978 16.5498C4.63741 17.6805 6.12878 18.3669 7.59246 18.8218C7.61588 18.829 7.6407 18.8204 7.65561 18.8011C8.00184 18.3283 8.31048 17.8298 8.57511 17.3055C8.59072 17.2748 8.57582 17.2383 8.5439 17.2262C8.05435 17.0405 7.5882 16.8141 7.1398 16.5569C7.10433 16.5362 7.10149 16.4855 7.13412 16.4612C7.22848 16.3905 7.32286 16.3169 7.41297 16.2427C7.42927 16.2291 7.45198 16.2262 7.47115 16.2348C10.417 17.5798 13.6062 17.5798 16.5172 16.2348C16.5364 16.2255 16.5591 16.2284 16.5761 16.2419C16.6662 16.3162 16.7606 16.3905 16.8557 16.4612C16.8883 16.4855 16.8862 16.5362 16.8507 16.5569C16.4023 16.8191 15.9361 17.0405 15.4459 17.2255C15.414 17.2376 15.3998 17.2748 15.4154 17.3055C15.6857 17.829 15.9943 18.3276 16.3342 18.8004C16.3484 18.8204 16.3739 18.829 16.3973 18.8218C17.8681 18.3669 19.3595 17.6805 20.8991 16.5498C20.9126 16.5398 20.9211 16.5248 20.9225 16.5084C21.2978 12.6257 20.2939 9.25298 18.2612 6.2631C18.2562 6.25311 18.2477 6.24596 18.2378 6.24168ZM9.01502 14.4627C8.12812 14.4627 7.39735 13.6485 7.39735 12.6485C7.39735 11.6486 8.11395 10.8343 9.01502 10.8343C9.92315 10.8343 10.6469 11.6557 10.6327 12.6485C10.6327 13.6485 9.91606 14.4627 9.01502 14.4627ZM14.9961 14.4627C14.1092 14.4627 13.3784 13.6485 13.3784 12.6485C13.3784 11.6486 14.095 10.8343 14.9961 10.8343C15.9042 10.8343 16.6279 11.6557 16.6137 12.6485C16.6137 13.6485 15.9042 14.4627 14.9961 14.4627Z" fill="#5865F2"/>
</svg>
