<svg width="24" height="24" viewBox="0 0 24 24" fill="none" xmlns="http://www.w3.org/2000/svg">
<path d="M11.9998 3.59766C16.6404 3.59766 20.3951 7.35234 20.3951 11.9859C20.3951 16.6195 16.6404 20.3813 11.9998 20.3813C7.35918 20.3813 3.60449 16.6266 3.60449 11.993C3.60449 7.35938 7.35918 3.59766 11.9998 3.59766Z" fill="#E74D89"/>
<path d="M12 20.9789C7.03594 20.9789 3 16.95 3 11.993C3 7.02891 7.03594 3 12 3C16.9641 3 21 7.02891 21 11.9859C21 16.943 16.9641 20.9789 12 20.9789ZM19.5867 13.2164C19.3266 13.132 17.2102 12.5063 14.7984 12.8859C15.8039 15.6422 16.2117 17.8922 16.2891 18.3562C18.0188 17.1961 19.2492 15.3539 19.5867 13.2164ZM15.0023 19.0664C14.8898 18.3914 14.4398 16.043 13.3641 13.2445C13.35 13.2516 13.3289 13.2586 13.3148 13.2586C8.97656 14.7703 7.42266 17.7727 7.28203 18.0539C8.58281 19.0664 10.2211 19.6711 12 19.6711C13.0617 19.6781 14.0813 19.4602 15.0023 19.0664ZM6.29062 17.1328C6.46641 16.8375 8.57578 13.35 12.5414 12.0633C12.6398 12.0281 12.7453 12 12.8438 11.9719C12.6539 11.5359 12.443 11.1 12.218 10.6711C8.37891 11.8172 4.65234 11.768 4.31484 11.7609C4.31484 11.8383 4.30781 11.9156 4.30781 11.993C4.31484 13.9688 5.06016 15.7688 6.29062 17.1328ZM4.47656 10.425C4.82109 10.432 7.98516 10.4461 11.5852 9.48984C10.3125 7.22578 8.93437 5.32734 8.7375 5.05313C6.57891 6.06562 4.97578 8.04844 4.47656 10.425ZM10.2 4.53281C10.4109 4.81406 11.8102 6.7125 13.0687 9.02578C15.8039 7.99922 16.957 6.45234 17.0977 6.25547C15.7406 5.05312 13.9547 4.32187 12 4.32187C11.3813 4.32187 10.7766 4.39922 10.2 4.53281ZM17.9484 7.14141C17.7867 7.35938 16.5 9.01172 13.6594 10.1719C13.8352 10.5375 14.0109 10.9102 14.1727 11.2828C14.2289 11.4164 14.2852 11.55 14.3414 11.6766C16.9008 11.3531 19.4391 11.8734 19.6922 11.9227C19.6711 10.1156 19.0242 8.44922 17.9484 7.14141Z" fill="#B2215A"/>
</svg>
