<svg width="24" height="24" viewBox="0 0 24 24" fill="none" xmlns="http://www.w3.org/2000/svg">
<path d="M8.99578 21C10.6489 21 11.9906 19.656 11.9906 18V15H8.99578C7.34265 15 6.00098 16.344 6.00098 18C6.00098 19.656 7.34265 21 8.99578 21Z" fill="#0ACF83"/>
<path d="M6.00098 12C6.00098 10.344 7.34265 9 8.99578 9H11.9906V15H8.99578C7.34265 15 6.00098 13.656 6.00098 12Z" fill="#A259FF"/>
<path d="M6.00098 6C6.00098 4.344 7.34265 3 8.99578 3H11.9906V9H8.99578C7.34265 9 6.00098 7.656 6.00098 6Z" fill="#F24E1E"/>
<path d="M11.9912 3H14.986C16.6391 3 17.9808 4.344 17.9808 6C17.9808 7.656 16.6391 9 14.986 9H11.9912V3Z" fill="#FF7262"/>
<path d="M17.9808 12C17.9808 13.656 16.6391 15 14.986 15C13.3329 15 11.9912 13.656 11.9912 12C11.9912 10.344 13.3329 9 14.986 9C16.6391 9 17.9808 10.344 17.9808 12Z" fill="#1ABCFE"/>
</svg>
