<svg width="24" height="24" viewBox="0 0 24 24" fill="none" xmlns="http://www.w3.org/2000/svg">
<path d="M18.983 3H5.01696C3.91205 3 3 3.91205 3 5.01696V18.983C3 20.0879 3.91205 21 5.01696 21H18.983C20.0879 21 21 20.0879 21 18.983V5.01696C21 3.91205 20.0879 3 18.983 3ZM17.1589 14.4228C17.1589 14.5915 17.0143 14.6638 16.8455 14.7362C16.1746 15.0254 15.4554 15.2866 14.6839 15.2866C13.6031 15.2866 13.1009 14.6156 11.8031 14.6156C10.867 14.6156 9.88259 14.9531 9.09107 15.3107C9.04286 15.3348 8.99464 15.3348 8.94643 15.3589V17.183C8.94643 17.2554 8.94643 17.3277 8.92232 17.3759V17.4241C8.82589 17.7616 8.5125 17.9987 8.15491 17.9987C7.70089 17.9987 7.33929 17.6371 7.33929 17.183V8.4C7.02589 8.15893 6.81295 7.77723 6.81295 7.3433C6.81295 6.6 7.41161 5.99732 8.15893 5.99732C8.90223 5.99732 9.50491 6.59598 9.50491 7.3433C9.50491 7.77723 9.31205 8.15893 8.97857 8.4V9.1433C9.05089 9.1192 9.12321 9.09509 9.19554 9.04688C9.93884 8.73348 10.8268 8.47232 11.6665 8.47232C12.5786 8.47232 13.2978 8.71339 14.1134 9.02277C14.2821 9.09509 14.4509 9.1192 14.6397 9.1192C15.5518 9.1192 16.5603 8.47232 16.8013 8.47232C16.9942 8.47232 17.1629 8.61696 17.1629 8.78571V14.4228H17.1589Z" fill="#339AF0"/>
</svg>
