<svg width="24" height="24" viewBox="0 0 24 24" fill="none" xmlns="http://www.w3.org/2000/svg">
<path d="M3.41459 15.7093L9.39513 5.4707C10.1548 5.91794 13.9855 8.03796 14.6042 8.4411L8.62365 18.6803C7.96957 19.5443 2.58596 17.0206 3.41459 15.7087V15.7093Z" fill="#FBBC04"/>
<path d="M20.5977 15.709L14.6171 5.47104C13.781 4.07963 11.9803 3.57401 10.5013 4.39581C9.02232 5.2176 8.57198 6.98791 9.40806 8.44143L15.3886 18.6806C16.2247 20.0714 18.0254 20.5771 19.5044 19.7553C20.9188 18.9335 21.4337 17.1004 20.5977 15.7103V15.709Z" fill="#4285F4"/>
<path d="M6.00207 20.151C7.66007 20.151 9.00414 18.8403 9.00414 17.2234C9.00414 15.6066 7.66007 14.2959 6.00207 14.2959C4.34407 14.2959 3 15.6066 3 17.2234C3 18.8403 4.34407 20.151 6.00207 20.151Z" fill="#34A853"/>
</svg>
