<svg width="24" height="24" viewBox="0 0 24 24" fill="none" xmlns="http://www.w3.org/2000/svg">
<path d="M14.422 8.99192H14.9713L16.5361 7.42601L16.613 6.76159C13.7014 4.19001 9.25671 4.4671 6.6869 7.38071C5.97239 8.19009 5.45406 9.15273 5.17188 10.1947C5.34616 10.1229 5.53931 10.1116 5.72115 10.1614L8.85004 9.64501C8.85004 9.64501 9.00924 9.3815 9.09148 9.39811C10.4835 7.86845 12.8262 7.69027 14.4333 8.99192H14.422Z" fill="#EA4335"/>
<path d="M18.7647 10.1944C18.4048 8.86932 17.6669 7.67791 16.64 6.7666L14.4445 8.9637C15.3717 9.72174 15.8999 10.8641 15.8772 12.0623V12.4526C16.9569 12.4526 17.8314 13.3285 17.8314 14.4081C17.8314 15.4886 16.9562 16.3636 15.8772 16.3636H11.9682L11.5781 16.7593V19.1051L11.9682 19.4954H15.8772C18.1181 19.5128 20.1062 18.0594 20.7717 15.9182C21.4356 13.7762 20.6208 11.4507 18.7647 10.1944Z" fill="#4285F4"/>
<path d="M8.05366 19.4737H11.9627V16.3427H8.05366C7.77525 16.3427 7.49986 16.283 7.24635 16.1667L6.69708 16.3366L5.12169 17.9025L4.98438 18.4522C5.86789 19.1196 6.94606 19.4783 8.05366 19.4737Z" fill="#34A853"/>
<path d="M8.05325 9.31546C5.88181 9.32829 3.9586 10.7198 3.26598 12.7787C2.57335 14.8377 3.26371 17.1103 4.98472 18.4346L7.25198 16.1657C6.26811 15.721 5.83126 14.5628 6.27566 13.5783C6.72006 12.5937 7.87745 12.1566 8.86132 12.6013C9.2944 12.7976 9.64146 13.1449 9.83763 13.5783L12.1049 11.3095C11.1399 10.0478 9.64071 9.31017 8.05325 9.31546Z" fill="#FBBC05"/>
</svg>
