<svg width="24" height="24" viewBox="0 0 24 24" fill="none" xmlns="http://www.w3.org/2000/svg">
<path d="M12.5078 8.89935C13.9333 8.89935 15.0889 7.74376 15.0889 6.31827C15.0889 4.89277 13.9333 3.73718 12.5078 3.73718C11.0823 3.73718 9.92676 4.89277 9.92676 6.31827C9.92676 7.74376 11.0823 8.89935 12.5078 8.89935Z" fill="#7B83EB"/>
<path d="M18.3146 9.08351C19.3836 9.08351 20.2502 8.21688 20.2502 7.14783C20.2502 6.07879 19.3836 5.21216 18.3146 5.21216C17.2455 5.21216 16.3789 6.07879 16.3789 7.14783C16.3789 8.21688 17.2455 9.08351 18.3146 9.08351Z" fill="#5059C9"/>
<path d="M19.9734 9.63672H15.6259C15.532 9.63672 15.442 9.67401 15.3756 9.74039C15.3093 9.80677 15.272 9.8968 15.272 9.99067V14.4759C15.26 15.125 15.4714 15.7586 15.8708 16.2705C16.2702 16.7823 16.8333 17.1414 17.4659 17.2876C17.8688 17.3721 18.2855 17.3658 18.6856 17.269C19.0857 17.1721 19.4592 16.9873 19.7789 16.7279C20.0985 16.4685 20.3563 16.1411 20.5335 15.7696C20.7107 15.398 20.8027 14.9915 20.803 14.5799V10.4663C20.803 10.2463 20.7156 10.0353 20.56 9.8797C20.4045 9.72412 20.1935 9.63672 19.9734 9.63672Z" fill="#5059C9"/>
<path d="M16.9318 10.4663V15.7203C16.9324 16.6939 16.6115 17.6406 16.019 18.4132C15.4266 19.1859 14.5956 19.7414 13.6552 19.9935C12.7147 20.2457 11.7173 20.1803 10.8178 19.8077C9.91827 19.435 9.1669 18.7758 8.6803 17.9325C8.57388 17.7556 8.48142 17.5707 8.40378 17.3794C8.33139 17.1991 8.27043 17.0144 8.22127 16.8264C8.13009 16.4647 8.08366 16.0932 8.08301 15.7203V10.4663C8.08286 10.3573 8.10422 10.2494 8.14586 10.1487C8.1875 10.0479 8.2486 9.95643 8.32566 9.87937C8.40272 9.80231 8.49423 9.74121 8.59495 9.69957C8.69566 9.65793 8.8036 9.63657 8.91259 9.63672H16.1022C16.2112 9.63657 16.3192 9.65793 16.4199 9.69957C16.5206 9.74121 16.6121 9.80231 16.6892 9.87937C16.7662 9.95643 16.8273 10.0479 16.869 10.1487C16.9106 10.2494 16.932 10.3573 16.9318 10.4663Z" fill="#7B83EB"/>
<path d="M3.84268 7.42432H11.2171C11.4126 7.42432 11.6001 7.50199 11.7383 7.64024C11.8766 7.7785 11.9543 7.96601 11.9543 8.16153V15.5359C11.9543 15.7314 11.8766 15.9189 11.7383 16.0572C11.6001 16.1954 11.4126 16.2731 11.2171 16.2731H3.84268C3.64716 16.2731 3.45965 16.1954 3.32139 16.0572C3.18314 15.9189 3.10547 15.7314 3.10547 15.5359V8.16153C3.10547 7.96601 3.18314 7.7785 3.32139 7.64024C3.45965 7.50199 3.64716 7.42432 3.84268 7.42432Z" fill="#4B53BC"/>
<path d="M9.73139 10.1758H8.07776V14.6113H6.99268V10.1758H5.3291V9.0863H9.73139V10.1758Z" fill="white"/>
</svg>
