<svg width="24" height="24" viewBox="0 0 24 24" fill="none" xmlns="http://www.w3.org/2000/svg">
<path d="M19.348 7.21498C17.5726 6.19012 15.3024 6.79911 14.2764 8.57451L11.6902 13.0547C10.9418 14.3484 11.9052 14.8004 12.9795 15.4445L15.468 16.8809C16.3108 17.367 17.3872 17.0784 17.8733 16.2368L20.532 11.6326C21.4252 10.0854 20.8952 8.10818 19.348 7.21498Z" fill="#EA4335"/>
<path d="M16.4219 9.06957L13.9333 7.63325C12.5595 6.87065 11.7816 6.82017 11.2176 7.71665L7.54721 14.0732C6.52234 15.8475 7.13243 18.1166 8.90671 19.1393C10.4539 20.0325 12.4312 19.5025 13.3243 17.9553L17.065 11.4759C17.5532 10.6332 17.2647 9.55567 16.4219 9.06957Z" fill="#FBBC04"/>
<path d="M16.9007 5.8017L15.1527 4.79221C13.2194 3.67628 10.7472 4.33794 9.63129 6.27134L6.30325 12.0353C5.81167 12.8857 6.10354 13.9742 6.95394 14.4647L8.91148 15.5949C9.87816 16.1534 11.1137 15.822 11.6722 14.8553L15.4743 8.27058C16.2621 6.90666 18.0057 6.43922 19.3696 7.22706L16.9007 5.8017Z" fill="#34A853"/>
<path d="M10.1039 7.92047L8.21441 6.83198C7.37168 6.34698 6.29527 6.63447 5.80918 7.47498L3.54221 11.3923C2.42628 13.3202 3.08794 15.7868 5.02134 16.8995L6.45986 17.7279L8.20452 18.733L8.96165 19.1686C7.61748 18.2689 7.19064 16.466 8.01249 15.0462L8.59953 14.0323L10.7491 10.318C11.2341 9.47972 10.9455 8.40546 10.1039 7.92047Z" fill="#4285F4"/>
</svg>
