<svg width="24" height="24" viewBox="0 0 24 24" fill="none" xmlns="http://www.w3.org/2000/svg">
<path d="M15.3029 14.6715H8.71745L5.89746 19.4669C6.23671 19.6348 6.62196 19.7425 6.87113 19.7425C9.4617 19.7425 14.7486 19.7052 17.3731 19.7052C17.643 19.7052 17.8956 19.6156 18.1222 19.4753L15.3029 14.6715Z" fill="#4185F3"/>
<path d="M5.89734 19.4672L8.71733 14.6718H3.00298C3.0001 15.005 3.12181 15.3099 3.31252 15.6577C3.84382 16.6254 4.74274 18.1722 5.27078 18.9801C5.40092 19.1792 5.91766 19.4772 5.89734 19.4672Z" fill="#1767D1"/>
<path d="M15.3027 14.6713L18.1229 19.4743C18.4884 19.2482 18.7863 18.8899 18.9797 18.56C19.4163 17.8161 20.1546 16.5773 20.6638 15.7386C20.9006 15.3486 20.9926 14.9984 20.9868 14.6709L15.3027 14.6713Z" fill="#E94235"/>
<path d="M8.71739 14.6717L12.0068 9.10452L9.06699 4.33301C8.74901 4.53658 8.47704 4.81292 8.3536 5.0234C7.0704 7.21435 4.48539 11.7047 3.1855 13.924C3.0523 14.1511 2.98853 14.4105 3.00169 14.6717H8.71739Z" fill="#30A753"/>
<path d="M15.3022 14.6721L12.0068 9.10497L14.8659 4.33887C15.1839 4.54263 15.5329 4.81337 15.6564 5.02403C16.9396 7.2148 19.5246 11.7051 20.825 13.9244C20.9592 14.1526 20.9996 14.4109 20.9866 14.6721H15.3022Z" fill="#F9BC00"/>
<path d="M9.06738 4.33402L12.0076 9.10479L14.8666 4.33868C14.5715 4.17075 14.1535 4.0713 13.7487 4.0588C12.6224 4.02222 10.7966 4.00748 9.81393 4.04909C9.57166 4.05936 9.07045 4.33197 9.06738 4.33402Z" fill="#0F8038"/>
</svg>
