<svg width="24" height="24" viewBox="0 0 24 24" fill="none" xmlns="http://www.w3.org/2000/svg">
<path d="M6.90779 5.03649C7.91935 4.9053 8.97041 5.13047 9.8362 5.6702C10.3249 5.95828 10.7158 6.37526 11.1167 6.76998C11.4074 7.05462 11.6951 7.3427 11.9867 7.62657L11.9974 7.6561C11.7796 7.87051 11.5325 8.29922 11.2561 8.94225C10.6763 9.14621 10.2806 9.3521 10.069 9.55992C9.59684 9.10535 9.13997 8.63467 8.66967 8.1778C8.22239 7.75891 7.54648 7.59012 6.96073 7.78231C6.29364 7.96989 5.7846 8.60782 5.74931 9.30022C5.72629 9.66042 5.82028 10.0264 6.01515 10.3302C6.13637 10.5258 6.31359 10.675 6.4724 10.8385C6.85408 11.2221 7.24497 11.5968 7.6209 11.9858C7.42015 12.1831 7.18245 12.565 6.90779 13.1315C6.32356 13.4084 5.91822 13.6602 5.69177 13.8869C5.18427 13.4097 4.69901 12.9068 4.19611 12.4243C3.59731 11.8013 3.19683 10.9931 3.05873 10.1403C2.90682 9.22542 3.05106 8.26219 3.47455 7.4363C3.83015 6.7439 4.36834 6.14241 5.02315 5.72007C5.59242 5.36217 6.23725 5.11129 6.90779 5.03649Z" fill="#EA4335"/>
<path d="M12.0059 16.3048L16.3939 11.98L17.5803 12.6847L18.3227 13.8911L12.0059 20.1404L7.62402 15.8053L8.46489 14.622L9.56466 13.8896L12.0059 16.3048Z" fill="#34A853"/>
<path d="M10.0725 9.56445L11.1762 10.1615L12.0055 11.4809L7.62361 15.8057L5.69141 13.8873L10.0725 9.56445Z" fill="#FBBC05"/>
<path d="M17.2972 5.06281C18.583 5.28069 19.7656 6.08357 20.4139 7.21942C21.1524 8.46727 21.1926 10.0865 20.5374 11.3777C20.2659 11.9323 19.8512 12.4003 19.4097 12.8258C19.0433 13.176 18.6954 13.5496 18.3229 13.891C17.6785 13.2558 17.0332 12.6209 16.3942 11.9799C16.8495 11.52 17.3121 11.0677 17.769 10.6093C18.0636 10.3116 18.2481 9.90348 18.2631 9.48343C18.2834 9.00662 18.0951 8.5229 17.7494 8.19223C17.3973 7.85888 16.904 7.66938 16.4183 7.70966C16.0006 7.72961 15.5974 7.91911 15.3028 8.21448C14.2034 9.30237 13.1067 10.3933 12.0061 11.4805C11.359 10.8445 10.7111 10.2092 10.0732 9.56399C10.0724 9.56284 10.0705 9.56092 10.0693 9.55977C10.7138 8.92683 11.354 8.28967 11.9977 7.65596C12.4642 7.1964 12.9291 6.73493 13.3959 6.27499C14.0005 5.66775 14.7976 5.26995 15.6304 5.08736C16.1793 4.98417 16.7455 4.97266 17.2972 5.06281Z" fill="#4285F4"/>
</svg>
