<svg width="24" height="24" viewBox="0 0 24 24" fill="none" xmlns="http://www.w3.org/2000/svg">
<path fill-rule="evenodd" clip-rule="evenodd" d="M17.3356 7.939C18.0393 7.939 18.6098 7.36849 18.6098 6.66477C18.6098 5.96106 18.0393 5.39055 17.3356 5.39055C16.6319 5.39055 16.0613 5.96106 16.0613 6.66477C16.0613 7.36849 16.6319 7.939 17.3356 7.939ZM8.30859 7.55004L12.2176 3.64103C12.5158 3.34284 12.9299 3.16065 13.3854 3.16065H19.1832C19.4009 3.15989 19.6167 3.20222 19.818 3.2852C20.0193 3.36817 20.2022 3.49016 20.3562 3.64413C20.5102 3.7981 20.6322 3.98101 20.7152 4.18233C20.7981 4.38365 20.8405 4.59939 20.8397 4.81714V10.6149C20.8397 11.0704 20.6575 11.4846 20.351 11.7827L16.448 15.6895L8.30859 7.55004Z" fill="#4285F4"/>
<path fill-rule="evenodd" clip-rule="evenodd" d="M16.4475 15.6896L11.6304 20.5113C11.3239 20.8095 10.9098 21 10.4543 21C9.99876 21 9.58459 20.8095 9.28643 20.5113L3.48864 14.7136C3.18219 14.4154 3 14.0013 3 13.5458C3 13.0819 3.19049 12.6678 3.48864 12.3697L8.30813 7.55017L16.4475 15.6896Z" fill="#34A853"/>
<path fill-rule="evenodd" clip-rule="evenodd" d="M6.30216 17.5271L3.48864 14.7135C3.18219 14.4155 3 14.0013 3 13.5458C3 13.0819 3.19049 12.6678 3.48864 12.3697L8.30813 7.55017L12.2936 11.5357L6.30216 17.5271Z" fill="#FBBC05"/>
<path fill-rule="evenodd" clip-rule="evenodd" d="M20.2677 3.56188C19.9664 3.30176 19.5813 3.15927 19.1832 3.16065H13.3854C12.9299 3.16065 12.5158 3.34284 12.2176 3.64103L8.30859 7.55004L12.294 11.5356L16.3532 7.47637C16.1642 7.24821 16.0609 6.96108 16.0614 6.66477C16.0614 5.96106 16.6319 5.39055 17.3356 5.39055C17.6319 5.39009 17.919 5.49334 18.1472 5.6824L20.2677 3.56188Z" fill="#EA4335"/>
<path d="M12.2914 14.5757C13.7209 14.5757 14.8797 13.4169 14.8797 11.9874C14.8797 10.558 13.7209 9.39917 12.2914 9.39917C10.8619 9.39917 9.70312 10.558 9.70312 11.9874C9.70312 13.4169 10.8619 14.5757 12.2914 14.5757Z" fill="#4285F4"/>
<path fill-rule="evenodd" clip-rule="evenodd" d="M15.8174 11.2263H12.375V12.7033H14.3564C14.1717 13.6416 13.3993 14.1802 12.375 14.1802C11.1659 14.1802 10.192 13.1724 10.192 11.9213C10.192 10.6703 11.1659 9.66247 12.375 9.66247C12.8955 9.66247 13.3657 9.85362 13.7351 10.1664L14.8098 9.0543C14.1549 8.46353 13.3153 8.09863 12.375 8.09863C10.3263 8.09863 8.68066 9.80149 8.68066 11.9213C8.68066 14.0412 10.3263 15.7441 12.375 15.7441C14.2221 15.7441 15.9013 14.354 15.9013 11.9213C15.9013 11.6955 15.8677 11.4522 15.8174 11.2263Z" fill="white"/>
</svg>
