<svg width="24" height="24" viewBox="0 0 24 24" fill="none" xmlns="http://www.w3.org/2000/svg">
<path d="M13.3955 4.00225C12.8227 3.82154 12.209 3.72266 11.5748 3.72266C9.72328 3.72266 8.06616 4.55804 6.95801 5.87418L9.80512 8.2678L13.3955 4.00225Z" fill="#1A73E8"/>
<path d="M6.95752 5.87451C6.04472 6.95867 5.54471 8.33069 5.5459 9.74794C5.5459 10.88 5.77094 11.8006 6.1426 12.6223L9.80463 8.26813L6.95752 5.87451Z" fill="#EA4335"/>
<path d="M11.5748 7.44626C12.0144 7.44666 12.4446 7.57265 12.8149 7.80939C13.1853 8.04613 13.4802 8.38376 13.6651 8.78253C13.85 9.18129 13.9171 9.62457 13.8584 10.0602C13.7998 10.4958 13.6179 10.9056 13.3342 11.2413L16.9213 6.97572C16.185 5.55719 14.9157 4.48899 13.3922 4.00586L9.80859 8.27141C10.0245 8.01282 10.2947 7.80487 10.5999 7.66227C10.9051 7.51968 11.2379 7.44593 11.5748 7.44626Z" fill="#4285F4"/>
<path d="M11.5742 12.0563C10.3024 12.0563 9.26928 11.0232 9.26928 9.75136C9.26779 9.20983 9.45872 8.68537 9.80802 8.27155L6.14258 12.6257C6.76997 14.0135 7.80993 15.1285 8.88058 16.5333L13.3337 11.2414C13.1173 11.497 12.8478 11.7024 12.5439 11.8431C12.2401 11.9839 11.9091 12.0566 11.5742 12.0563Z" fill="#FBBC04"/>
<path d="M13.2448 17.9753C15.2565 14.8315 17.599 13.4029 17.599 9.74766C17.599 8.74521 17.3535 7.80072 16.9205 6.96875L8.88379 16.533C9.22476 16.9797 9.56914 17.4536 9.90329 17.9787C11.124 19.8677 10.7864 20.9997 11.5741 20.9997C12.3617 20.9997 12.0241 19.8643 13.2448 17.9753Z" fill="#34A853"/>
</svg>
