<svg width="24" height="24" viewBox="0 0 24 24" fill="none" xmlns="http://www.w3.org/2000/svg">
<path d="M14.3769 8.3705C15.1912 6.97678 14.7077 5.19557 13.2972 4.39057C11.8862 3.58671 10.0824 4.06324 9.26815 5.45697C9.23226 5.51941 9.1985 5.58307 9.16694 5.64781L6.41418 10.357C6.35328 10.4506 6.29692 10.5471 6.24531 10.6462L3.38672 15.5791L8.49493 18.4424L11.3391 13.551C11.401 13.458 11.4574 13.3615 11.5079 13.2618L14.2607 8.55208C14.3006 8.4931 14.3405 8.43296 14.3769 8.3705Z" fill="#FBBC04"/>
<path d="M8.51833 18.4273C7.70869 19.8436 5.88238 20.3646 4.47998 19.5475C3.077 18.7298 2.57907 16.9567 3.38928 15.541C4.19949 14.1253 6.0096 13.6019 7.41259 14.419C8.81557 15.2368 9.32795 17.0116 8.51831 18.4267" fill="#34A853"/>
<path d="M19.5414 9.30272C18.1471 8.49915 16.3654 8.97501 15.5574 10.3668L12.641 15.4062C11.8375 16.7952 12.3121 18.5725 13.701 19.376C13.7035 19.3775 13.706 19.3789 13.7086 19.3804C15.1032 20.1842 16.8853 19.708 17.6931 18.3157L20.609 13.2769C21.4123 11.8875 20.9373 10.1099 19.5479 9.30648C19.5458 9.30522 19.5436 9.30396 19.5414 9.30272Z" fill="#4285F4"/>
</svg>
