<svg width="24" height="24" viewBox="0 0 24 24" fill="none" xmlns="http://www.w3.org/2000/svg">
<path d="M14.0863 8.49462L4.59377 3.06923C4.47449 2.99997 4.32443 3.00381 4.20899 3.07307C4.08971 3.14233 4.0166 3.26546 4.0166 3.40398C4.0166 3.40398 4.02045 3.9042 4.0243 4.72763L10.9388 11.6421L14.0863 8.49462Z" fill="url(#paint0_linear_263_3077)"/>
<path d="M4.02441 4.72772C4.03596 7.6982 4.07059 14.9089 4.08598 18.4989L10.9428 11.6422L4.02441 4.72772Z" fill="url(#paint1_linear_263_3077)"/>
<path d="M19.519 11.5997L14.0859 8.49457L10.9346 11.642L14.4899 15.1974L19.5229 12.2654C19.6421 12.1961 19.7152 12.0691 19.7152 11.9345C19.7152 11.7959 19.6383 11.669 19.519 11.5997Z" fill="url(#paint2_linear_263_3077)"/>
<path d="M4.08203 18.4988C4.08973 19.7801 4.09357 20.5997 4.09357 20.5997C4.09357 20.7382 4.16668 20.8652 4.28596 20.9306C4.40525 20.9999 4.55146 20.9999 4.67074 20.9306L14.4942 15.2013L10.9388 11.646L4.08203 18.4988Z" fill="url(#paint3_linear_263_3077)"/>
<defs>
<linearGradient id="paint0_linear_263_3077" x1="4.0166" y1="7.33236" x2="14.0881" y2="7.33236" gradientUnits="userSpaceOnUse">
<stop stop-color="#63BE6B"/>
<stop offset="0.506" stop-color="#5BBC6A"/>
<stop offset="1" stop-color="#4AB96A"/>
</linearGradient>
<linearGradient id="paint1_linear_263_3077" x1="4.02257" y1="11.615" x2="10.9388" y2="11.615" gradientUnits="userSpaceOnUse">
<stop stop-color="#3EC6F2"/>
<stop offset="1" stop-color="#45AFE3"/>
</linearGradient>
<linearGradient id="paint2_linear_263_3077" x1="10.9383" y1="11.8484" x2="19.7143" y2="11.8484" gradientUnits="userSpaceOnUse">
<stop stop-color="#FAA51A"/>
<stop offset="0.387" stop-color="#FAB716"/>
<stop offset="0.741" stop-color="#FAC412"/>
<stop offset="1" stop-color="#FAC80F"/>
</linearGradient>
<linearGradient id="paint3_linear_263_3077" x1="4.08372" y1="16.3141" x2="14.494" y2="16.3141" gradientUnits="userSpaceOnUse">
<stop stop-color="#EC3B50"/>
<stop offset="1" stop-color="#E7515B"/>
</linearGradient>
</defs>
</svg>
