<svg width="24" height="24" viewBox="0 0 24 24" fill="none" xmlns="http://www.w3.org/2000/svg">
<path d="M20.2255 18.7141C20.2289 19.354 19.9574 19.9647 19.4801 20.3909C19.0027 20.8172 18.3654 21.0181 17.7298 20.9426C16.5862 20.7734 15.7482 19.7782 15.7761 18.6225V5.33526C15.7485 4.17829 16.5885 3.18263 17.7337 3.01515C18.3686 2.94084 19.0048 3.14226 19.4813 3.56839C19.9578 3.99452 20.2287 4.60446 20.2255 5.24368V18.7141Z" fill="#F9AB00"/>
<path d="M6.22471 16.5123C7.45339 16.5123 8.44943 17.5083 8.44943 18.737C8.44943 19.9656 7.45339 20.9617 6.22471 20.9617C4.99604 20.9617 4 19.9656 4 18.737C4 17.5083 4.99604 16.5123 6.22471 16.5123ZM12.0784 9.76943C10.8439 9.8371 9.88612 10.8726 9.91476 12.1086V18.0844C9.91476 19.7062 10.6283 20.6907 11.6739 20.9006C12.3303 21.0337 13.0118 20.8644 13.5296 20.4398C14.0475 20.0151 14.347 19.38 14.3451 18.7103V12.0056C14.3462 11.4069 14.1067 10.8328 13.6805 10.4123C13.2543 9.99186 12.6771 9.76022 12.0784 9.76943Z" fill="#E37400"/>
</svg>
