<svg width="24" height="24" viewBox="0 0 24 24" fill="none" xmlns="http://www.w3.org/2000/svg">
<path d="M12.0031 3.00391C12.0523 3.0321 12.0946 3.07438 12.1333 3.11667C13.5863 4.57907 15.0428 6.04147 16.4923 7.50739C15.5776 8.4095 14.6769 9.3257 13.7692 10.2313C13.428 10.5767 13.0796 10.915 12.7419 11.2673C12.4886 10.6542 12.2458 10.0375 12.0031 9.42084C12.0031 8.7795 12.0066 8.13816 12.0031 7.4933C11.9996 5.99918 11.996 4.50154 12.0031 3.00391Z" fill="#DD4B39" stroke="#DD4B39" stroke-width="0.459323"/>
<path d="M7.49707 7.49316H12.0039C12.0074 8.13803 12.0039 8.77937 12.0039 9.42071C11.7541 10.0268 11.5114 10.6364 11.2721 11.2496C11.1947 11.2073 11.1384 11.1439 11.0786 11.0804L7.51114 7.50726L7.49707 7.49316Z" fill="#EF851C" stroke="#EF851C" stroke-width="0.459323"/>
<path d="M16.4926 7.50721L16.5067 7.49664C16.5032 8.9978 16.5032 10.5025 16.5067 12.0037H14.5681C13.963 11.7499 13.3508 11.5174 12.7422 11.2672C13.0799 10.9148 13.4282 10.5765 13.7695 10.2312C14.6772 9.32552 15.5779 8.40932 16.4926 7.50721Z" fill="#7E3794" stroke="#7E3794" stroke-width="0.459323"/>
<path d="M6.76136 8.25074C7.01467 8.00759 7.25039 7.74682 7.51074 7.5072L11.0782 11.0804C11.138 11.1438 11.1943 11.2072 11.2717 11.2495C11.1908 11.3094 11.0888 11.3306 10.9973 11.3729C10.4766 11.5843 9.94883 11.7816 9.43169 12.0072C8.78782 12.0001 8.14398 12.0036 7.50019 12.0036C6.00143 12.0001 4.50267 12.0107 3.00391 12.0001C4.25287 10.7456 5.50888 9.49818 6.76136 8.25074Z" fill="#FFBB1B" stroke="#FFBB1B" stroke-width="0.459323"/>
<path d="M7.50049 12.0038C8.14433 12.0038 8.78816 12.0003 9.43199 12.0073C10.0406 12.2575 10.6493 12.4936 11.2579 12.7403C10.2588 13.7552 9.24904 14.7559 8.24635 15.7673C7.99304 16.0069 7.76436 16.2712 7.49697 16.4967C7.49697 14.9991 7.49346 13.5014 7.50049 12.0038Z" fill="#1A8763" stroke="#1A8763" stroke-width="0.459323"/>
<path d="M14.5685 12.0037H16.5071C18.0023 12.0072 19.5011 12.0001 20.9963 12.0072C20.0358 12.9833 19.0613 13.9488 18.0973 14.9179C17.5626 15.45 17.0348 15.9891 16.5001 16.5142C15.3039 15.302 14.0901 14.1039 12.8904 12.8917C12.8411 12.8388 12.7884 12.793 12.7285 12.7578C12.8305 12.6943 12.9432 12.6626 13.0522 12.6168C13.5588 12.4124 14.0654 12.2151 14.5685 12.0037Z" fill="#427FED" stroke="#427FED" stroke-width="0.459323"/>
<path d="M11.258 12.7402C11.5149 13.3533 11.7471 13.9736 12.0039 14.5867C12.0004 15.228 12.0039 15.8729 12.0004 16.5142V19.6152C11.9933 20.0769 12.0109 20.5385 11.9933 20.9966C11.9194 20.9614 11.8737 20.8944 11.8139 20.838C10.375 19.3897 8.93954 17.9414 7.49707 16.4967C7.76445 16.2711 7.99314 16.0068 8.24645 15.7672C9.24914 14.7559 10.2589 13.7551 11.258 12.7402Z" fill="#65B045" stroke="#65B045" stroke-width="0.459323"/>
<path d="M12.7282 12.7578C12.788 12.793 12.8408 12.8388 12.8901 12.8917C14.0898 14.1039 15.3036 15.302 16.4998 16.5142C14.9975 16.5107 13.4987 16.5177 12 16.5142C12.0035 15.8728 12 15.228 12.0035 14.5866C12.2392 13.977 12.4925 13.3709 12.7282 12.7578Z" fill="#43459D" stroke="#43459D" stroke-width="0.459323"/>
</svg>
