<svg width="24" height="24" viewBox="0 0 24 24" fill="none" xmlns="http://www.w3.org/2000/svg">
<path d="M16.7713 17.1035C16.773 17.7423 16.9968 18.3954 16.9966 19.0342C16.9963 19.6826 16.772 20.3165 16.774 20.9649C13.5536 20.9644 10.3332 20.9649 7.11287 20.9646C7.11441 20.3272 6.81276 19.6715 6.8125 19.0342C6.81225 18.3845 7.1134 17.7532 7.1147 17.1035C10.3336 17.1045 13.5524 17.1038 16.7713 17.1035Z" fill="#3BAB59"/>
<path d="M13.0453 6.45336C13.4926 6.00697 14.2067 5.77178 14.6489 5.32031C16.4812 7.16385 18.3212 9.00019 20.1578 10.8399C20.3233 11.0103 20.525 11.1671 20.5896 11.4074C20.6527 11.5639 20.6334 11.7343 20.6363 11.8987C20.6366 14.5924 20.636 17.2858 20.6367 19.9792C20.6774 20.5107 20.1707 21.0072 19.6415 20.965C18.6856 20.965 17.73 20.9652 16.7741 20.965C16.7702 19.6779 16.7748 18.3908 16.7715 17.1037C16.7738 15.6886 16.7725 14.2738 16.7721 12.859C15.5791 11.6679 14.3887 10.4742 13.1966 9.28255C12.7807 8.86305 12.3583 8.44966 11.9463 8.02656C12.1722 7.81036 12.8115 6.68662 13.0453 6.45336Z" fill="#4586F7"/>
<path d="M7.11139 12.864C7.11675 14.277 7.11084 15.6903 7.11444 17.1035C7.11186 18.3906 7.11573 19.6775 7.11268 20.9646C6.10685 20.9641 5.10102 20.9648 4.0952 20.9641C3.67515 20.9113 3.3053 20.5577 3.25178 20.1342C3.24845 18.9985 3.25076 17.8627 3.25103 16.7272C3.92124 16.0632 4.33938 15.2009 5.00728 14.5345C5.626 13.9132 6.49552 13.4882 7.11139 12.864Z" fill="#FDC00D"/>
<path d="M11.8932 3.00174C11.9763 3.01206 12.0751 2.97932 12.149 3.02592C12.3497 3.06504 12.5257 3.18112 12.6669 3.32601C13.2665 3.927 13.8667 4.52746 14.4669 5.12791C14.5271 5.19223 14.5974 5.24759 14.6486 5.32014C13.9753 6.0076 13.2894 6.68243 12.6112 7.365C12.3889 7.58481 12.1718 7.81025 11.9459 8.02645C11.6479 8.30725 11.3658 8.60449 11.0739 8.89174C9.7536 10.2164 8.42866 11.5362 7.1114 12.864C6.49553 13.4882 5.87218 14.1054 5.25339 14.7267C4.58556 15.393 3.92126 16.0632 3.25105 16.7272C3.24874 15.2713 3.25105 13.8153 3.25057 12.3596C3.25213 12.0847 3.24615 11.8098 3.25566 11.5352C3.25288 11.4796 3.29479 11.4356 3.29221 11.38C3.33113 11.3147 3.36584 11.2467 3.40367 11.1808C3.4989 11.0542 3.61729 10.9482 3.72774 10.8352C6.22607 8.33171 8.72515 5.82875 11.2242 3.32574C11.3265 3.21841 11.4435 3.12087 11.5859 3.07224C11.6857 3.03882 11.7845 2.99019 11.8932 3.00174Z" fill="#EC5043"/>
</svg>
