<svg width="24" height="24" viewBox="0 0 24 24" fill="none" xmlns="http://www.w3.org/2000/svg">
<path d="M13.1816 11.8452L14.9362 13.8507L17.2954 15.3584L17.7068 11.8576L17.2954 8.43488L14.8909 9.75952L13.1816 11.8452Z" fill="#00832D"/>
<path d="M3 15.0334V18.0159C3 18.6978 3.55228 19.2501 4.23414 19.2501H7.21666L7.83373 16.9957L7.21666 15.0334L5.17004 14.4163L3 15.0334Z" fill="#0066DA"/>
<path d="M7.21666 4.44012L3 8.65679L5.17004 9.27386L7.21666 8.65679L7.82345 6.72124L7.21666 4.44012Z" fill="#E94235"/>
<path d="M7.21666 8.65692H3V15.0333H7.21666V8.65692Z" fill="#2684FC"/>
<path d="M19.9902 6.22576L17.2956 8.43488V15.3584L20.0025 17.5778C20.4078 17.8946 21.0001 17.6056 21.0001 17.0903V6.70296C21.0001 6.18154 20.3944 5.89563 19.9902 6.22576ZM13.1818 11.8452V15.0334H7.2168V19.2501H16.0615C16.7434 19.2501 17.2956 18.6978 17.2956 18.016V15.3584L13.1818 11.8452Z" fill="#00AC47"/>
<path d="M16.0615 4.44037H7.2168V8.65703H13.1818V11.8452L17.2957 8.43694V5.67451C17.2957 4.99265 16.7434 4.44037 16.0615 4.44037Z" fill="#FFBA00"/>
</svg>
