<svg width="24" height="24" viewBox="0 0 24 24" fill="none" xmlns="http://www.w3.org/2000/svg">
<path d="M6.444 4.5V19.5H3V4.5H6.444ZM15.039 4.5C15.039 7.6455 13.8518 10.5787 11.7277 12.801L11.5192 13.0133L16.2765 19.5H12.0255L6.85575 12.45L8.19 11.451C10.3335 9.846 11.5913 7.4175 11.6678 4.758L11.6715 4.5H15.039ZM19.125 15.75C19.6223 15.75 20.0992 15.9475 20.4508 16.2992C20.8025 16.6508 21 17.1277 21 17.625C21 18.1223 20.8025 18.5992 20.4508 18.9508C20.0992 19.3025 19.6223 19.5 19.125 19.5C18.6277 19.5 18.1508 19.3025 17.7992 18.9508C17.4475 18.5992 17.25 18.1223 17.25 17.625C17.25 17.1277 17.4475 16.6508 17.7992 16.2992C18.1508 15.9475 18.6277 15.75 19.125 15.75Z" fill="black"/>
</svg>
