<svg width="24" height="24" viewBox="0 0 24 24" fill="none" xmlns="http://www.w3.org/2000/svg">
<path d="M16.7888 11.5057C16.9281 11.4901 17.0619 11.4893 17.1847 11.5057C17.256 11.3523 17.268 11.0876 17.204 10.7994C17.1093 10.3709 16.9805 10.1118 16.7147 10.1521C16.4489 10.1924 16.4393 10.5026 16.5345 10.9311C16.5874 11.1721 16.6826 11.3783 16.7888 11.5057Z" fill="black"/>
<path d="M14.5086 11.8448C14.6986 11.9232 14.8154 11.9756 14.8614 11.9301C14.8908 11.9015 14.882 11.8474 14.8365 11.7776C14.7427 11.6333 14.5496 11.4868 14.3449 11.405C13.9264 11.2351 13.427 11.2914 13.0417 11.5523C12.9143 11.6402 12.7938 11.7616 12.8113 11.8357C12.8168 11.8595 12.8356 11.8777 12.8807 11.8833C12.9856 11.8946 13.3521 11.72 13.7738 11.6957C14.0718 11.6784 14.3187 11.7663 14.5086 11.8448Z" fill="black"/>
<path d="M14.1265 12.05C13.8791 12.0869 13.7425 12.1636 13.6547 12.2355C13.5797 12.297 13.5337 12.3651 13.5342 12.4132C13.5342 12.4361 13.5448 12.4491 13.553 12.4556C13.5645 12.4652 13.5779 12.4704 13.594 12.4704C13.6501 12.4704 13.7752 12.4231 13.7752 12.4231C14.1196 12.307 14.3468 12.3209 14.5721 12.3451C14.6967 12.3581 14.7551 12.3655 14.7827 12.3252C14.791 12.3135 14.8007 12.2888 14.7758 12.2507C14.7174 12.1614 14.4673 12.0119 14.1265 12.05Z" fill="black"/>
<path d="M16.0189 12.805C16.1868 12.883 16.3721 12.8522 16.4324 12.7369C16.4926 12.6212 16.4052 12.4648 16.2369 12.3868C16.0686 12.3088 15.8837 12.3396 15.8235 12.4549C15.7637 12.5705 15.8511 12.7274 16.0189 12.805Z" fill="black"/>
<path d="M17.0997 11.9154C16.9631 11.9132 16.85 12.0545 16.8467 12.2308C16.8435 12.4072 16.9516 12.5519 17.0882 12.5541C17.2248 12.5562 17.3379 12.415 17.3411 12.2386C17.3443 12.0623 17.2363 11.9175 17.0997 11.9154Z" fill="black"/>
<path d="M7.92776 15.0969C7.89373 15.0566 7.83808 15.0692 7.78382 15.0809C7.74611 15.0891 7.70334 15.0986 7.65644 15.0978C7.55619 15.096 7.47111 15.0553 7.42328 14.9864C7.3612 14.8963 7.36488 14.7624 7.4334 14.6086C7.4426 14.5878 7.45363 14.5648 7.46559 14.5397C7.57504 14.3083 7.75853 13.9205 7.55251 13.5513C7.39753 13.2735 7.14506 13.1002 6.84109 13.0638C6.54953 13.0292 6.24924 13.131 6.05793 13.3299C5.7558 13.644 5.70843 14.0713 5.76684 14.222C5.78845 14.2775 5.82156 14.2927 5.84593 14.2957C5.89744 14.3022 5.97332 14.2671 6.02114 14.1462C6.02436 14.1375 6.02896 14.1241 6.03494 14.1068C6.05609 14.0431 6.09564 13.9244 6.16048 13.829C6.23866 13.7142 6.36007 13.6349 6.50263 13.6063C6.64794 13.5768 6.79648 13.6033 6.92065 13.68C7.13219 13.8104 7.21358 14.0548 7.12345 14.2879C7.07654 14.4084 7.00066 14.6389 7.01768 14.8282C7.05171 15.2117 7.30188 15.3655 7.52675 15.382C7.74519 15.3898 7.89833 15.2741 7.93696 15.1896C7.95903 15.1402 7.94018 15.1099 7.92776 15.0969Z" fill="black"/>
<path d="M20.2966 14.3954C20.2888 14.3677 20.2377 14.1809 20.1675 13.956C20.0973 13.7311 20.0245 13.5725 20.0245 13.5725C20.3061 13.1509 20.3109 12.7739 20.2736 12.5608C20.2338 12.296 20.1237 12.0707 19.9014 11.8376C19.6796 11.6045 19.2254 11.3657 18.5872 11.1867C18.5144 11.1664 18.2735 11.1001 18.2522 11.0936C18.2505 11.0797 18.2345 10.3041 18.2202 9.97131C18.2098 9.73083 18.189 9.35472 18.0724 8.98467C17.9333 8.48377 17.6915 8.04526 17.3891 7.76491C18.2232 6.90046 18.7436 5.94805 18.7423 5.13127C18.7397 3.56009 16.8106 3.08475 14.4326 4.06923C14.43 4.0701 13.9326 4.28112 13.9287 4.28328C13.9265 4.28112 13.0179 3.3898 13.0044 3.37767C10.2937 1.01311 1.81772 10.4341 4.52763 12.7224L5.11997 13.2242C4.96614 13.6219 4.90591 14.0782 4.95531 14.5683C5.01857 15.1979 5.34355 15.8019 5.87002 16.2681C6.36963 16.711 7.02696 16.9913 7.66478 16.9909C8.71946 19.4209 11.1287 20.9119 13.9543 20.996C16.9848 21.0861 19.5288 19.664 20.5947 17.1096C20.6645 16.9302 20.9604 16.1226 20.9604 15.4093C20.9595 14.6926 20.5544 14.3954 20.2966 14.3954ZM7.89747 16.308C7.80561 16.3236 7.71158 16.3301 7.61669 16.3275C6.70154 16.3028 5.71273 15.4791 5.61437 14.5015C5.50561 13.4213 6.05764 12.5902 7.03475 12.3931C7.15175 12.3697 7.29257 12.3558 7.4451 12.364C7.9928 12.3939 8.79962 12.8147 8.98378 14.0071C9.14713 15.0635 8.88758 16.1394 7.89747 16.308ZM6.8753 11.7474C6.26693 11.8657 5.73093 12.2106 5.40292 12.6869C5.20706 12.5235 4.84178 12.2072 4.77722 12.0837C4.25378 11.0897 5.34832 9.15713 6.11311 8.06563C8.0032 5.36872 10.9631 3.32741 12.3337 3.69788C12.5564 3.76115 13.2943 4.6165 13.2943 4.6165C13.2943 4.6165 11.9246 5.37652 10.6542 6.43596C8.94261 7.75321 7.64962 9.66886 6.8753 11.7474ZM16.483 15.9042C16.503 15.8959 16.5168 15.873 16.5142 15.8504C16.5112 15.8227 16.4865 15.8023 16.4588 15.8054C16.4588 15.8054 15.025 16.0177 13.6704 15.5216C13.8178 15.0419 14.2103 15.2152 14.8031 15.2629C15.8721 15.3266 16.8297 15.1706 17.5377 14.9674C18.1513 14.7914 18.9568 14.4443 19.5829 13.9504C19.794 14.414 19.8685 14.9245 19.8685 14.9245C19.8685 14.9245 20.0318 14.8954 20.1683 14.979C20.2975 15.0583 20.3919 15.2234 20.3274 15.6502C20.1956 16.4475 19.8568 17.0945 19.2874 17.6898C18.9408 18.0629 18.5196 18.3874 18.0382 18.6236C17.7825 18.7579 17.51 18.8741 17.2223 18.9681C15.0752 19.6692 12.8771 18.8983 12.1686 17.2427C12.1118 17.1183 12.0642 16.9879 12.0265 16.8518C11.7245 15.7607 11.981 14.4517 12.7822 13.628V13.6276C12.8316 13.5751 12.8818 13.5132 12.8818 13.4356C12.8818 13.3706 12.8407 13.3021 12.8047 13.2532C12.5243 12.8467 11.5533 12.1539 11.7483 10.8128C11.8882 9.84955 12.7306 9.17099 13.5162 9.21129C13.5825 9.21476 13.6488 9.21866 13.7151 9.22256C14.0556 9.24249 14.3525 9.28625 14.6324 9.29795C15.1012 9.31832 15.5228 9.24986 16.0224 8.83388C16.191 8.69349 16.3262 8.57173 16.5545 8.53316C16.5784 8.52927 16.6382 8.5076 16.7578 8.51323C16.8795 8.51973 16.9956 8.5531 17.1001 8.62243C17.5004 8.88891 17.5572 9.53411 17.578 10.0064C17.5897 10.2759 17.6222 10.9281 17.6335 11.1148C17.659 11.5429 17.7713 11.6031 17.9992 11.6781C18.127 11.7201 18.2462 11.7518 18.4212 11.8007C18.9512 11.9494 19.2653 12.1006 19.4638 12.2943C19.5821 12.4156 19.6367 12.5443 19.654 12.6669C19.7164 13.1228 19.3 13.6861 18.1976 14.1978C16.9926 14.7572 15.5302 14.8989 14.5202 14.7862C14.4426 14.7776 14.167 14.7464 14.1661 14.7464C13.358 14.6376 12.897 15.6819 13.3823 16.3973C13.6947 16.8583 14.5462 17.1586 15.398 17.1586C17.351 17.159 18.8524 16.3249 19.4105 15.6047C19.4274 15.5831 19.4287 15.5809 19.4551 15.541C19.4824 15.4995 19.4599 15.4769 19.4256 15.5003C18.9694 15.8123 16.9432 17.0516 14.7754 16.6789C14.7754 16.6789 14.5119 16.6356 14.2714 16.542C14.0803 16.4679 13.6804 16.2837 13.6319 15.8734C15.3816 16.4155 16.483 15.9042 16.483 15.9042ZM13.712 15.577C13.712 15.5774 13.712 15.5774 13.712 15.577C13.7125 15.5779 13.7125 15.5779 13.7125 15.5783C13.7125 15.5779 13.712 15.5774 13.712 15.577ZM10.3656 8.05479C11.0377 7.27831 11.8648 6.60321 12.6054 6.2245C12.6309 6.2115 12.6582 6.23923 12.6444 6.26437C12.5854 6.37096 12.4723 6.59888 12.4364 6.7722C12.4307 6.79907 12.4602 6.81943 12.4827 6.80383C12.9438 6.48969 13.7454 6.15301 14.4491 6.10967C14.4794 6.10794 14.4937 6.14651 14.4699 6.16514C14.3629 6.24703 14.2459 6.36056 14.1605 6.47539C14.1458 6.49489 14.1596 6.52305 14.1839 6.52305C14.6779 6.52652 15.3742 6.69941 15.8279 6.95376C15.8586 6.97109 15.8365 7.03045 15.8023 7.02265C15.1155 6.86536 13.992 6.74577 12.8242 7.03045C11.7821 7.28481 10.9865 7.67738 10.4063 8.09942C10.3773 8.12109 10.3422 8.08209 10.3656 8.05479Z" fill="black"/>
</svg>
