<svg width="24" height="24" viewBox="0 0 24 24" fill="none" xmlns="http://www.w3.org/2000/svg">
<path d="M8.07656 6.77277C10.8804 6.77277 13.1531 9.11326 13.1531 12.0001C13.1531 14.887 10.8802 17.2273 8.07656 17.2273C5.27306 17.2273 3 14.887 3 12.0001C3 9.11333 5.27285 6.77277 8.07656 6.77277ZM16.1836 7.07895C17.5855 7.07895 18.7219 9.28202 18.7219 12.0001H18.7222C18.7222 14.7175 17.5857 16.9213 16.1839 16.9213C14.7821 16.9213 13.6455 14.7175 13.6455 12.0001C13.6455 9.28274 14.7818 7.07895 16.1837 7.07895H16.1836ZM20.1072 7.59157C20.6002 7.59157 21 9.56534 21 12.0002C21 14.4342 20.6003 16.4088 20.1072 16.4088C19.6141 16.4088 19.2147 14.4348 19.2147 12.0002C19.2147 9.56548 19.6144 7.59157 20.1072 7.59157Z" fill="black"/>
</svg>
