<svg width="24" height="24" viewBox="0 0 24 24" fill="none" xmlns="http://www.w3.org/2000/svg">
<path d="M4.16024 14.1112C4.16024 14.8725 4.32786 15.4547 4.54695 15.8077C4.6637 16.0086 4.83182 16.1753 5.03423 16.2906C5.23665 16.406 5.46614 16.466 5.6994 16.4645C6.26276 16.4645 6.77813 16.3261 7.77132 14.9584C8.56698 13.8627 9.50452 12.3281 10.136 11.3591L11.2043 9.72561C11.9464 8.59115 12.804 7.33003 13.7902 6.47244C14.5935 5.7775 15.4608 5.38989 16.3337 5.38989C17.7991 5.38989 19.195 6.23503 20.2633 7.82008C21.4325 9.55603 22.0021 11.7426 22.0021 13.999C22.0021 15.3404 21.7364 16.3261 21.2843 17.1048C20.8482 17.8578 19.9942 18.6102 18.5621 18.6102V16.4645C19.7883 16.4645 20.0922 15.3432 20.0922 14.0599C20.0922 12.2312 19.6638 10.2018 18.72 8.75173C18.0502 7.72318 17.1822 7.09469 16.2273 7.09469C15.1945 7.09469 14.3633 7.86992 13.4293 9.25217C12.9327 9.98656 12.4229 10.8815 11.8505 11.8914L11.2203 12.9989C9.95451 15.2325 9.63389 15.7412 9.00097 16.5808C7.89373 18.0565 6.94645 18.6102 5.6994 18.6102C4.22006 18.6102 3.2846 17.9727 2.70872 17.012C2.2323 16.2292 2 15.202 2 14.0316L4.16024 14.1112Z" fill="#0081FB"/>
<path d="M3.70312 7.97167C4.69353 6.45236 6.12279 5.38989 7.7621 5.38989C8.71147 5.38989 9.65527 5.66676 10.6408 6.47036C11.7188 7.34595 12.8664 8.78773 14.3013 11.1639L14.8152 12.0167C16.056 14.0738 16.7627 15.1314 17.1751 15.6312C17.7065 16.2721 18.0793 16.4618 18.5619 16.4618C19.7881 16.4618 20.0921 15.3404 20.0921 14.0572L21.9977 13.9976C21.9977 15.3391 21.7321 16.3247 21.28 17.1034C20.8481 17.8578 19.994 18.6102 18.5619 18.6102C17.6717 18.6102 16.883 18.4178 16.0108 17.599C15.3403 16.9705 14.5565 15.854 13.9535 14.8504L12.1598 11.8686C11.2598 10.3721 10.4342 9.25632 9.95643 8.75381C9.44175 8.20769 8.78172 7.55152 7.72733 7.55152C6.87394 7.55152 6.14922 8.14748 5.54274 9.05906L3.70312 7.97167Z" fill="url(#paint0_linear_263_3152)"/>
<path d="M7.7275 7.55152C6.87411 7.55152 6.14939 8.14748 5.54291 9.05906C4.68535 10.3472 4.16024 12.2659 4.16024 14.1112C4.16024 14.8725 4.32786 15.4547 4.54695 15.8077L2.70524 17.012C2.2323 16.2292 2 15.202 2 14.0316C2 11.9032 2.58701 9.68477 3.7033 7.97167C4.6937 6.45236 6.12296 5.38989 7.76227 5.38989L7.7275 7.55152Z" fill="url(#paint1_linear_263_3152)"/>
<defs>
<linearGradient id="paint0_linear_263_3152" x1="6.33562" y1="11.6574" x2="20.1063" y2="12.3563" gradientUnits="userSpaceOnUse">
<stop stop-color="#0064E1"/>
<stop offset="0.4" stop-color="#0064E1"/>
<stop offset="0.83" stop-color="#0073EE"/>
<stop offset="1" stop-color="#0082FB"/>
</linearGradient>
<linearGradient id="paint1_linear_263_3152" x1="4.88079" y1="15.011" x2="4.88079" y2="9.95818" gradientUnits="userSpaceOnUse">
<stop stop-color="#0082FB"/>
<stop offset="1" stop-color="#0064E0"/>
</linearGradient>
</defs>
</svg>
