<svg width="24" height="24" viewBox="0 0 24 24" fill="none" xmlns="http://www.w3.org/2000/svg">
<path d="M5.23916 17.2922C4.42906 17.2939 3.68068 16.8597 3.28025 16.1554C2.88559 15.4556 2.90926 14.595 3.34178 13.9179L7.37585 7.58305C7.7962 6.88991 8.55697 6.47654 9.36724 6.50103C10.1769 6.52043 10.9134 6.9744 11.2945 7.68903C11.6706 8.40012 11.6236 9.25565 11.1732 9.92315L7.14167 16.258C6.72616 16.9055 6.00848 17.2956 5.23916 17.2922Z" fill="#F62B54"/>
<path d="M12.1589 17.2919C11.3453 17.2919 10.5966 16.8568 10.2034 16.1577C9.80964 15.4597 9.83331 14.6014 10.265 13.9262L14.2913 7.60585C14.7056 6.90276 15.4686 6.47969 16.2844 6.50075C17.1049 6.5187 17.8485 6.97766 18.2245 7.69559C18.598 8.41351 18.5433 9.27417 18.0792 9.93996L14.0537 16.2603C13.6395 16.905 12.9252 17.2939 12.1589 17.2919Z" fill="#FFCC00"/>
<path d="M18.9235 17.3451C20.0706 17.3451 21.0004 16.4348 21.0004 15.3118C21.0004 14.1889 20.0706 13.2786 18.9235 13.2786C17.7765 13.2786 16.8467 14.1889 16.8467 15.3118C16.8467 16.4348 17.7765 17.3451 18.9235 17.3451Z" fill="#00CA72"/>
</svg>
