<svg width="24" height="24" viewBox="0 0 24 24" fill="none" xmlns="http://www.w3.org/2000/svg">
<path fill-rule="evenodd" clip-rule="evenodd" d="M9.57495 3.3805C6.80866 3.59802 4.45664 3.78836 4.34973 3.80195C4.04236 3.86993 3.76172 4.07385 3.62809 4.35935L3.50781 4.60407L3.52118 10.5044L3.53454 16.4047L3.70827 16.7717C3.81518 16.9757 4.48337 17.9273 5.21837 18.8926C6.67502 20.8231 6.78193 20.9183 7.32984 20.9862C7.49021 20.9998 8.70631 20.9455 10.0026 20.8639C11.3122 20.7823 13.4237 20.6464 14.6799 20.5784C20.0655 20.2385 19.7848 20.2657 20.1056 19.9938C20.4931 19.6675 20.453 20.2113 20.4798 13.0331C20.4931 6.95603 20.4798 6.54817 20.3862 6.37144C20.2927 6.15391 20.1056 6.01796 17.6466 4.26419C16.0029 3.08141 15.8826 3.02703 15.1476 3.01343C14.8403 2.99984 12.3279 3.17657 9.57495 3.3805Z" fill="white"/>
<path fill-rule="evenodd" clip-rule="evenodd" d="M9.57495 3.3805C6.80866 3.59802 4.45664 3.78836 4.34973 3.80195C4.04236 3.86993 3.76172 4.07385 3.62809 4.35935L3.50781 4.60407L3.52118 10.5044L3.53454 16.4047L3.70827 16.7717C3.81518 16.9757 4.48337 17.9273 5.21837 18.8926C6.67502 20.8231 6.78193 20.9183 7.32984 20.9862C7.49021 20.9998 8.70631 20.9455 10.0026 20.8639C11.3122 20.7823 13.4237 20.6464 14.6799 20.5784C20.0655 20.2385 19.7848 20.2657 20.1056 19.9938C20.4931 19.6675 20.453 20.2113 20.4798 13.0331C20.4931 6.95603 20.4798 6.54817 20.3862 6.37144C20.2927 6.15391 20.1056 6.01796 17.6466 4.26419C16.0029 3.08141 15.8826 3.02703 15.1476 3.01343C14.8403 2.99984 12.3279 3.17657 9.57495 3.3805ZM15.7891 4.15543C16.0296 4.26419 17.7268 5.46056 17.9674 5.69168C18.0342 5.75965 18.0609 5.82763 18.0208 5.85482C17.954 5.9228 7.43675 6.56177 7.12939 6.50739C6.99575 6.49379 6.79529 6.41222 6.67502 6.33065C6.19392 5.99077 5.00455 4.99833 5.00455 4.93035C5.00455 4.74002 4.96446 4.74002 9.64177 4.38654C10.5371 4.33216 12.0205 4.2234 12.9159 4.14183C14.8536 3.99228 15.4283 3.99228 15.7891 4.15543ZM19.13 7.22793C19.2102 7.3095 19.277 7.45905 19.3037 7.6086C19.3171 7.74455 19.3305 10.2733 19.3171 13.2098C19.3037 18.24 19.2904 18.5663 19.1968 18.7023C19.1434 18.7974 19.0365 18.8926 18.9429 18.9198C18.7157 19.0149 7.70403 19.6539 7.47684 19.5859C7.36993 19.5587 7.22293 19.4636 7.15611 19.382L7.02248 19.2461L7.00911 13.808C6.99575 9.98775 7.00911 8.30195 7.0492 8.1524C7.07593 8.04364 7.16948 7.90769 7.23629 7.85331C7.32984 7.78533 7.98466 7.73095 10.2298 7.595C11.8067 7.51343 14.2523 7.36388 15.6421 7.26872C18.983 7.06479 18.9697 7.06479 19.13 7.22793Z" fill="black"/>
<path fill-rule="evenodd" clip-rule="evenodd" d="M16.1762 9.09044C15.5748 9.13123 15.0403 9.18561 14.9868 9.22639C14.7997 9.32156 14.6928 9.4847 14.6661 9.66144C14.6527 9.83818 14.7062 9.86537 15.3075 9.94694L15.5614 9.97413V12.3805C15.5614 13.808 15.5481 14.746 15.508 14.7188C15.4813 14.6917 14.7062 13.4681 13.7707 12.027C12.8352 10.5587 12.0601 9.36234 12.0468 9.36234C12.0334 9.34875 11.432 9.37594 10.697 9.43032C9.80167 9.4847 9.30721 9.55268 9.21367 9.60706C9.0533 9.68863 8.86621 9.98772 8.86621 10.1781C8.86621 10.3004 9.08003 10.3684 9.52103 10.3684H9.76158V17.2747L9.37403 17.3971C9.09339 17.4787 8.98648 17.533 8.93303 17.6554C8.85285 17.8457 8.85285 18.0089 8.94639 18.0089C8.97312 18.0089 9.60122 17.9817 10.3229 17.9273C11.7394 17.8457 11.8998 17.8049 12.0468 17.5058C12.1002 17.4243 12.1403 17.3291 12.1403 17.2883C12.1403 17.2747 11.9399 17.2068 11.7127 17.1524C11.4721 17.098 11.2316 17.03 11.1781 17.03C11.0846 17.0028 11.0846 16.8261 11.0846 14.4062V11.8095L12.7684 14.4877C14.5324 17.3019 14.7463 17.6282 15.0269 17.7642C15.361 17.9409 16.2163 17.8185 16.6439 17.533L16.7775 17.4515L16.7909 13.6176L16.8043 9.7702L17.0983 9.71582C17.4457 9.64784 17.6061 9.4847 17.6061 9.1992C17.6061 9.02247 17.5927 9.00887 17.4324 9.02247C17.3388 9.02247 16.7642 9.06325 16.1762 9.09044Z" fill="black"/>
</svg>
