<svg width="24" height="24" viewBox="0 0 24 24" fill="none" xmlns="http://www.w3.org/2000/svg">
<path d="M9.03984 17.0695C8.04141 15.8953 7.40156 14.1586 7.35938 12.2109V11.7891C7.40156 9.84141 8.04844 8.10469 9.03984 6.93047C10.3336 5.25703 12.232 4.50469 14.3766 4.50469C15.6984 4.50469 16.943 4.59609 17.9977 5.29922C16.4156 3.87188 14.3273 3.00703 12.0352 3H12C7.02891 3 3 7.02891 3 12C3 16.8234 6.79688 20.768 11.5711 20.993C11.7117 21 11.8594 21 12 21C14.3062 21 16.4086 20.1352 17.9977 18.7078C16.943 19.4109 15.7688 19.4391 14.4469 19.4391C12.3094 19.4461 10.3266 18.75 9.03984 17.0695Z" fill="url(#paint0_linear_263_3004)"/>
<path d="M9.04004 6.93048C9.8627 5.95314 10.9314 5.36954 12.0986 5.36954C14.7213 5.36954 16.8447 8.33673 16.8447 12.007C16.8447 15.6774 14.7213 18.6445 12.0986 18.6445C10.9314 18.6445 9.86973 18.0539 9.04004 17.0836C10.3338 18.757 12.2533 19.8258 14.3908 19.8258C15.7057 19.8258 16.9432 19.425 17.9979 18.7219C19.84 17.0625 21.0002 14.6649 21.0002 12C21.0002 9.33517 19.84 6.93751 17.9979 5.2922C16.9432 4.58907 15.7127 4.18829 14.3908 4.18829C12.2463 4.18829 10.3268 5.25001 9.04004 6.93048Z" fill="url(#paint1_linear_263_3004)"/>
<defs>
<linearGradient id="paint0_linear_263_3004" x1="10.4992" y1="3.29347" x2="10.4992" y2="20.7381" gradientUnits="userSpaceOnUse">
<stop offset="0.3" stop-color="#FF1B2D"/>
<stop offset="0.4381" stop-color="#FA1A2C"/>
<stop offset="0.5939" stop-color="#ED1528"/>
<stop offset="0.7581" stop-color="#D60E21"/>
<stop offset="0.9272" stop-color="#B70519"/>
<stop offset="1" stop-color="#A70014"/>
</linearGradient>
<linearGradient id="paint1_linear_263_3004" x1="15.019" y1="4.32168" x2="15.019" y2="19.7506" gradientUnits="userSpaceOnUse">
<stop stop-color="#9C0000"/>
<stop offset="0.7" stop-color="#FF4B4B"/>
</linearGradient>
</defs>
</svg>
