<svg width="24" height="24" viewBox="0 0 24 24" fill="none" xmlns="http://www.w3.org/2000/svg">
<path d="M17.1937 4.4011C16.3631 3.45448 14.8618 3.04865 12.9413 3.04865H7.36725C6.97431 3.04865 6.64041 3.33442 6.57889 3.7219L4.25798 18.4417C4.21184 18.7319 4.43659 18.9949 4.73079 18.9949H8.17197L9.03624 13.5131L9.00945 13.6848C9.07097 13.2973 9.40238 13.0115 9.79483 13.0115H11.4301C14.6425 13.0115 17.1579 11.7067 17.8927 7.93209C17.9145 7.82046 17.9334 7.7118 17.9498 7.60563C17.857 7.55651 17.857 7.55651 17.9498 7.60563C18.1686 6.2105 17.9483 5.2609 17.1937 4.4011Z" fill="#27346A"/>
<path d="M10.353 7.10305C10.4448 7.05939 10.547 7.03508 10.6541 7.03508H15.0241C15.5415 7.03508 16.0243 7.06881 16.4653 7.13976C16.5919 7.1601 16.7144 7.18342 16.8335 7.21021C16.9525 7.23651 17.0681 7.26627 17.1803 7.29902C17.2363 7.31539 17.2914 7.33226 17.3455 7.35012C17.5623 7.42256 17.7642 7.5069 17.9498 7.60563C18.1686 6.21001 17.9483 5.2609 17.1937 4.4011C16.3626 3.45448 14.8618 3.04865 12.9413 3.04865H7.36675C6.97431 3.04865 6.64041 3.33442 6.57889 3.7219L4.25798 18.4412C4.21184 18.7319 4.43659 18.9944 4.7303 18.9944H8.17197L9.965 7.62399C10.0017 7.3908 10.1515 7.19979 10.353 7.10305Z" fill="#27346A"/>
<path d="M17.8933 7.93192C17.1585 11.706 14.6431 13.0113 11.4307 13.0113H9.79492C9.40248 13.0113 9.07106 13.2971 9.01004 13.6846L7.93492 20.5005C7.89473 20.7545 8.0912 20.9847 8.3482 20.9847H11.2491C11.5924 20.9847 11.8846 20.7346 11.9382 20.3958L11.9665 20.2479L12.5132 16.7829L12.5485 16.5914C12.602 16.2526 12.8943 16.0025 13.2376 16.0025H13.6717C16.4818 16.0025 18.6822 14.8609 19.3251 11.5592C19.5936 10.1794 19.4546 9.02739 18.7447 8.21819C18.5293 7.9731 18.2619 7.77068 17.9504 7.60547C17.9335 7.71214 17.9151 7.82029 17.8933 7.93192Z" fill="#2790C3"/>
<path d="M17.1806 7.2991C17.0685 7.26635 16.9529 7.23659 16.8338 7.21029C16.7147 7.184 16.5917 7.16068 16.4657 7.14034C16.0241 7.06889 15.5419 7.03516 15.0239 7.03516H10.6544C10.5468 7.03516 10.4446 7.05947 10.3533 7.10362C10.1514 7.20037 10.002 7.39088 9.96532 7.62456L9.03656 13.5132L9.00977 13.6848C9.07079 13.2973 9.40221 13.0116 9.79465 13.0116H11.4304C14.6429 13.0116 17.1583 11.7067 17.893 7.93217C17.9149 7.82054 17.9332 7.71238 17.9501 7.60571C17.764 7.50748 17.5626 7.42264 17.3458 7.3507C17.2917 7.33284 17.2366 7.31547 17.1806 7.2991Z" fill="#1F264F"/>
</svg>
