<svg width="24" height="24" viewBox="0 0 24 24" fill="none" xmlns="http://www.w3.org/2000/svg">
<path d="M12 21C16.9706 21 21 16.9706 21 12C21 7.02944 16.9706 3 12 3C7.02944 3 3 7.02944 3 12C3 16.9706 7.02944 21 12 21Z" fill="#E13138"/>
<path d="M12.3526 7.81836C9.83621 7.81836 8.56543 9.59606 8.56543 11.0787C8.56543 11.9783 8.91102 12.7736 9.64902 13.0723C9.77141 13.1227 9.87941 13.0759 9.91541 12.9427C9.94061 12.8528 10.0522 12.6189 10.0774 12.5253C10.1134 12.3958 10.099 12.349 10.0018 12.2338C9.78941 11.9855 9.65622 11.7264 9.65622 11.273C9.65622 9.76159 10.5994 8.68562 12.205 8.68562C13.627 8.68562 14.4082 9.56727 14.4082 10.7116C14.4082 12.2158 13.7314 13.4393 12.727 13.4393C12.1726 13.4393 11.7586 13.0363 11.8918 12.4821C12.0502 11.82 12.3598 11.1075 12.3598 10.6288C12.3598 10.2006 12.1294 9.89474 11.647 9.89474C11.0818 9.89474 10.6246 10.4237 10.6246 11.1974C10.6246 11.6904 10.7866 11.9351 10.7866 11.9351C10.7866 11.9351 10.2142 14.4433 10.1098 14.868C9.90821 15.7136 10.081 16.7464 10.0954 16.8508C10.1026 16.912 10.1854 16.9264 10.2214 16.8796C10.2718 16.8148 10.9486 15.9907 11.179 15.1703C11.2438 14.9399 11.5534 13.738 11.5534 13.738C11.737 14.0835 12.277 14.3066 12.8458 14.3066C14.5486 14.3066 15.7041 12.8564 15.7041 10.8124C15.7077 9.26139 14.3758 7.81836 12.3526 7.81836Z" fill="white"/>
</svg>
