<svg width="24" height="24" viewBox="0 0 24 24" fill="none" xmlns="http://www.w3.org/2000/svg">
<path d="M13.0384 17.0356C12.4297 15.808 11.7155 14.5682 10.3224 14.5682C10.0561 14.5682 9.79012 14.6134 9.54603 14.7275L9.07278 13.7572C9.64951 13.2503 10.5814 12.8484 11.7793 12.8484C13.6428 12.8484 14.5991 13.7679 15.3584 14.9418C15.8091 13.9396 16.0233 12.5863 16.0233 10.9087C16.0233 6.7196 14.7445 4.56861 11.7574 4.56861C8.81378 4.56861 7.54193 6.7196 7.54193 10.9087C7.54193 15.0758 8.81378 17.2046 11.7574 17.2046C12.2253 17.2046 12.649 17.152 13.0384 17.0356ZM13.7682 18.4975C13.1124 18.6782 12.4365 18.7707 11.7574 18.7726C7.83775 18.7726 4 15.5684 4 10.9087C4 6.20486 7.83775 3 11.7574 3C15.7427 3 19.5437 6.18177 19.5437 10.9087C19.5437 13.538 18.3461 15.6747 16.6055 17.0557C17.1679 17.919 17.7468 18.4923 18.5531 18.4923C19.4329 18.4923 19.7878 17.7958 19.8471 17.2495H20.993C21.0599 17.9769 20.7047 21 17.5024 21C15.5628 21 14.5372 19.8483 13.7682 18.4975Z" fill="#DF312C"/>
</svg>
