<svg width="24" height="24" viewBox="0 0 24 24" fill="none" xmlns="http://www.w3.org/2000/svg">
<path d="M12 21C16.9706 21 21 16.9706 21 12C21 7.02944 16.9706 3 12 3C7.02944 3 3 7.02944 3 12C3 16.9706 7.02944 21 12 21Z" fill="#FF4500"/>
<path d="M17.9869 12.0858C17.9869 11.3562 17.3969 10.7768 16.6779 10.7768C16.3239 10.7768 16.0019 10.9162 15.7659 11.1416C14.8647 10.4978 13.6307 10.0794 12.2573 10.0258L12.8581 7.21462L14.8109 7.63302C14.8325 8.12662 15.2401 8.52362 15.7445 8.52362C16.2595 8.52362 16.6779 8.10522 16.6779 7.59002C16.6779 7.07502 16.2595 6.65662 15.7445 6.65662C15.3797 6.65662 15.0577 6.87122 14.9075 7.18242L12.7295 6.72102C12.6651 6.71022 12.6007 6.72102 12.5577 6.75322C12.5041 6.78542 12.4719 6.83902 12.4613 6.90342L11.7959 10.0364C10.4011 10.0794 9.1457 10.4978 8.2337 11.1524C7.9977 10.927 7.6757 10.7876 7.3217 10.7876C6.5921 10.7876 6.0127 11.3776 6.0127 12.0966C6.0127 12.633 6.3345 13.0836 6.7853 13.2876C6.7637 13.4162 6.7531 13.545 6.7531 13.6846C6.7531 15.7016 9.1029 17.3434 11.9999 17.3434C14.8969 17.3434 17.2467 15.7124 17.2467 13.6846C17.2467 13.5558 17.2359 13.4162 17.2145 13.2876C17.6651 13.0836 17.9869 12.6222 17.9869 12.0858ZM8.9955 13.0192C8.9955 12.5042 9.4139 12.0858 9.9291 12.0858C10.4441 12.0858 10.8625 12.5042 10.8625 13.0192C10.8625 13.5342 10.4441 13.9528 9.9291 13.9528C9.4139 13.9634 8.9955 13.5342 8.9955 13.0192ZM14.2209 15.4978C13.5771 16.1416 12.3539 16.1846 11.9999 16.1846C11.6351 16.1846 10.4119 16.1308 9.7787 15.4978C9.6823 15.4012 9.6823 15.251 9.7787 15.1544C9.8753 15.058 10.0255 15.058 10.1221 15.1544C10.5299 15.5622 11.3883 15.7016 11.9999 15.7016C12.6115 15.7016 13.4805 15.5622 13.8775 15.1544C13.9741 15.058 14.1243 15.058 14.2209 15.1544C14.3067 15.251 14.3067 15.4012 14.2209 15.4978ZM14.0491 13.9634C13.5341 13.9634 13.1157 13.545 13.1157 13.03C13.1157 12.515 13.5341 12.0966 14.0491 12.0966C14.5643 12.0966 14.9827 12.515 14.9827 13.03C14.9827 13.5342 14.5643 13.9634 14.0491 13.9634Z" fill="white"/>
</svg>
