<svg width="24" height="24" viewBox="0 0 24 24" fill="none" xmlns="http://www.w3.org/2000/svg">
<path d="M17.8651 6.4988C17.8506 6.41205 17.7783 6.35422 17.706 6.35422C17.6337 6.35422 16.2602 6.25301 16.2602 6.25301C16.2602 6.25301 15.306 5.29879 15.1904 5.19759C15.0892 5.09639 14.8723 5.1253 14.8 5.15422C14.7855 5.15422 14.5831 5.21205 14.2651 5.31325C13.947 4.38795 13.3831 3.53494 12.3855 3.53494C12.3566 3.53494 12.3277 3.53494 12.2988 3.53494C12.0096 3.15904 11.6627 3 11.359 3C9.03133 3 7.91807 5.90602 7.57108 7.38072C6.6747 7.65542 6.0241 7.85783 5.95181 7.88675C5.44578 8.04578 5.43133 8.06024 5.37349 8.53735C5.31566 8.88434 4 19.0771 4 19.0771L14.2651 21L19.8313 19.8C19.8313 19.8 17.8795 6.6 17.8651 6.4988ZM13.6867 5.48675C13.4265 5.57349 13.1373 5.66024 12.8193 5.76145C12.8193 5.70361 12.8193 5.64578 12.8193 5.57349C12.8193 4.99518 12.7325 4.53253 12.6169 4.17108C13.1373 4.22892 13.4699 4.80723 13.6867 5.48675ZM11.9807 4.27229C12.1253 4.63373 12.212 5.13976 12.212 5.83373C12.212 5.86265 12.212 5.90602 12.212 5.93494C11.6482 6.10843 11.0265 6.29639 10.4193 6.48434C10.7663 5.16867 11.4169 4.51807 11.9807 4.27229ZM11.2867 3.62169C11.388 3.62169 11.4892 3.6506 11.5904 3.72289C10.853 4.06988 10.0434 4.95181 9.71084 6.71566C9.21928 6.8747 8.74217 7.01928 8.29398 7.1494C8.68434 5.80482 9.6241 3.62169 11.2867 3.62169Z" fill="#95BF47"/>
<path d="M17.7056 6.3544C17.6333 6.3544 16.2598 6.2532 16.2598 6.2532C16.2598 6.2532 15.3056 5.29898 15.19 5.19778C15.1466 5.1544 15.1032 5.13995 15.0454 5.12549L14.2646 21.0002L19.8309 19.8002C19.8309 19.8002 17.8791 6.60019 17.8647 6.51344C17.8502 6.41224 17.7634 6.36886 17.7056 6.3544Z" fill="#5E8E3E"/>
<path d="M12.3711 9.43376L11.6916 11.4723C11.6916 11.4723 11.0843 11.1542 10.3614 11.1542C9.27709 11.1542 9.23372 11.8338 9.23372 12.0073C9.23372 12.9326 11.6626 13.294 11.6626 15.4771C11.6626 17.1976 10.5783 18.2964 9.1036 18.2964C7.33975 18.2964 6.44336 17.1976 6.44336 17.1976L6.92047 15.6362C6.92047 15.6362 7.84577 16.4313 8.62649 16.4313C9.13252 16.4313 9.34938 16.0265 9.34938 15.7374C9.34938 14.5229 7.3542 14.4651 7.3542 12.4699C7.3542 10.7928 8.5542 9.15906 10.9976 9.15906C11.9084 9.15906 12.3711 9.43376 12.3711 9.43376Z" fill="white"/>
</svg>
