<svg width="24" height="24" viewBox="0 0 24 24" fill="none" xmlns="http://www.w3.org/2000/svg">
<path d="M12.0783 19.0484C8.51913 19.0484 4.47507 14.7529 4.79849 11.1868C5.12191 7.78294 9.65166 4.62219 13.0083 5.10846C15.9608 5.51343 18.5898 9.24174 18.4276 12.2C18.2664 15.3197 15.1922 19.0484 12.0783 19.0484Z" fill="white"/>
<path d="M14.6266 20.8712C14.3835 20.7903 14.0196 20.7093 13.8175 20.6281C13.5748 20.5069 13.2916 20.5069 12.4021 20.5471C11.5528 20.5874 11.1076 20.5471 10.5014 20.4658C7.26568 19.899 4.67719 17.5486 3.74713 14.3069C3.58523 13.6991 3.54504 13.3751 3.54504 11.9163C3.54504 10.3355 3.50447 10.2143 3.30238 9.56584C2.12966 6.36445 4.51567 3.00122 7.9129 3.00122C8.6003 3.00122 9.44961 3.20409 9.93492 3.44684C10.2587 3.60906 10.4608 3.64932 11.7143 3.64932C12.8468 3.64932 13.2916 3.68997 13.8577 3.85219C16.406 4.50067 18.4682 6.16196 19.5601 8.47173C20.2475 9.88989 20.4906 11.3491 20.3283 13.01C20.2475 13.902 20.2475 13.9829 20.4496 14.5094C21.0968 16.4142 20.4902 18.6021 18.9129 19.899C18.4272 20.3044 17.457 20.75 16.8503 20.9122C16.2433 21.0338 15.273 21.0338 14.666 20.8716H14.6266V20.8712ZM13.5342 17.7511C14.8692 17.4677 16.0416 16.657 16.4867 15.6848C17.0528 14.5094 16.8909 13.1315 16.1227 12.2806C15.4755 11.5512 14.5049 11.1462 12.1996 10.579C10.6625 10.2143 10.2985 10.0521 9.97512 9.6874C9.69189 9.36297 9.65132 9.12022 9.89436 8.75552C10.137 8.35017 10.7437 8.10703 11.5524 8.06676C12.7255 7.98585 13.251 8.26925 13.9384 9.36335C14.4643 10.1741 14.9898 10.3765 15.678 10.0521C16.5675 9.60649 16.4867 8.14768 15.5157 7.29671C14.5856 6.52704 13.5748 6.20261 11.8758 6.20261C10.0964 6.20261 8.88277 6.56731 8.07404 7.37763C7.42682 8.02612 7.30587 8.39082 7.30587 9.40362C7.30587 10.4571 7.4272 10.7811 8.11461 11.3893C8.84258 12.0781 9.44923 12.3216 11.6328 12.8481C13.1699 13.2128 13.5744 13.4153 13.938 13.8207C14.1003 14.0235 14.1811 14.1854 14.1811 14.5501C14.1811 14.9554 14.1405 15.0364 13.8171 15.3608C13.3318 15.8467 12.6038 16.0492 11.6737 16.0093C10.5818 15.928 10.0964 15.6039 9.53037 14.4692C9.12581 13.6995 8.80239 13.4157 8.2765 13.4157C7.1034 13.4157 6.69922 14.3882 7.30587 15.6442C7.83176 16.7387 8.88315 17.4681 10.2178 17.7515C11.0265 17.9137 12.8063 17.9137 13.5748 17.7515H13.5342V17.7511Z" fill="#00AFF0"/>
</svg>
