<svg width="24" height="24" viewBox="0 0 24 24" fill="none" xmlns="http://www.w3.org/2000/svg">
<path fill-rule="evenodd" clip-rule="evenodd" d="M9.59961 3C8.60459 3.00073 7.79931 3.80661 7.80005 4.79963C7.79931 5.79266 8.60533 6.59853 9.60034 6.59927H11.4006V4.80037C11.4014 3.80734 10.5954 3.00147 9.59961 3C9.60034 3 9.60034 3 9.59961 3V3ZM9.59961 7.8H4.8003C3.80528 7.80073 2.99927 8.60661 3 9.59963C2.99853 10.5927 3.80455 11.3985 4.79956 11.4H9.59961C10.5946 11.3993 11.4006 10.5934 11.3999 9.60037C11.4006 8.60661 10.5946 7.80073 9.59961 7.8Z" fill="#36C5F0"/>
<path fill-rule="evenodd" clip-rule="evenodd" d="M20.9996 9.59963C21.0004 8.60661 20.1943 7.80073 19.1993 7.8C18.2043 7.80073 17.3983 8.60661 17.399 9.59963V11.4H19.1993C20.1943 11.3993 21.0004 10.5934 20.9996 9.59963ZM16.1995 9.59963V4.79963C16.2003 3.80734 15.395 3.00147 14.3999 3C13.4049 3.00073 12.5989 3.80661 12.5996 4.79963V9.59963C12.5981 10.5927 13.4042 11.3985 14.3992 11.4C15.3942 11.3993 16.2003 10.5934 16.1995 9.59963Z" fill="#2EB67D"/>
<path fill-rule="evenodd" clip-rule="evenodd" d="M14.3999 20.9999C15.395 20.9991 16.201 20.1932 16.2003 19.2002C16.201 18.2072 15.395 17.4013 14.3999 17.4006H12.5996V19.2002C12.5989 20.1925 13.4049 20.9984 14.3999 20.9999ZM14.3999 16.1991H19.2C20.1951 16.1984 21.0011 15.3925 21.0004 14.3995C21.0018 13.4065 20.1958 12.6006 19.2008 12.5991H14.4007C13.4056 12.5999 12.5996 13.4057 12.6003 14.3988C12.5996 15.3925 13.4049 16.1984 14.3999 16.1991Z" fill="#ECB22E"/>
<path fill-rule="evenodd" clip-rule="evenodd" d="M3 14.3995C2.99927 15.3926 3.80528 16.1984 4.80031 16.1992C5.79533 16.1984 6.60135 15.3926 6.60061 14.3995V12.5999H4.80031C3.80528 12.6006 2.99927 13.4065 3 14.3995ZM7.80008 14.3995V19.1996C7.79861 20.1926 8.60463 20.9985 9.59966 21C10.5947 20.9992 11.4007 20.1934 11.4 19.2003V14.401C11.4014 13.4079 10.5954 12.6021 9.60039 12.6006C8.60463 12.6006 7.79935 13.4065 7.80008 14.3995C7.80008 14.4002 7.80008 14.3995 7.80008 14.3995Z" fill="#E01E5A"/>
</svg>
