<svg width="24" height="24" viewBox="0 0 24 24" fill="none" xmlns="http://www.w3.org/2000/svg">
<path d="M18.3089 17.2745C19.0446 17.1568 20.5804 16.8786 20.6232 16.1369C20.6352 15.9284 20.4897 15.7432 20.2857 15.7102V15.7095C18.0157 15.3285 16.5863 12.715 16.8068 12.1923C16.9658 11.8144 17.6752 11.6681 17.9879 11.5451C19.4848 10.9452 18.8398 9.91857 17.9557 9.91857C17.5575 9.91857 17.085 10.3505 16.6493 10.1473C16.7843 7.84879 17.0243 6.22971 15.3985 4.66387C13.2882 2.63459 9.00613 2.87081 7.54528 6.20496C7.11108 7.19411 7.27756 9.00217 7.34731 10.1473C7.03984 10.2845 6.60038 10.1368 6.29667 9.99131C5.531 9.62685 4.22163 10.8245 6.01095 11.5444C6.78636 11.8541 7.51979 11.9426 7.11033 12.79C7.06608 12.871 6.81711 13.4889 6.23292 14.1804C4.5486 16.1759 3.01426 15.36 3.41772 16.3161V16.3176C3.67344 16.9258 5.0323 17.1696 5.68923 17.2745C5.86996 17.6188 5.73872 18.4092 6.35441 18.4092C6.68513 18.4092 7.31506 18.1355 8.30195 18.3042C9.63232 18.5307 11.1434 21.3444 14.4873 18.9431L14.4881 18.9416C15.2087 18.4242 15.7149 18.041 17.2478 18.3484C18.3591 18.5674 18.0502 17.7867 18.3089 17.2745Z" fill="#FFEB3B"/>
<path d="M11.9584 20.2593C11.9711 20.2615 11.9336 20.2638 11.8946 20.2638C10.7067 20.2638 9.92307 19.6998 9.29313 19.2461C6.99162 17.5888 5.95598 20.1048 5.40104 17.6068C2.21988 17.0421 2.84456 15.4733 3.65372 15.339C4.58588 15.1815 5.34705 14.6498 5.94773 13.9389C6.34144 13.4732 6.91738 12.5028 6.84689 12.3363C6.7719 12.1564 6.09247 11.9816 5.87274 11.8931C3.61023 10.9812 5.22031 9.06668 6.45693 9.65237C6.67366 9.75661 6.83564 9.80085 6.95188 9.8181C6.88288 8.69247 6.7644 7.05164 7.20235 6.05425C8.97891 1.99417 15.012 1.96943 16.7968 6.055C17.2363 7.05539 17.1156 8.69247 17.0466 9.80235C17.4133 9.71086 17.8227 9.3749 18.4752 9.64487C19.4951 10.0161 19.7485 11.3929 17.8497 11.9891C17.6773 12.0454 17.2138 12.1946 17.1538 12.3378C17.0661 12.5478 18.2389 14.9866 20.3492 15.3405C20.7422 15.4058 21.0219 15.7575 20.9987 16.1594C20.9447 17.1118 19.5483 17.4381 18.6004 17.6068C18.4617 18.2345 18.3589 18.7729 17.666 18.7729C16.4811 18.7032 16.1054 18.242 14.7083 19.2484C13.8819 19.8393 13.069 20.329 11.9584 20.2593ZM14.1969 18.6904C15.8939 17.4703 16.3071 17.924 17.6645 18.0222C17.8272 18.0222 17.711 17.7425 18.0605 16.9349C18.3574 16.8756 20.0365 16.6394 20.2345 16.1722H20.2337L20.2232 16.0807C17.6975 15.6562 16.5974 13.0645 16.5516 12.9543C15.8024 11.4124 17.8692 11.4252 18.4047 10.8665C18.6222 10.6385 18.4662 10.439 18.2022 10.343C17.7537 10.1571 17.6038 10.5425 16.9041 10.5748C16.5464 10.559 16.4639 10.4615 16.2591 10.379C16.4256 8.04154 16.6551 6.39546 15.138 4.93387C13.2227 3.09206 9.24589 3.25329 7.88928 6.35497C7.48057 7.28487 7.66355 9.16717 7.73854 10.3843C7.59381 10.412 7.1881 10.8365 6.13446 10.3288C5.84574 10.1916 4.8356 10.6655 6.15096 11.1965C6.50492 11.3382 7.30584 11.4897 7.53832 12.0476C7.89528 12.907 6.15921 15.678 3.77596 16.0784V16.0792L3.76321 16.1722C3.97469 16.6761 5.85849 16.9101 5.93348 16.9334C6.28145 17.771 6.05647 17.2888 6.25145 17.9607C6.33094 18.2307 6.99612 17.696 8.36623 17.9345C9.79783 18.1782 11.1994 20.8374 14.1969 18.6904Z" fill="#212121"/>
</svg>
