<svg width="24" height="24" viewBox="0 0 24 24" fill="none" xmlns="http://www.w3.org/2000/svg">
<path d="M3 15.6873C3 15.9242 3.08098 16.1033 3.24291 16.2247C3.40484 16.3461 3.57794 16.389 3.76221 16.3535C3.93531 16.318 4.05677 16.2528 4.12658 16.1581C4.19637 16.0633 4.23129 15.9064 4.23129 15.6873V13.1113C4.23129 12.9277 4.17127 12.7723 4.0512 12.645C3.93116 12.5176 3.78458 12.454 3.61147 12.454C3.44395 12.454 3.30016 12.5176 3.1801 12.645C3.06004 12.7723 3 12.9277 3 13.1113V15.6873ZM4.92648 16.7888C4.92648 16.9605 4.98372 17.0893 5.09818 17.1752C5.21266 17.2611 5.35925 17.304 5.53792 17.304C5.72219 17.304 5.87156 17.261 5.98604 17.1752C6.1005 17.0893 6.15775 16.9605 6.15775 16.7888V10.784C6.15775 10.6064 6.0977 10.4539 5.97766 10.3266C5.8576 10.1993 5.71103 10.1356 5.53792 10.1356C5.37041 10.1356 5.2266 10.1993 5.10656 10.3266C4.9865 10.4539 4.92648 10.6064 4.92648 10.784V16.7888ZM6.84458 17.073C6.84458 17.2447 6.90321 17.3735 7.02048 17.4594C7.13773 17.5453 7.2885 17.5882 7.47279 17.5882C7.65147 17.5882 7.79805 17.5453 7.91251 17.4594C8.02699 17.3735 8.08424 17.2447 8.08424 17.073V11.5924C8.08424 11.4088 8.0242 11.2519 7.90415 11.1216C7.78409 10.9913 7.64032 10.9262 7.47279 10.9262C7.29968 10.9262 7.15171 10.9913 7.02886 11.1216C6.90602 11.2519 6.84459 11.4088 6.84459 11.5924V17.073H6.84458ZM8.77106 17.0996C8.77106 17.4254 8.97766 17.5882 9.39088 17.5882C9.80408 17.5882 10.0107 17.4254 10.0107 17.0996V8.21694C10.0107 7.7195 9.86829 7.43822 9.58351 7.37307C9.39924 7.3257 9.21774 7.38196 9.03907 7.54184C8.86038 7.70173 8.77103 7.92675 8.77103 8.21693V17.0996H8.77106ZM10.7311 17.3573V7.69285C10.7311 7.38493 10.8176 7.20135 10.9907 7.14212C11.3648 7.04738 11.7362 7 12.1047 7C12.959 7 13.7548 7.21319 14.4919 7.63956C15.2289 8.06593 15.825 8.64775 16.2801 9.38501C16.7352 10.1223 16.9991 10.935 17.0717 11.8233C17.4123 11.6694 17.7752 11.5924 18.1605 11.5924C18.9423 11.5924 19.611 11.8855 20.1666 12.4718C20.7222 13.058 21 13.7627 21 14.5859C21 15.4149 20.7222 16.1226 20.1666 16.7088C19.611 17.2951 18.9451 17.5882 18.1689 17.5882L10.8818 17.5794C10.8315 17.5616 10.7938 17.529 10.7687 17.4816C10.7436 17.4343 10.7311 17.3928 10.7311 17.3573Z" fill="url(#paint0_linear_263_3055)"/>
<defs>
<linearGradient id="paint0_linear_263_3055" x1="12.0193" y1="7.28811" x2="12.0193" y2="17.3769" gradientUnits="userSpaceOnUse">
<stop stop-color="#FF8800"/>
<stop offset="1" stop-color="#FF3300"/>
</linearGradient>
</defs>
</svg>
