<svg width="24" height="24" viewBox="0 0 24 24" fill="none" xmlns="http://www.w3.org/2000/svg">
<path d="M19.2 3H4.8C3.80589 3 3 3.80589 3 4.8V19.2C3 20.1941 3.80589 21 4.8 21H19.2C20.1941 21 21 20.1941 21 19.2V4.8C21 3.80589 20.1941 3 19.2 3Z" fill="#6772E5"/>
<path fill-rule="evenodd" clip-rule="evenodd" d="M11.1962 9.73198C11.1962 9.26398 11.5802 9.08398 12.2162 9.08398C13.1282 9.08398 14.2802 9.35998 15.1922 9.85198V7.03198C14.1962 6.63598 13.2122 6.47998 12.2162 6.47998C9.78016 6.47998 8.16016 7.75198 8.16016 9.87598C8.16016 13.188 12.7202 12.66 12.7202 14.088C12.7202 14.64 12.2402 14.82 11.5682 14.82C10.5722 14.82 9.30016 14.412 8.29216 13.86V16.716C9.40816 17.196 10.5362 17.4 11.5682 17.4C14.0642 17.4 15.7802 16.164 15.7802 14.016C15.7682 10.44 11.1962 11.076 11.1962 9.73198Z" fill="white"/>
</svg>
