<svg width="24" height="24" viewBox="0 0 24 24" fill="none" xmlns="http://www.w3.org/2000/svg">
<path d="M12 21C16.9706 21 21 16.9706 21 12C21 7.02944 16.9706 3 12 3C7.02944 3 3 7.02944 3 12C3 16.9706 7.02944 21 12 21Z" fill="url(#paint0_linear_263_2974)"/>
<path d="M9.0918 12.658L10.1596 15.6135C10.1596 15.6135 10.2931 15.89 10.436 15.89C10.579 15.89 12.7051 13.6781 12.7051 13.6781L15.0695 9.11133L9.1299 11.8951L9.0918 12.658Z" fill="#C8DAEA"/>
<path d="M10.5084 13.416L10.3034 15.5945C10.3034 15.5945 10.2176 16.262 10.8849 15.5945C11.5523 14.927 12.1911 14.4122 12.1911 14.4122" fill="#A9C6D8"/>
<path d="M9.1119 12.7632L6.91545 12.0476C6.91545 12.0476 6.65295 11.9411 6.73747 11.6996C6.75487 11.6498 6.78997 11.6074 6.89497 11.5346C7.38165 11.1953 15.9029 8.13257 15.9029 8.13257C15.9029 8.13257 16.1435 8.0515 16.2854 8.10542C16.3205 8.11629 16.3521 8.13628 16.377 8.16336C16.4018 8.19044 16.419 8.22364 16.4268 8.25955C16.4421 8.32297 16.4485 8.38823 16.4458 8.45342C16.4452 8.50982 16.4383 8.5621 16.4332 8.64407C16.3813 9.48145 14.8282 15.731 14.8282 15.731C14.8282 15.731 14.7352 16.0967 14.4023 16.1093C14.3205 16.1119 14.239 16.0981 14.1626 16.0685C14.0863 16.039 14.0167 15.9944 13.9579 15.9374C13.3046 15.3754 11.0465 13.8578 10.5475 13.5241C10.5363 13.5164 10.5268 13.5064 10.5197 13.4948C10.5127 13.4831 10.5082 13.4701 10.5066 13.4566C10.4996 13.4214 10.5379 13.3778 10.5379 13.3778C10.5379 13.3778 14.4698 9.88285 14.5744 9.51595C14.5825 9.48752 14.5519 9.4735 14.5108 9.48595C14.2497 9.58202 9.72255 12.4409 9.2229 12.7565C9.18693 12.7674 9.14892 12.7697 9.1119 12.7632Z" fill="white"/>
<defs>
<linearGradient id="paint0_linear_263_2974" x1="12" y1="21" x2="12" y2="3" gradientUnits="userSpaceOnUse">
<stop stop-color="#1D93D2"/>
<stop offset="1" stop-color="#38B0E3"/>
</linearGradient>
</defs>
</svg>
