<svg width="24" height="24" viewBox="0 0 24 24" fill="none" xmlns="http://www.w3.org/2000/svg">
<path d="M10.2002 10.0889V9.3875C9.95684 9.34895 9.71106 9.32782 9.46472 9.32429C7.07975 9.3192 4.96827 10.8657 4.25207 13.142C3.53586 15.4182 4.38126 17.8962 6.33888 19.2591C5.62101 18.4903 5.14086 17.5301 4.95637 16.4943C4.77189 15.4585 4.89095 14.3914 5.2992 13.4219C5.70745 12.4523 6.38743 11.6217 7.25706 11.0303C8.12669 10.4389 9.1488 10.112 10.2 10.089L10.2002 10.0889Z" fill="#25F4EE"/>
<path d="M10.3324 18.0345C11.6658 18.0326 12.7619 16.9815 12.8203 15.6485V3.75319H14.9921C14.9477 3.50462 14.9266 3.25248 14.9289 3L11.9583 3V14.8838C11.9089 16.2236 10.8102 17.2848 9.47042 17.287C9.07003 17.2836 8.67618 17.1851 8.32129 16.9996C8.5513 17.3184 8.85336 17.5784 9.20285 17.7582C9.55235 17.9381 9.93937 18.0327 10.3324 18.0345ZM19.0486 7.78913V7.12796C18.2493 7.12828 17.4677 6.89228 16.802 6.4496C17.3856 7.12844 18.1742 7.59865 19.0486 7.78913Z" fill="#25F4EE"/>
<path d="M16.8017 6.44978C16.1459 5.70257 15.7844 4.74201 15.7847 3.74756H14.9917C15.0941 4.29738 15.3075 4.82055 15.6186 5.28515C15.9298 5.74974 16.3324 6.14602 16.8017 6.44978ZM9.46436 12.2968C8.90821 12.2996 8.36897 12.4884 7.93236 12.8332C7.49576 13.1779 7.18685 13.6587 7.05476 14.1993C6.92266 14.7399 6.97496 15.3091 7.20333 15.8166C7.43171 16.324 7.82305 16.7404 8.31515 16.9997C8.0461 16.628 7.88498 16.1891 7.84959 15.7315C7.8142 15.2739 7.90592 14.8154 8.11462 14.4067C8.32332 13.998 8.64087 13.655 9.03218 13.4156C9.4235 13.1761 9.87335 13.0496 10.332 13.0499C10.5814 13.0532 10.829 13.092 11.0674 13.1653V10.1408C10.824 10.1043 10.5782 10.0851 10.332 10.0833H10.1998V12.383C9.96015 12.3187 9.71239 12.2897 9.46436 12.2968Z" fill="#FE2C55"/>
<path d="M19.0486 7.78906V10.0888C17.5689 10.0859 16.1276 9.61728 14.9289 8.74921V14.7917C14.9225 17.8069 12.478 20.2479 9.46471 20.2479C8.34559 20.2499 7.25343 19.9044 6.33887 19.259C7.08463 20.0616 8.05468 20.6209 9.12264 20.864C10.1906 21.1072 11.307 21.0228 12.3264 20.6221C13.3458 20.2213 14.2209 19.5226 14.8378 18.617C15.4547 17.7115 15.7848 16.641 15.7851 15.5451V9.51967C16.9878 10.382 18.4308 10.8446 19.9105 10.842V7.88084C19.6208 7.87998 19.332 7.84922 19.0486 7.78906Z" fill="#FE2C55"/>
<path d="M14.9291 14.7919V8.74934C16.1314 9.61247 17.5747 10.0751 19.0545 10.0717V7.772C18.1803 7.58727 17.3898 7.12316 16.8022 6.44966C16.3329 6.14589 15.9303 5.74962 15.6191 5.28503C15.308 4.82043 15.0946 4.29726 14.9922 3.74744H12.8204V15.6487C12.7993 16.1667 12.6174 16.6653 12.3 17.0752C11.9827 17.485 11.5456 17.7857 11.0496 17.9356C10.5535 18.0854 10.0231 18.0769 9.53215 17.9113C9.04115 17.7456 8.61393 17.431 8.30983 17.0112C7.81766 16.752 7.42623 16.3355 7.1978 15.8281C6.96936 15.3206 6.91704 14.7513 7.04914 14.2107C7.18125 13.6701 7.49019 13.1891 7.92686 12.8444C8.36353 12.4997 8.90284 12.3109 9.45905 12.3082C9.70849 12.3104 9.95627 12.3491 10.1945 12.4232V10.1234C9.13764 10.1414 8.10881 10.4666 7.23348 11.0595C6.35815 11.6524 5.67412 12.4873 5.26481 13.4625C4.8555 14.4376 4.73858 15.5109 4.92832 16.5514C5.11805 17.5919 5.60624 18.5546 6.33336 19.3223C7.2569 19.9464 8.35063 20.2697 9.46485 20.248C12.4781 20.248 14.9227 17.807 14.9291 14.7919Z" fill="black"/>
</svg>
