<svg width="24" height="24" viewBox="0 0 24 24" fill="none" xmlns="http://www.w3.org/2000/svg">
<path d="M8.69565 10.2874C8.66882 10.2874 8.65093 10.2874 8.63304 10.2696C8.02484 9.46679 7.8728 8.08422 7.83702 7.55796C7.82807 7.45538 7.7118 7.40186 7.62236 7.45092C5.7441 8.49899 4 10.9876 4 13.387C4 17.5213 6.87553 20.9867 11.8261 20.9867C16.4636 20.9867 19.6522 17.4188 19.6522 13.3915C19.6522 8.12436 15.8822 4.63673 12.5237 3.05793C12.4343 3.01333 12.3359 3.08915 12.3448 3.18281C12.7831 6.02376 12.1839 9.10554 8.69118 10.2963L8.69565 10.2874Z" fill="url(#paint0_radial_263_3047)"/>
<defs>
<radialGradient id="paint0_radial_263_3047" cx="0" cy="0" r="1" gradientUnits="userSpaceOnUse" gradientTransform="translate(11.8261 20.9867) scale(15.6522 17.9419)">
<stop stop-color="#FF7854"/>
<stop offset="1" stop-color="#FD267D"/>
</radialGradient>
</defs>
</svg>
