<svg width="24" height="24" viewBox="0 0 24 24" fill="none" xmlns="http://www.w3.org/2000/svg">
<path d="M19.2422 3H4.75781C3.787 3 3 3.787 3 4.75781V19.2422C3 20.213 3.787 21 4.75781 21H19.2422C20.213 21 21 20.213 21 19.2422V4.75781C21 3.787 20.213 3 19.2422 3Z" fill="url(#paint0_linear_263_2985)"/>
<path d="M17.8162 5.34003H14.0137C13.5477 5.34003 13.1699 5.71779 13.1699 6.18378V12.3713C13.1699 12.8373 13.5477 13.215 14.0137 13.215H17.8162C18.2822 13.215 18.6599 12.8373 18.6599 12.3713V6.18378C18.6599 5.71779 18.2822 5.34003 17.8162 5.34003Z" fill="white"/>
<path d="M9.98609 5.34003H6.18359C5.7176 5.34003 5.33984 5.71779 5.33984 6.18378V16.8713C5.33984 17.3373 5.7176 17.715 6.18359 17.715H9.98609C10.4521 17.715 10.8298 17.3373 10.8298 16.8713V6.18378C10.8298 5.71779 10.4521 5.34003 9.98609 5.34003Z" fill="white"/>
<defs>
<linearGradient id="paint0_linear_263_2985" x1="12" y1="3" x2="12" y2="21" gradientUnits="userSpaceOnUse">
<stop stop-color="#0091E6"/>
<stop offset="1" stop-color="#0079BF"/>
</linearGradient>
</defs>
</svg>
