<svg width="24" height="24" viewBox="0 0 24 24" fill="none" xmlns="http://www.w3.org/2000/svg">
<path d="M17.5981 16.6762C17.4862 16.6158 17.35 16.6217 17.2437 16.6916C16.4392 17.2204 15.6237 17.4885 14.8195 17.4885C14.3874 17.4885 14.0161 17.392 13.683 17.1926C13.4566 17.0586 13.2463 16.8242 13.1709 16.6205C13.0977 16.4269 13.0986 15.9056 13.0997 15.1841L13.1 10.785H16.7551C16.9463 10.785 17.1012 10.63 17.1012 10.4388V7.34783C17.1012 7.15668 16.9463 7.00168 16.7551 7.00168H13.1V3.34615C13.1 3.15501 12.9451 3 12.7539 3H10.2916C10.1166 3 9.96913 3.13064 9.94795 3.30441C9.84507 4.15103 9.65317 4.854 9.377 5.3949C9.1077 5.92798 8.74333 6.39189 8.29347 6.77432C7.93306 7.08171 7.31607 7.37912 6.45955 7.65833C6.31707 7.70478 6.2207 7.83757 6.2207 7.98745V10.4389C6.2207 10.6301 6.37564 10.7851 6.56686 10.7851H8.5713V16.5081C8.5713 17.3514 8.66074 17.986 8.8449 18.4484C9.03251 18.9181 9.36558 19.3604 9.8351 19.7633C10.2969 20.159 10.859 20.4685 11.5076 20.6839C12.1363 20.889 12.6371 21.0001 13.4814 21.0001C14.1952 21.0001 14.8755 20.9261 15.5039 20.78C16.1215 20.6358 16.8204 20.3811 17.5813 20.023C17.7027 19.9659 17.7801 19.8439 17.7801 19.7098V16.9809C17.78 16.8536 17.7102 16.7366 17.5981 16.6762Z" fill="black"/>
</svg>
