<svg width="24" height="24" viewBox="0 0 24 24" fill="none" xmlns="http://www.w3.org/2000/svg">
<path d="M21.9902 7.36503C21.9006 9.30621 20.5411 11.9648 17.9117 15.3401C15.1926 18.8642 12.8913 20.627 11.0093 20.627C9.84421 20.627 8.85758 19.552 8.051 17.4013L6.43783 11.4873C5.83929 9.3358 5.19674 8.26083 4.51018 8.26083C4.36055 8.26083 3.83802 8.57437 2.94102 9.20143L2 7.99209C2.97783 7.13307 3.94845 6.26686 4.91347 5.39345C6.22818 4.25849 7.214 3.66102 7.87176 3.60183C9.42571 3.45226 10.3819 4.51284 10.7404 6.78275C11.1285 9.23183 11.3982 10.7555 11.547 11.3522C11.9951 13.3829 12.488 14.3987 13.0257 14.3987C13.4442 14.3987 14.0716 13.7413 14.9086 12.4271C15.7456 11.113 16.1937 10.1124 16.2529 9.42538C16.3721 8.29043 15.924 7.72255 14.9086 7.72255C14.4309 7.72255 13.9372 7.82733 13.4298 8.03608C14.4157 4.83997 16.2985 3.2875 19.0775 3.37708C21.1388 3.43707 22.1094 4.76638 21.9902 7.36503Z" fill="#1AB7EA"/>
</svg>
