<svg width="24" height="24" viewBox="0 0 24 24" fill="none" xmlns="http://www.w3.org/2000/svg">
<path d="M7.09469 10.3216C7.09469 10.3216 7.4004 7.91945 7.09469 6.82953C6.78898 5.73961 6.07115 5.17555 5.00795 5.10961C3.94475 5.04368 2.42816 6.0285 2.1634 8.70679C1.92519 10.7406 1.94751 12.796 2.22983 14.8243C2.45557 16.1502 3.10729 18.0412 4.23692 18.789C5.36655 19.5369 6.76254 19.5636 7.78575 18.6842C8.80897 17.8049 10.6303 13.3936 11.3481 12.4218C11.3481 12.4218 11.0956 15.6514 12.4913 16.7675C13.887 17.8835 15.8128 17.6077 16.6512 16.111C17.4897 14.6144 19.4158 10.7153 20.519 9.1269C21.6222 7.53852 22.3403 6.50148 21.8353 5.66254C21.3303 4.8236 19.775 4.91437 18.7651 5.84631C17.7551 6.77826 15.3091 9.35017 15.3091 9.35017C15.3091 9.35017 15.8141 5.43958 14.2324 4.86054C12.6506 4.28151 10.8696 4.86055 9.18143 7.30219L7.09469 10.3216Z" fill="#FF500A"/>
</svg>
