<svg width="24" height="24" viewBox="0 0 24 24" fill="none" xmlns="http://www.w3.org/2000/svg">
<path d="M12 21C16.9706 21 21 16.9706 21 12C21 7.02944 16.9706 3 12 3C7.02944 3 3 7.02944 3 12C3 16.9706 7.02944 21 12 21Z" fill="#4353FF"/>
<path d="M14.6433 10.931L13.8277 13.5016C13.8277 13.3048 13.2652 9.04102 13.2652 9.04102C11.9714 9.04102 11.2852 9.95789 10.9252 10.931L9.92957 13.5073C9.92957 13.3216 9.78895 10.9535 9.78895 10.9535C9.74092 10.4409 9.50656 9.96363 9.13025 9.6122C8.75393 9.26076 8.2618 9.05954 7.74707 9.04664L8.80457 15.5041C10.1546 15.5041 10.8858 14.5873 11.2627 13.6141L12.1064 11.4204C12.1064 11.5104 12.6689 15.5041 12.6689 15.5041C13.221 15.5034 13.7584 15.327 14.2034 15.0003C14.6484 14.6736 14.9779 14.2137 15.1439 13.6873L17.0564 9.04102C15.7064 9.04102 14.9977 9.95789 14.6377 10.931H14.6433Z" fill="white"/>
</svg>
