<svg width="24" height="24" viewBox="0 0 24 24" fill="none" xmlns="http://www.w3.org/2000/svg">
<g clip-path="url(#clip0_263_3093)">
<path d="M49.0108 10.085H45.8879V10.4163C46.8647 10.4163 47.0218 10.6257 47.0218 11.8643V14.0976C47.0218 15.3362 46.865 15.5632 45.8879 15.5632C45.1381 15.4585 44.6318 15.0573 43.934 14.2895L43.1316 13.4173C44.213 13.2251 44.7887 12.5449 44.7887 11.7772C44.7887 10.8178 43.969 10.085 42.4336 10.085H39.3632V10.4163C40.34 10.4163 40.497 10.6257 40.497 11.8643V14.0976C40.497 15.3362 40.3401 15.5632 39.3632 15.5632V15.8947H42.8348V15.5632C41.8582 15.5632 41.701 15.3362 41.701 14.0976V13.4699H41.9976L43.9342 15.8947H49.011C51.5057 15.8947 52.5875 14.5689 52.5875 12.9811C52.5872 11.3934 51.5057 10.085 49.0108 10.085ZM41.7011 12.9285V10.6085H42.4163C43.2012 10.6085 43.5503 11.1493 43.5503 11.7773C43.5503 12.388 43.2012 12.9287 42.4163 12.9287L41.7011 12.9285ZM49.0633 15.3537H48.941C48.3131 15.3537 48.2259 15.197 48.2259 14.3944V10.6085H49.0633C50.8776 10.6085 51.2088 11.9342 51.2088 12.9636C51.2089 14.0277 50.8775 15.3537 49.0633 15.3537ZM29.6462 13.5743L30.8498 10.015C31.1989 8.98571 31.042 8.68939 29.9253 8.68939V8.34033H33.2051V8.68939C32.1062 8.68939 31.8444 8.95089 31.4084 10.2245L29.4193 16.1911H29.1926L27.413 10.7304L25.5988 16.1911H25.3718L23.4353 10.2246C23.0166 8.95104 22.7375 8.68954 21.7256 8.68954V8.34048H25.5986V8.68954C24.5691 8.68954 24.2899 8.93371 24.6565 10.0151L25.8253 13.5745L27.5872 8.34048H27.9189L29.6462 13.5743ZM35.5775 16.1212C33.6586 16.1212 32.0884 14.7082 32.0884 12.9808C32.0884 11.2711 33.6586 9.85792 35.5775 9.85792C37.4965 9.85792 39.0667 11.2711 39.0667 12.9808C39.0667 14.7082 37.4967 16.1212 35.5775 16.1212ZM35.5775 10.3991C33.9727 10.3991 33.4141 11.8468 33.4141 12.981C33.4141 14.1326 33.9727 15.5631 35.5775 15.5631C37.2002 15.5631 37.7584 14.1326 37.7584 12.981C37.7584 11.8468 37.2002 10.3991 35.5775 10.3991Z" fill="#00749A"/>
<path d="M4.2793 11.9998C4.2793 15.056 6.05531 17.6968 8.63066 18.9485L4.94775 8.85764C4.50625 9.84629 4.27846 10.917 4.2793 11.9998ZM17.2122 11.6102C17.2122 10.656 16.8694 9.99517 16.5755 9.48083C16.1841 8.84486 15.8174 8.30628 15.8174 7.6703C15.8174 6.96057 16.3555 6.29991 17.1138 6.29991C17.148 6.29991 17.1805 6.30417 17.2139 6.30608C15.8402 5.04764 14.0101 4.2793 12.0001 4.2793C9.30278 4.2793 6.92972 5.6632 5.5492 7.75933C5.73034 7.76477 5.9012 7.76844 6.04605 7.76844C6.85362 7.76844 8.10369 7.67045 8.10369 7.67045C8.51989 7.64591 8.56896 8.25721 8.15335 8.30643C8.15335 8.30643 7.73494 8.35564 7.26953 8.38003L10.0811 16.7429L11.7709 11.6755L10.5678 8.37988C10.1521 8.35549 9.7582 8.30628 9.7582 8.30628C9.34215 8.28189 9.39093 7.64577 9.80698 7.6703C9.80698 7.6703 11.082 7.76829 11.8407 7.76829C12.6481 7.76829 13.8983 7.6703 13.8983 7.6703C14.3148 7.64577 14.3637 8.25706 13.9478 8.30628C13.9478 8.30628 13.5287 8.35549 13.0641 8.37988L15.8543 16.6795L16.6242 14.106C16.9582 13.0381 17.2122 12.2711 17.2122 11.6102Z" fill="#00749A"/>
<path d="M12.1358 12.675L9.81934 19.4062C10.5276 19.6149 11.2621 19.7208 12.0004 19.7208C12.8995 19.7208 13.7617 19.5653 14.5643 19.2832C14.5428 19.2495 14.5244 19.2139 14.5094 19.1768L12.1358 12.675ZM18.7751 8.29541C18.8083 8.54134 18.8271 8.80549 18.8271 9.08932C18.8271 9.8728 18.6808 10.7535 18.24 11.8548L15.8817 18.6734C18.177 17.3349 19.7209 14.8481 19.7209 11.9996C19.723 10.7049 19.3976 9.43067 18.7751 8.29541Z" fill="#00749A"/>
<path d="M12.0001 2.99994C7.03759 2.99994 3 7.03721 3 11.9997C3 16.9628 7.03744 21.0001 12.0001 21.0001C16.9625 21.0001 21.0007 16.963 21.0007 11.9997C21.0006 7.03721 16.9625 2.99994 12.0001 2.99994ZM12.0001 20.5874C7.26515 20.5874 3.41268 16.735 3.41268 11.9997C3.41268 7.26492 7.26501 3.41276 12.0001 3.41276C16.735 3.41276 20.5872 7.26492 20.5872 11.9997C20.5872 16.735 16.7348 20.5874 12.0001 20.5874Z" fill="#00749A"/>
</g>
<defs>
<clipPath id="clip0_263_3093">
<rect width="24" height="24" fill="white"/>
</clipPath>
</defs>
</svg>
