<svg width="24" height="24" viewBox="0 0 24 24" fill="none" xmlns="http://www.w3.org/2000/svg">
<path d="M5.45867 6.31357C5.29549 6.31357 5.15816 6.37091 5.08889 6.48304C5.01745 6.59875 5.02826 6.74792 5.10449 6.89888L6.93768 10.0723C6.94078 10.0783 6.94078 10.0821 6.93768 10.0877L4.05691 15.1713C3.98181 15.3209 3.98548 15.4712 4.05691 15.5872C4.12609 15.6988 4.24801 15.772 4.41137 15.772H7.12257C7.52788 15.772 7.72348 15.4985 7.86203 15.2485C7.86203 15.2485 10.6793 10.2658 10.789 10.0723C10.7779 10.0545 8.92512 6.82199 8.92512 6.82199C8.78986 6.58165 8.58617 6.31348 8.17033 6.31348H5.45867V6.31357Z" fill="#005A5F"/>
<path d="M16.8482 2.60087C16.4431 2.60087 16.2676 2.85597 16.1222 3.11728C16.1222 3.11728 10.2814 13.4756 10.0889 13.8156C10.0987 13.834 13.9412 20.8832 13.9412 20.8832C14.0758 21.1237 14.2834 21.3996 14.6988 21.3996H17.4068C17.5701 21.3996 17.6978 21.3382 17.7666 21.2264C17.839 21.1108 17.8369 20.9578 17.761 20.8074L13.9388 13.824C13.937 13.8214 13.9361 13.8183 13.9361 13.8151C13.9361 13.8119 13.937 13.8088 13.9388 13.8062L19.9416 3.19229C20.0171 3.04246 20.0187 2.88962 19.9474 2.77382C19.8782 2.66215 19.7502 2.60059 19.5868 2.60059H16.8479V2.60077H16.8482V2.60087Z" fill="#D4D600"/>
</svg>
