<svg width="24" height="24" viewBox="0 0 24 24" fill="none" xmlns="http://www.w3.org/2000/svg">
<path d="M11.6265 3.15155C11.5641 2.92298 11.377 2.7563 11.1275 2.67345C10.3375 2.46535 7.25982 3.33869 6.69839 3.94057C6.51125 4.12772 6.44886 4.37919 6.51125 4.58534C6.59458 4.77249 10.3998 10.8444 10.3998 10.8444C10.9613 11.7592 11.4184 11.6344 11.5641 11.5721C11.7103 11.5306 12.167 11.3849 12.1256 10.3049C12.0422 9.03683 11.6679 3.42203 11.6265 3.15155ZM9.98364 14.5464C10.2955 14.4635 10.5037 14.1721 10.5246 13.8188C10.5451 13.4445 10.3579 13.1116 10.046 12.9868L9.17415 12.6335C6.20129 11.3859 6.07604 11.3445 5.93032 11.3445C5.70175 11.3235 5.4917 11.4483 5.34842 11.6768C5.05601 12.1554 4.93222 13.694 5.03651 14.713C5.07794 15.0454 5.14032 15.3369 5.22366 15.503C5.34842 15.7316 5.53556 15.8773 5.76413 15.8773C5.91034 15.8773 5.9927 15.8564 8.75843 14.9626L9.98364 14.5464ZM11.5432 15.6902C11.2108 15.544 10.8365 15.6278 10.6284 15.8983L10.0256 16.6259C7.94602 19.1212 7.86268 19.225 7.8003 19.3707C7.76642 19.4566 7.75226 19.549 7.75887 19.6412C7.76507 19.7824 7.82443 19.9161 7.92506 20.0155C8.40364 20.5974 10.7118 21.4707 11.4603 21.3459C11.5771 21.3311 11.6874 21.2843 11.7791 21.2106C11.8708 21.1368 11.9403 21.0391 11.9798 20.9283C12.0218 20.7821 12.0422 20.6787 12.0422 17.7468V16.4178C12.0841 16.1059 11.876 15.815 11.5432 15.6902ZM18.7794 16.275C18.6546 16.1917 18.5718 16.1503 15.8065 15.235C15.8065 15.235 14.6003 14.8193 14.5799 14.8193C14.2875 14.6945 13.9561 14.7983 13.727 15.0898C13.498 15.3812 13.457 15.755 13.6442 16.046L14.1223 16.8569C15.7651 19.5603 15.8899 19.7474 15.9937 19.8512C16.1808 19.9974 16.4094 20.0179 16.6589 19.9136C17.3661 19.6212 18.8842 17.6679 18.988 16.8988C19.0289 16.6469 18.9666 16.4178 18.7794 16.2726V16.275ZM14.3299 13.1974C14.7685 13.114 18.3427 12.2617 18.6342 12.0536C18.8213 11.9288 18.9266 11.7002 18.9042 11.4297V11.4093C18.8213 10.6188 17.4694 8.58262 16.8042 8.2483C16.5756 8.14449 16.3261 8.14449 16.1389 8.26925C16.0142 8.35259 15.9308 8.47735 14.2465 10.8059L13.477 11.8635C13.2694 12.113 13.2694 12.4668 13.477 12.7787C13.6851 13.1116 13.8932 13.2768 14.3299 13.1949V13.1974Z" fill="#D32323"/>
</svg>
