<svg width="24" height="24" viewBox="0 0 24 24" fill="none" xmlns="http://www.w3.org/2000/svg">
<path d="M11.3147 8.56567V18.4999H3L11.3147 8.56567Z" fill="#03363D"/>
<path d="M11.3147 5C11.3147 6.09114 10.8767 7.1376 10.097 7.90915C9.31737 8.68071 8.25993 9.11417 7.15734 9.11417C6.05474 9.11417 4.99731 8.68071 4.21766 7.90915C3.438 7.1376 3 6.09114 3 5H11.3147Z" fill="#03363D"/>
<path d="M12.6846 18.5C12.6846 17.4088 13.1226 16.3624 13.9022 15.5908C14.6819 14.8193 15.7393 14.3858 16.8419 14.3858C17.9445 14.3858 19.0019 14.8193 19.7816 15.5908C20.5612 16.3624 20.9992 17.4088 20.9992 18.5H12.6846Z" fill="#03363D"/>
<path d="M12.6846 14.9342V5H21.0001L12.6846 14.9342Z" fill="#03363D"/>
</svg>
