<svg width="24" height="24" viewBox="0 0 24 24" fill="none" xmlns="http://www.w3.org/2000/svg">
<path fill-rule="evenodd" clip-rule="evenodd" d="M7.94742 5.97314H5.5C3.567 5.97314 2 7.54338 2 9.48037C2 11.4174 3.567 12.9876 5.5 12.9876H7.94742C8.29971 12.9876 8.65105 13.0063 9 13.0433C9.99248 13.1485 10.9657 13.4023 11.8866 13.7978L14.2122 14.7965C15.5319 15.3633 17 14.3933 17 12.9545V6.00629C17 4.56749 15.5319 3.59743 14.2122 4.1642L11.8866 5.16292C10.6418 5.6975 9.30169 5.97314 7.94742 5.97314ZM10 7.5C10.5523 7.5 11 7.94772 11 8.5V10.5C11 11.0523 10.5523 11.5 10 11.5C9.44772 11.5 9 11.0523 9 10.5V8.5C9 7.94772 9.44772 7.5 10 7.5Z" fill="#0D0D12"/>
<path d="M7.9474 14.9878H7L7.86071 20.1627C7.94108 20.6459 8.35827 21.0001 8.84711 21.0001H8.99998C9.55226 21.0001 9.99998 20.5514 9.99998 19.998V15.2563C9.60281 15.1506 9.19796 15.0757 8.78903 15.0323C8.51001 15.0027 8.22909 14.9878 7.9474 14.9878Z" fill="#0D0D12"/>
<path d="M22 7C22 6.44772 21.5523 6 21 6C20.4477 6 20 6.44772 20 7V12C20 12.5523 20.4477 13 21 13C21.5523 13 22 12.5523 22 12V7Z" fill="#0D0D12"/>
</svg>
