<svg width="24" height="24" viewBox="0 0 24 24" fill="none" xmlns="http://www.w3.org/2000/svg">
<path fill-rule="evenodd" clip-rule="evenodd" d="M5.5 5.97314H7.94742C9.30169 5.97314 10.6418 5.6975 11.8866 5.16292L14.2122 4.1642C15.5319 3.59743 17 4.56749 17 6.00629V12.9545C17 14.3933 15.5319 15.3633 14.2122 14.7965L11.8866 13.7978C10.9657 13.4023 9.99248 13.1485 9 13.0433C8.65105 13.0063 8.29971 12.9876 7.94742 12.9876H5.5C3.567 12.9876 2 11.4174 2 9.48037C2 7.54338 3.567 5.97314 5.5 5.97314ZM11 8.5C11 7.94772 10.5523 7.5 10 7.5C9.44772 7.5 9 7.94772 9 8.5V10.5C9 11.0523 9.44772 11.5 10 11.5C10.5523 11.5 11 11.0523 11 10.5V8.5Z" fill="#0D0D12"/>
<path d="M7.09681 15.5698C7.04612 15.2651 7.28113 14.9878 7.59003 14.9878H7.9474C8.22909 14.9878 8.51001 15.0027 8.78903 15.0323C9.07046 15.0622 9.34995 15.1069 9.62634 15.1664C9.84788 15.2141 9.99998 15.414 9.99998 15.6406V19.998C9.99998 20.5514 9.55226 21.0001 8.99998 21.0001H8.84711C8.35827 21.0001 7.94108 20.6459 7.86071 20.1627L7.09681 15.5698Z" fill="#0D0D12"/>
<path d="M22 9.5C22 10.9872 20.9178 12.2217 19.4979 12.4589C19.2255 12.5044 19 12.2761 19 12V7C19 6.72386 19.2255 6.49563 19.4979 6.54113C20.9178 6.7783 22 8.01277 22 9.5Z" fill="#0D0D12"/>
</svg>
