<svg width="24" height="24" viewBox="0 0 24 24" fill="none" xmlns="http://www.w3.org/2000/svg">
<path fill-rule="evenodd" clip-rule="evenodd" d="M2 12C2 6.47715 6.47715 2 12 2C17.5228 2 22 6.47715 22 12C22 17.5228 17.5228 22 12 22C6.47715 22 2 17.5228 2 12ZM14.2071 17.2071L18.7071 12.7071C19.0976 12.3166 19.0976 11.6834 18.7071 11.2929L14.2071 6.79289C13.8166 6.40237 13.1834 6.40237 12.7929 6.79289C12.4024 7.18342 12.4024 7.81658 12.7929 8.20711L15.5858 11H6C5.44772 11 5 11.4477 5 12C5 12.5523 5.44772 13 6 13H15.5858L12.7929 15.7929C12.4024 16.1834 12.4024 16.8166 12.7929 17.2071C13.1834 17.5976 13.8166 17.5976 14.2071 17.2071Z" fill="#0D0D12"/>
</svg>
