<svg width="24" height="24" viewBox="0 0 24 24" fill="none" xmlns="http://www.w3.org/2000/svg">
<path fill-rule="evenodd" clip-rule="evenodd" d="M4.92893 19.0711C1.02369 15.1658 1.02369 8.83417 4.92893 4.92893C8.83417 1.02369 15.1658 1.02369 19.0711 4.92893C22.9763 8.83417 22.9763 15.1658 19.0711 19.0711C15.1658 22.9763 8.83417 22.9763 4.92893 19.0711ZM17.2426 14.1213L17.2426 7.75736C17.2426 7.20507 16.7949 6.75736 16.2426 6.75736L9.87868 6.75736C9.32639 6.75736 8.87868 7.20507 8.87868 7.75736C8.87868 8.30964 9.32639 8.75736 9.87868 8.75736H13.8284L7.05025 15.5355C6.65973 15.9261 6.65973 16.5592 7.05025 16.9497C7.44078 17.3403 8.07394 17.3403 8.46447 16.9497L15.2426 10.1716V14.1213C15.2426 14.6736 15.6904 15.1213 16.2426 15.1213C16.7949 15.1213 17.2426 14.6736 17.2426 14.1213Z" fill="#0D0D12"/>
</svg>
