<svg width="24" height="24" viewBox="0 0 24 24" fill="none" xmlns="http://www.w3.org/2000/svg">
<path d="M11.1877 2.1742L4.18772 5.31826C3.46547 5.64266 3 6.36649 3 7.16524V7.36762C3 8.20482 3.67157 8.8835 4.5 8.8835H19.5C20.3284 8.8835 21 8.20482 21 7.36762V7.16524C21 6.36649 20.5345 5.64266 19.8123 5.31826L12.8123 2.1742C12.2951 1.94193 11.7049 1.94193 11.1877 2.1742Z" fill="#0D0D12"/>
<path d="M3 20.4841V19.4735C3 18.6363 3.67157 17.9576 4.5 17.9576H19.5C20.3284 17.9576 21 18.6363 21 19.4735V20.4841C21 21.3213 20.3284 22 19.5 22H4.5C3.67157 22 3 21.3213 3 20.4841Z" fill="#0D0D12"/>
<path d="M5.5 10.8835C5.22386 10.8835 5 11.1074 5 11.3835V15.4577C5 15.7338 5.22386 15.9577 5.5 15.9577H6.5C6.77614 15.9577 7 15.7338 7 15.4577V11.3835C7 11.1074 6.77614 10.8835 6.5 10.8835H5.5Z" fill="#0D0D12"/>
<path d="M9.5 10.8835C9.22386 10.8835 9 11.1074 9 11.3835V15.4577C9 15.7338 9.22386 15.9577 9.5 15.9577H10.5C10.7761 15.9577 11 15.7338 11 15.4577V11.3835C11 11.1074 10.7761 10.8835 10.5 10.8835H9.5Z" fill="#0D0D12"/>
<path d="M13.5 10.8835C13.2239 10.8835 13 11.1074 13 11.3835V15.4577C13 15.7338 13.2239 15.9577 13.5 15.9577H14.5C14.7761 15.9577 15 15.7338 15 15.4577V11.3835C15 11.1074 14.7761 10.8835 14.5 10.8835H13.5Z" fill="#0D0D12"/>
<path d="M17.5 10.8835C17.2239 10.8835 17 11.1074 17 11.3835V15.4577C17 15.7338 17.2239 15.9577 17.5 15.9577H18.5C18.7761 15.9577 19 15.7338 19 15.4577V11.3835C19 11.1074 18.7761 10.8835 18.5 10.8835H17.5Z" fill="#0D0D12"/>
</svg>
