<svg width="24" height="24" viewBox="0 0 24 24" fill="none" xmlns="http://www.w3.org/2000/svg">
<path d="M11 12C11 11.4477 11.4477 11 12 11C12.5523 11 13 11.4477 13 12C13 12.5523 12.5523 13 12 13C11.4477 13 11 12.5523 11 12Z" fill="#0D0D12"/>
<path fill-rule="evenodd" clip-rule="evenodd" d="M4 18C2.89543 18 2 17.1046 2 16V8C2 6.89543 2.89543 6 4 6H20C21.1046 6 22 6.89543 22 8V16C22 17.1046 21.1046 18 20 18H4ZM12 9C10.3431 9 9 10.3431 9 12C9 13.6569 10.3431 15 12 15C13.6569 15 15 13.6569 15 12C15 10.3431 13.6569 9 12 9ZM7 10.5C7 9.94772 6.55228 9.5 6 9.5C5.44772 9.5 5 9.94772 5 10.5V13.5C5 14.0523 5.44772 14.5 6 14.5C6.55228 14.5 7 14.0523 7 13.5V10.5ZM19 10.5C19 9.94772 18.5523 9.5 18 9.5C17.4477 9.5 17 9.94772 17 10.5V13.5C17 14.0523 17.4477 14.5 18 14.5C18.5523 14.5 19 14.0523 19 13.5V10.5Z" fill="#0D0D12"/>
</svg>
