<svg width="24" height="24" viewBox="0 0 24 24" fill="none" xmlns="http://www.w3.org/2000/svg">
<path d="M21 15C21 13.8954 20.1046 13 19 13H17C16.7239 13 16.5 13.2239 16.5 13.5V20.5C16.5 20.7761 16.7239 21 17 21H19C20.1046 21 21 20.1046 21 19V15Z" fill="#0D0D12"/>
<path d="M7.5 5C7.5 3.89543 6.60457 3 5.5 3H5C3.89543 3 3 3.89543 3 5V19C3 20.1046 3.89543 21 5 21H7C7.27614 21 7.5 20.7761 7.5 20.5V5Z" fill="#0D0D12"/>
<path d="M12.5 8C13.6046 8 14.5 8.89543 14.5 10V20.5C14.5 20.7761 14.2761 21 14 21H9.99996C9.72382 21 9.49996 20.7761 9.49996 20.5V8.5C9.49996 8.22386 9.72382 8 9.99996 8H12.5Z" fill="#0D0D12"/>
</svg>
