<svg width="24" height="24" viewBox="0 0 24 24" fill="none" xmlns="http://www.w3.org/2000/svg">
<path fill-rule="evenodd" clip-rule="evenodd" d="M8.13515 6.03386L8.23454 6.4051C7.21577 7.31421 6.58234 8.58884 6.58234 10V10.6393C6.58234 12.1918 6.19069 13.7229 5.43842 15.1115L4.11579 17.5528C3.75557 18.2177 4.27945 19 5.08493 19H18.9151C19.7205 19 20.2444 18.2177 19.8842 17.5528L18.5616 15.1115C17.8093 13.7229 17.4177 12.1918 17.4177 10.6393V10C17.4177 8.58884 16.7842 7.31421 15.7655 6.4051L15.8649 6.03386C15.953 5.70324 16 5.35586 16 5C16 2.79086 14.2091 1 12 1C9.79086 1 8 2.79086 8 5C8 5.35586 8.04696 5.70325 8.13515 6.03386ZM12 3C10.8954 3 10 3.89543 10 5C10 5.11692 10.0099 5.23087 10.0288 5.34125C10.6397 5.12093 11.3046 5 12 5C12.6954 5 13.3603 5.12093 13.9712 5.34125C13.9901 5.23087 14 5.11692 14 5C14 3.89543 13.1046 3 12 3Z" fill="#0D0D12"/>
<path d="M9.59486 21C9.38782 21 9.24401 21.2052 9.33998 21.3886C9.841 22.3464 10.8441 23 11.9999 23C13.1557 23 14.1589 22.3464 14.6599 21.3886C14.7559 21.2052 14.6121 21 14.405 21H9.59486Z" fill="#0D0D12"/>
</svg>
