<svg width="24" height="24" viewBox="0 0 24 24" fill="none" xmlns="http://www.w3.org/2000/svg">
<path d="M10 1C9.44772 1 9 1.44772 9 2C9 2.55228 9.44772 3 10 3H14C14.5523 3 15 2.55228 15 2C15 1.44772 14.5523 1 14 1H10Z" fill="#0D0D12"/>
<path d="M19.8842 17.5528L18.5616 15.1115C17.8093 13.7229 17.4177 12.1918 17.4177 10.6393V10C17.4177 8.3033 16.502 6.80399 15.1018 5.90005C15.0352 5.85708 14.9676 5.81546 14.8989 5.77523C14.0606 5.28429 13.0663 5 12 5C10.9337 5 9.93938 5.28429 9.10113 5.77523C9.03243 5.81546 8.96478 5.85708 8.89823 5.90005C7.49804 6.80399 6.58234 8.3033 6.58234 10V10.6393C6.58234 12.1918 6.19069 13.7229 5.43842 15.1115L4.11579 17.5528C3.75557 18.2177 4.27945 19 5.08493 19H18.9151C19.7205 19 20.2444 18.2177 19.8842 17.5528Z" fill="#0D0D12"/>
<path d="M10.6669 20.4909C10.2554 20.1226 9.62319 20.1576 9.25487 20.5692C8.88654 20.9807 8.92156 21.6129 9.33309 21.9812C10.0401 22.614 10.9762 23 12 23C13.0238 23 13.9599 22.614 14.6669 21.9812C15.0784 21.6129 15.1135 20.9807 14.7451 20.5692C14.3768 20.1576 13.7446 20.1226 13.3331 20.4909C12.9786 20.8082 12.5129 21 12 21C11.4871 21 11.0214 20.8082 10.6669 20.4909Z" fill="#0D0D12"/>
</svg>
