<svg width="24" height="24" viewBox="0 0 24 24" fill="none" xmlns="http://www.w3.org/2000/svg">
<path fill-rule="evenodd" clip-rule="evenodd" d="M7 2H17C18.6569 2 20 3.37065 20 5.06143V21.4889C20 21.8897 19.568 22.134 19.235 21.9216L13.59 18.3213C12.6172 17.7008 11.3828 17.7008 10.41 18.3213L4.765 21.9216C4.43198 22.134 4 21.8897 4 21.4889V5.06143C4 3.37065 5.34315 2 7 2ZM13 7C13 6.44772 12.5523 6 12 6C11.4477 6 11 6.44772 11 7V8.75C11 8.88807 10.8881 9 10.75 9H9C8.44772 9 8 9.44772 8 10C8 10.5523 8.44772 11 9 11H10.75C10.8881 11 11 11.1119 11 11.25V13C11 13.5523 11.4477 14 12 14C12.5523 14 13 13.5523 13 13V11.25C13 11.1119 13.1119 11 13.25 11H15C15.5523 11 16 10.5523 16 10C16 9.44772 15.5523 9 15 9H13.25C13.1119 9 13 8.88807 13 8.75V7Z" fill="#0D0D12"/>
</svg>
