<svg width="24" height="24" viewBox="0 0 24 24" fill="none" xmlns="http://www.w3.org/2000/svg">
<path fill-rule="evenodd" clip-rule="evenodd" d="M7 2H17C18.6569 2 20 3.37065 20 5.06143V21.4889C20 21.8897 19.568 22.134 19.235 21.9216L13.59 18.3213C12.6172 17.7008 11.3828 17.7008 10.41 18.3213L4.765 21.9216C4.43198 22.134 4 21.8897 4 21.4889V5.06143C4 3.37065 5.34315 2 7 2ZM16.7071 8.33421C17.0976 7.93569 17.0976 7.28956 16.7071 6.89104C16.3166 6.49252 15.6834 6.49252 15.2929 6.89104L11 11.2718L9.20711 9.44223C8.81658 9.04371 8.18342 9.04371 7.79289 9.44223C7.40237 9.84075 7.40237 10.4869 7.79289 10.8854L10.2929 13.4366C10.6834 13.8351 11.3166 13.8351 11.7071 13.4366L16.7071 8.33421Z" fill="#0D0D12"/>
</svg>
