<svg width="24" height="24" viewBox="0 0 24 24" fill="none" xmlns="http://www.w3.org/2000/svg">
<path fill-rule="evenodd" clip-rule="evenodd" d="M7 2H17C18.6569 2 20 3.37065 20 5.06143V21.4889C20 21.8897 19.568 22.134 19.235 21.9216L13.59 18.3213C12.6172 17.7008 11.3828 17.7008 10.41 18.3213L4.765 21.9216C4.43198 22.134 4 21.8897 4 21.4889V5.06143C4 3.37065 5.34315 2 7 2ZM9.5 9C8.94772 9 8.5 9.44772 8.5 10C8.5 10.5523 8.94772 11 9.5 11H14.5C15.0523 11 15.5 10.5523 15.5 10C15.5 9.44772 15.0523 9 14.5 9H9.5Z" fill="#0D0D12"/>
</svg>
