<svg width="24" height="24" viewBox="0 0 24 24" fill="none" xmlns="http://www.w3.org/2000/svg">
<path fill-rule="evenodd" clip-rule="evenodd" d="M7 2H17C18.6569 2 20 3.37065 20 5.06143V21.4889C20 21.8897 19.568 22.134 19.235 21.9216L13.59 18.3213C12.6172 17.7008 11.3828 17.7008 10.41 18.3213L4.765 21.9216C4.43198 22.134 4 21.8897 4 21.4889V5.06143C4 3.37065 5.34315 2 7 2ZM10.2071 6.79289C9.81658 6.40237 9.18342 6.40237 8.79289 6.79289C8.40237 7.18342 8.40237 7.81658 8.79289 8.20711L10.409 9.82322C10.5066 9.92085 10.5066 10.0791 10.409 10.1768L8.79289 11.7929C8.40237 12.1834 8.40237 12.8166 8.79289 13.2071C9.18342 13.5976 9.81658 13.5976 10.2071 13.2071L11.8232 11.591C11.9209 11.4934 12.0791 11.4934 12.1768 11.591L13.7929 13.2071C14.1834 13.5976 14.8166 13.5976 15.2071 13.2071C15.5976 12.8166 15.5976 12.1834 15.2071 11.7929L13.591 10.1768C13.4934 10.0791 13.4934 9.92085 13.591 9.82322L15.2071 8.20711C15.5976 7.81658 15.5976 7.18342 15.2071 6.79289C14.8166 6.40237 14.1834 6.40237 13.7929 6.79289L12.1768 8.40901C12.0791 8.50664 11.9209 8.50664 11.8232 8.40901L10.2071 6.79289Z" fill="#0D0D12"/>
</svg>
