<svg width="24" height="24" viewBox="0 0 24 24" fill="none" xmlns="http://www.w3.org/2000/svg">
<path d="M4 9H20C21.1046 9 22 8.10457 22 7V6C22 4.89543 21.1046 4 20 4H4C2.89543 4 2 4.89543 2 6V7C2 8.10457 2.89543 9 4 9Z" fill="#0D0D12"/>
<path fill-rule="evenodd" clip-rule="evenodd" d="M20 17V11.5C20 11.2239 19.7761 11 19.5 11H4.5C4.22386 11 4 11.2239 4 11.5V17C4 18.6569 5.34315 20 7 20H17C18.6569 20 20 18.6569 20 17ZM8.5 13C8.5 12.4477 8.94772 12 9.5 12H14.5C15.0523 12 15.5 12.4477 15.5 13C15.5 13.5523 15.0523 14 14.5 14H9.5C8.94772 14 8.5 13.5523 8.5 13Z" fill="#0D0D12"/>
</svg>
