<svg width="24" height="24" viewBox="0 0 24 24" fill="none" xmlns="http://www.w3.org/2000/svg">
<path d="M22 10V17C22 18.6569 20.6569 20 19 20H5C3.34315 20 2 18.6569 2 17V10M22 10C22 8.34315 20.6569 7 19 7H16M22 10L14.4368 12.917C13.6611 13.2617 12.8306 13.4341 12 13.4341M2 10C2 8.34315 3.34315 7 5 7H8M2 10L9.56317 12.917C10.3389 13.2617 11.1694 13.4341 12 13.4341M8 7V6C8 4.89543 8.89543 4 10 4H14C15.1046 4 16 4.89543 16 6V7M8 7H16M12 13.4341V12M12 13.4341V15" stroke="black" stroke-width="2" stroke-linecap="round" stroke-linejoin="round"/>
</svg>
