<svg width="24" height="24" viewBox="0 0 24 24" fill="none" xmlns="http://www.w3.org/2000/svg">
<path d="M9 6C9 5.44772 9.44772 5 10 5H14C14.5523 5 15 5.44772 15 6H17C17 4.34315 15.6569 3 14 3H10C8.34315 3 7 4.34315 7 6H9Z" fill="#121A26"/>
<path d="M22 10V11H13C13 10.4477 12.5523 10 12 10C11.4477 10 11 10.4477 11 11H2V10C2 8.34315 3.34315 7 5 7H19C20.6569 7 22 8.34315 22 10Z" fill="#121A26"/>
<path d="M19 20H5C3.34315 20 2 18.6569 2 17V13H11C11 13.5523 11.4477 14 12 14C12.5523 14 13 13.5523 13 13H22V17C22 18.6569 20.6569 20 19 20Z" fill="#121A26"/>
</svg>
