<svg width="24" height="24" viewBox="0 0 24 24" fill="none" xmlns="http://www.w3.org/2000/svg">
<path d="M8 1C8.55228 1 9 1.44772 9 2V4C9 4.55228 8.55228 5 8 5C7.44772 5 7 4.55228 7 4V2C7 1.44772 7.44772 1 8 1Z" fill="black"/>
<path d="M16 1C16.5523 1 17 1.44772 17 2V4C17 4.55228 16.5523 5 16 5C15.4477 5 15 4.55228 15 4V2C15 1.44772 15.4477 1 16 1Z" fill="black"/>
<path d="M5.5 4V3.04148C4.08114 3.27952 3 4.5135 3 6V8.5C3 8.77614 3.22386 9 3.5 9H20.5C20.7761 9 21 8.77614 21 8.5V6C21 4.5135 19.9189 3.27952 18.5 3.04148V4C18.5 5.38071 17.3807 6.5 16 6.5C14.6193 6.5 13.5 5.38071 13.5 4V3H10.5V4C10.5 5.38071 9.38071 6.5 8 6.5C6.61929 6.5 5.5 5.38071 5.5 4Z" fill="black"/>
<path fill-rule="evenodd" clip-rule="evenodd" d="M6 23H18C19.6569 23 21 21.6569 21 20V11.5C21 11.2239 20.7761 11 20.5 11H3.5C3.22386 11 3 11.2239 3 11.5V20C3 21.6569 4.34315 23 6 23ZM15.2071 15.7071C15.5976 15.3166 15.5976 14.6834 15.2071 14.2929C14.8166 13.9024 14.1834 13.9024 13.7929 14.2929L11 17.0858L10.2071 16.2929C9.81658 15.9024 9.18342 15.9024 8.79289 16.2929C8.40237 16.6834 8.40237 17.3166 8.79289 17.7071L10.2929 19.2071C10.6834 19.5976 11.3166 19.5976 11.7071 19.2071L15.2071 15.7071Z" fill="black"/>
</svg>
