<svg width="24" height="24" viewBox="0 0 24 24" fill="none" xmlns="http://www.w3.org/2000/svg">
<path d="M9 13C9 11.3431 10.3431 10 12 10C13.6569 10 15 11.3431 15 13C15 14.6569 13.6569 16 12 16C10.3431 16 9 14.6569 9 13Z" fill="#0D0D12"/>
<path fill-rule="evenodd" clip-rule="evenodd" d="M2 17V10C2 8.34315 3.34315 7 5 7H6.5C7.32843 7 8 6.32843 8 5.5C8 4.67157 8.67157 4 9.5 4H14.5C15.3284 4 16 4.67157 16 5.5C16 6.32843 16.6716 7 17.5 7H19C20.6569 7 22 8.34315 22 10V17C22 18.6569 20.6569 20 19 20H5C3.34315 20 2 18.6569 2 17ZM12 8C9.23858 8 7 10.2386 7 13C7 15.7614 9.23858 18 12 18C14.7614 18 17 15.7614 17 13C17 10.2386 14.7614 8 12 8Z" fill="#0D0D12"/>
</svg>
