<svg width="24" height="24" viewBox="0 0 24 24" fill="none" xmlns="http://www.w3.org/2000/svg">
<path fill-rule="evenodd" clip-rule="evenodd" d="M18 3H6C4.34315 3 3 4.34315 3 6V18C3 19.6569 4.34315 21 6 21H18C19.6569 21 21 19.6569 21 18V6C21 4.34315 19.6569 3 18 3ZM17.2071 10.2071C17.5976 9.81658 17.5976 9.18342 17.2071 8.79289C16.8166 8.40237 16.1834 8.40237 15.7929 8.79289L10.5 14.0858L8.20711 11.7929C7.81658 11.4024 7.18342 11.4024 6.79289 11.7929C6.40237 12.1834 6.40237 12.8166 6.79289 13.2071L9.79289 16.2071C10.1834 16.5976 10.8166 16.5976 11.2071 16.2071L17.2071 10.2071Z" fill="#0D0D12"/>
</svg>
