<svg width="24" height="24" viewBox="0 0 24 24" fill="none" xmlns="http://www.w3.org/2000/svg">
<path d="M2 5C2 3.34315 5.13401 2 9 2C12.866 2 16 3.34315 16 5C16 5.76835 15.326 6.46924 14.2176 7C12.9358 7.61375 11.0732 8 9 8C6.92683 8 5.06417 7.61375 3.78242 7C2.67399 6.46924 2 5.76835 2 5Z" fill="#0D0D12"/>
<path d="M2 17C2 16.8781 2.01698 16.7578 2.04999 16.6396C2.09 16.4964 2.25926 16.4496 2.38797 16.5241C2.56965 16.6293 2.7484 16.7224 2.91866 16.8039C3.78439 17.2184 4.80877 17.5314 5.92362 17.7331C6.08023 17.7614 6.17368 17.925 6.12971 18.078C6.04726 18.3648 6 18.6725 6 19C6 19.1189 6.0063 19.2354 6.01831 19.3494C6.03723 19.529 5.88146 19.688 5.70546 19.6476C4.9783 19.4811 4.32778 19.2612 3.78242 19C2.67399 18.4693 2 17.7684 2 17Z" fill="#0D0D12"/>
<path d="M6 15C6 14.6725 6.04726 14.3648 6.12971 14.078C6.17368 13.925 6.08023 13.7614 5.92362 13.7331C4.80877 13.5314 3.78439 13.2184 2.91866 12.8039C2.7484 12.7224 2.56965 12.6293 2.38797 12.5241C2.25926 12.4496 2.09 12.4964 2.04999 12.6396C2.01698 12.7578 2 12.8781 2 13C2 13.7684 2.67399 14.4693 3.78242 15C4.32778 15.2612 4.9783 15.4811 5.70546 15.6476C5.88146 15.688 6.03723 15.529 6.01831 15.3494C6.0063 15.2354 6 15.1189 6 15Z" fill="#0D0D12"/>
<path d="M15 10C15.1172 10 15.2338 10.0011 15.3499 10.0033C15.5039 10.0062 15.6549 9.94254 15.7394 9.8138C15.9092 9.55501 16 9.28206 16 9.00002C16 8.87806 15.983 8.7578 15.95 8.63965C15.91 8.49642 15.7407 8.44964 15.612 8.52414C15.4304 8.62928 15.2516 8.72235 15.0813 8.80388C13.461 9.57977 11.2849 10 9 10C6.71514 10 4.53902 9.57977 2.91866 8.80388C2.7484 8.72235 2.56965 8.62928 2.38797 8.52413C2.25926 8.44964 2.09 8.49642 2.04999 8.63965C2.01698 8.7578 2 8.87806 2 9.00002C2 9.76837 2.67399 10.4693 3.78242 11C4.74216 11.4596 6.0276 11.7916 7.48323 11.9294C7.60652 11.9411 7.72895 11.904 7.82971 11.832C8.27346 11.5149 8.7636 11.2542 9.26241 11.0404C10.8327 10.3674 12.8626 10 15 10Z" fill="#0D0D12"/>
<path d="M15 12C11.134 12 8 13.3431 8 15C8 15.3464 8.13701 15.6791 8.38908 15.9887C8.69608 16.3658 9.17375 16.7085 9.78242 17C11.0642 17.6137 12.9268 18 15 18C17.0732 18 18.9358 17.6137 20.2176 17C21.326 16.4692 22 15.7684 22 15C22 13.4314 19.1908 12.1439 15.6109 12.0113C15.4096 12.0038 15.2058 12 15 12Z" fill="#0D0D12"/>
<path d="M8 19C8 18.8786 8.01684 18.7588 8.04957 18.6411C8.08938 18.498 8.25836 18.451 8.38716 18.525C8.56226 18.6257 8.74024 18.7184 8.91866 18.8039C10.539 19.5798 12.7151 20 15 20C17.2849 20 19.461 19.5798 21.0813 18.8039C21.2516 18.7224 21.4304 18.6293 21.612 18.5241C21.7407 18.4496 21.91 18.4964 21.95 18.6396C21.983 18.7578 22 18.8781 22 19C22 19.7684 21.326 20.4693 20.2176 21C18.9358 21.6138 17.0732 22 15 22C12.9268 22 11.0642 21.6138 9.78242 21C9.17375 20.7086 8.69608 20.3658 8.38908 19.9887C8.13701 19.6792 8 19.3464 8 19Z" fill="#0D0D12"/>
</svg>
