<svg width="24" height="24" viewBox="0 0 24 24" fill="none" xmlns="http://www.w3.org/2000/svg">
<path d="M21 8.5C21 8.77614 20.7761 9 20.5 9H3.5C3.22386 9 3 8.77614 3 8.5V7C3 5.89543 3.89543 5 5 5H19C20.1046 5 21 5.89543 21 7V8.5Z" fill="#0D0D12"/>
<path d="M5 19C3.89543 19 3 18.1046 3 17V11.5C3 11.2239 3.22386 11 3.5 11H19C16.2386 11 14 13.2386 14 16C14 16.9462 14.2629 17.8311 14.7195 18.5855C14.8263 18.7618 14.7053 19 14.4992 19H5Z" fill="#0D0D12"/>
<path d="M19 11H20.5C20.5807 11 20.6569 11.0191 20.7243 11.053C20.9024 11.1426 20.7472 11.3095 20.5578 11.2474C20.0676 11.0869 19.5439 11 19 11Z" fill="#0D0D12"/>
<path d="M20 14C20 13.4477 19.5523 13 19 13C18.4477 13 18 13.4477 18 14V16.5858L17.7071 16.2929C17.3166 15.9024 16.6834 15.9024 16.2929 16.2929C15.9024 16.6834 15.9024 17.3166 16.2929 17.7071L18.2929 19.7071C18.6834 20.0976 19.3166 20.0976 19.7071 19.7071L21.7071 17.7071C22.0976 17.3166 22.0976 16.6834 21.7071 16.2929C21.3166 15.9024 20.6834 15.9024 20.2929 16.2929L20 16.5858V14Z" fill="#0D0D12"/>
</svg>
