<svg width="24" height="24" viewBox="0 0 24 24" fill="none" xmlns="http://www.w3.org/2000/svg">
<path d="M21 8.5C21 8.77614 20.7761 9 20.5 9H3.5C3.22386 9 3 8.77614 3 8.5V7C3 5.89543 3.89543 5 5 5H19C20.1046 5 21 5.89543 21 7V8.5Z" fill="#0D0D12"/>
<path d="M5 19C3.89543 19 3 18.1046 3 17V11.5C3 11.2239 3.22386 11 3.5 11H19C16.2386 11 14 13.2386 14 16C14 16.9462 14.2629 17.8311 14.7195 18.5855C14.8263 18.7618 14.7053 19 14.4992 19H5Z" fill="#0D0D12"/>
<path d="M19 11H20.5C20.5807 11 20.6569 11.0191 20.7243 11.053C20.9024 11.1426 20.7472 11.3095 20.5578 11.2474C20.0676 11.0869 19.5439 11 19 11Z" fill="#0D0D12"/>
<path d="M21.7071 15.2929L19.7071 13.2929C19.3166 12.9024 18.6834 12.9024 18.2929 13.2929L16.2929 15.2929C15.9024 15.6834 15.9024 16.3166 16.2929 16.7071C16.6834 17.0976 17.3166 17.0976 17.7071 16.7071L18 16.4142V19C18 19.5523 18.4477 20 19 20C19.5523 20 20 19.5523 20 19V16.4142L20.2929 16.7071C20.6834 17.0976 21.3166 17.0976 21.7071 16.7071C22.0976 16.3166 22.0976 15.6834 21.7071 15.2929Z" fill="#0D0D12"/>
</svg>
