<svg width="24" height="24" viewBox="0 0 24 24" fill="none" xmlns="http://www.w3.org/2000/svg">
<path d="M21 8.5C21 8.77614 20.7761 9 20.5 9H3.5C3.22386 9 3 8.77614 3 8.5V7C3 5.89543 3.89543 5 5 5H19C20.1046 5 21 5.89543 21 7V8.5Z" fill="#0D0D12"/>
<path d="M5 19C3.89543 19 3 18.1046 3 17V11.5C3 11.2239 3.22386 11 3.5 11H20.5C20.7761 11 21 11.2239 21 11.5V12.4992C21 12.7053 20.7618 12.8263 20.5855 12.7195C19.8311 12.2629 18.9462 12 18 12C15.2386 12 13 14.2386 13 17C13 17.5761 13.0974 18.1294 13.2767 18.6444C13.3359 18.8146 13.2142 19 13.034 19H5Z" fill="#0D0D12"/>
<path d="M21.7071 16.2929L19.7071 14.2929C19.3166 13.9024 18.6834 13.9024 18.2929 14.2929C17.9024 14.6834 17.9024 15.3166 18.2929 15.7071L18.5858 16H16C15.4477 16 15 16.4477 15 17C15 17.5523 15.4477 18 16 18H18.5858L18.2929 18.2929C17.9024 18.6834 17.9024 19.3166 18.2929 19.7071C18.6834 20.0976 19.3166 20.0976 19.7071 19.7071L21.7071 17.7071C22.0976 17.3166 22.0976 16.6834 21.7071 16.2929Z" fill="#0D0D12"/>
</svg>
