<svg width="24" height="24" viewBox="0 0 24 24" fill="none" xmlns="http://www.w3.org/2000/svg">
<path d="M16.7298 19H7.27015C5.20724 19 3.66002 17.0948 4.06459 15.0528L4.93634 10.6528C5.24194 9.11032 6.5836 8 8.14189 8H8.74992C8.88799 8 8.99992 8.11193 8.99992 8.25V8.28463C8.99992 8.41383 8.90122 8.52061 8.77384 8.54214C8.13926 8.64936 7.53424 8.9607 7.0654 9.47158C5.94514 10.6923 6.02658 12.5901 7.24731 13.7103L9.97151 16.2103C11.1188 17.2632 12.881 17.2632 14.0283 16.2103L16.7525 13.7103C17.9733 12.5901 18.0547 10.6923 16.9344 9.47158C16.4656 8.9607 15.8606 8.64936 15.226 8.54214C15.0986 8.52061 14.9999 8.41383 14.9999 8.28463V8.25C14.9999 8.11193 15.1119 8 15.2499 8H15.8581C17.4164 8 18.7581 9.11032 19.0637 10.6528L19.9354 15.0528C20.34 17.0948 18.7928 19 16.7298 19Z" fill="#0D0D12"/>
<path d="M15.4003 12.2368C15.8072 11.8634 15.8343 11.2308 15.4609 10.8239C15.0875 10.417 14.4549 10.3898 14.048 10.7632L12.9999 11.725V6C12.9999 5.44772 12.5522 5 11.9999 5C11.4476 5 10.9999 5.44772 10.9999 6V11.725L9.95186 10.7632C9.54495 10.3898 8.91237 10.417 8.53895 10.8239C8.16553 11.2308 8.19268 11.8634 8.59958 12.2368L11.3238 14.7368C11.7062 15.0877 12.2936 15.0877 12.6761 14.7368L15.4003 12.2368Z" fill="#0D0D12"/>
</svg>
