<svg width="24" height="24" viewBox="0 0 24 24" fill="none" xmlns="http://www.w3.org/2000/svg">
<path d="M13 4C13 3.44772 12.5523 3 12 3C11.4477 3 11 3.44772 11 4V11.5858L9.20711 9.79289C8.81658 9.40237 8.18342 9.40237 7.79289 9.79289C7.40237 10.1834 7.40237 10.8166 7.79289 11.2071L11.2929 14.7071C11.6834 15.0976 12.3166 15.0976 12.7071 14.7071L16.2071 11.2071C16.5976 10.8166 16.5976 10.1834 16.2071 9.79289C15.8166 9.40237 15.1834 9.40237 14.7929 9.79289L13 11.5858V4Z" fill="#0D0D12"/>
<path d="M7.05025 7.05025C7.44078 6.65972 7.44078 6.02656 7.05025 5.63603C6.65973 5.24551 6.02656 5.24551 5.63604 5.63603C2.12132 9.15075 2.12132 14.8492 5.63604 18.364C9.15076 21.8787 14.8492 21.8787 18.364 18.364C21.8787 14.8492 21.8787 9.15075 18.364 5.63603C17.9734 5.24551 17.3403 5.24551 16.9497 5.63603C16.5592 6.02656 16.5592 6.65972 16.9497 7.05025C19.6834 9.78392 19.6834 14.2161 16.9497 16.9497C14.2161 19.6834 9.78392 19.6834 7.05025 16.9497C4.31658 14.2161 4.31658 9.78392 7.05025 7.05025Z" fill="#0D0D12"/>
</svg>
