<svg width="24" height="24" viewBox="0 0 24 24" fill="none" xmlns="http://www.w3.org/2000/svg">
<path d="M7 19C5.34315 19 4 17.6569 4 16V12C4 10.3431 5.34315 9 7 9H7.24232C7.42134 9 7.50526 9.2521 7.37868 9.37868C6.20711 10.5503 6.20711 12.4497 7.37868 13.6213L9.87868 16.1213C11.0503 17.2929 12.9497 17.2929 14.1213 16.1213L16.6213 13.6213C17.7929 12.4497 17.7929 10.5503 16.6213 9.37868C16.4947 9.2521 16.5787 9 16.7577 9H17C18.6569 9 20 10.3431 20 12V16C20 17.6569 18.6569 19 17 19H7Z" fill="#0D0D12"/>
<path d="M15.2071 12.2071C15.5976 11.8166 15.5976 11.1834 15.2071 10.7929C14.8166 10.4024 14.1834 10.4024 13.7929 10.7929L13 11.5858V6C13 5.44772 12.5523 5 12 5C11.4477 5 11 5.44772 11 6V11.5858L10.2071 10.7929C9.81658 10.4024 9.18342 10.4024 8.79289 10.7929C8.40237 11.1834 8.40237 11.8166 8.79289 12.2071L11.2929 14.7071C11.6834 15.0976 12.3166 15.0976 12.7071 14.7071L15.2071 12.2071Z" fill="#0D0D12"/>
</svg>
