<svg width="24" height="24" viewBox="0 0 24 24" fill="none" xmlns="http://www.w3.org/2000/svg">
<path d="M13 6C13 5.44772 12.5523 5 12 5C11.4477 5 11 5.44772 11 6V11.5858L10.2071 10.7929C9.81658 10.4024 9.18342 10.4024 8.79289 10.7929C8.40237 11.1834 8.40237 11.8166 8.79289 12.2071L11.2929 14.7071C11.6834 15.0976 12.3166 15.0976 12.7071 14.7071L15.2071 12.2071C15.5976 11.8166 15.5976 11.1834 15.2071 10.7929C14.8166 10.4024 14.1834 10.4024 13.7929 10.7929L13 11.5858V6Z" fill="#0D0D12"/>
<path d="M5 12C5 11.4477 4.55228 11 4 11C3.44772 11 3 11.4477 3 12V15C3 17.2091 4.79086 19 7 19H17C19.2091 19 21 17.2091 21 15V12C21 11.4477 20.5523 11 20 11C19.4477 11 19 11.4477 19 12V15C19 16.1046 18.1046 17 17 17H7C5.89543 17 5 16.1046 5 15V12Z" fill="#0D0D12"/>
</svg>
