<svg width="24" height="24" viewBox="0 0 24 24" fill="none" xmlns="http://www.w3.org/2000/svg">
<path d="M13 3C13 2.44772 12.5523 2 12 2C11.4477 2 11 2.44772 11 3V5C11 5.55228 11.4477 6 12 6C12.5523 6 13 5.55228 13 5V3Z" fill="#0D0D12"/>
<path d="M19.7782 6.63604C20.1687 6.24551 20.1687 5.61235 19.7782 5.22183C19.3876 4.8313 18.7545 4.8313 18.364 5.22183L17.2929 6.29289C16.9024 6.68342 16.9024 7.31658 17.2929 7.70711C17.6834 8.09763 18.3166 8.09763 18.7071 7.70711L19.7782 6.63604Z" fill="#0D0D12"/>
<path d="M5.70711 5.29289C5.31658 4.90237 4.68342 4.90237 4.29289 5.29289C3.90237 5.68342 3.90237 6.31658 4.29289 6.70711L5.29289 7.70711C5.68342 8.09763 6.31658 8.09763 6.70711 7.70711C7.09763 7.31658 7.09763 6.68342 6.70711 6.29289L5.70711 5.29289Z" fill="#0D0D12"/>
<path d="M7 14C7 11.2386 9.23858 9 12 9C14.7614 9 17 11.2386 17 14V15.5C17 15.7761 17.2239 16 17.5 16H18.5C18.7761 16 19 15.7761 19 15.5V14C19 10.134 15.866 7 12 7C8.13401 7 5 10.134 5 14V15.5C5 15.7761 5.22386 16 5.5 16H6.5C6.77614 16 7 15.7761 7 15.5V14Z" fill="#0D0D12"/>
<path d="M10 14C10 12.8954 10.8954 12 12 12C12.5523 12 13 11.5523 13 11C13 10.4477 12.5523 10 12 10C9.79086 10 8 11.7909 8 14C8 14.5523 8.44772 15 9 15C9.55228 15 10 14.5523 10 14Z" fill="#0D0D12"/>
<path d="M3 20C3 18.8954 4.00736 18 5.25 18H18.75C19.9926 18 21 18.8954 21 20C21 21.1046 19.9926 22 18.75 22H5.25C4.00736 22 3 21.1046 3 20Z" fill="#0D0D12"/>
</svg>
