<svg width="24" height="24" viewBox="0 0 24 24" fill="none" xmlns="http://www.w3.org/2000/svg">
<path d="M12.0001 14C13.1047 14 14.0001 13.1046 14.0001 12C14.0001 10.8954 13.1047 10 12.0001 10C11.8872 10 11.7764 10.0094 11.6686 10.0274C11.5777 10.0425 11.5641 10.169 11.6352 10.2275C11.8581 10.4109 12.0001 10.6889 12.0001 11C12.0001 11.5523 11.5524 12 11.0001 12C10.689 12 10.4111 11.8579 10.2277 11.6351C10.1691 11.564 10.0427 11.5775 10.0275 11.6684C10.0095 11.7763 10.0001 11.887 10.0001 12C10.0001 13.1046 10.8956 14 12.0001 14Z" fill="#0D0D12"/>
<path fill-rule="evenodd" clip-rule="evenodd" d="M12 22C6.47715 22 2 17.5228 2 12C2 6.47715 6.47715 2 12 2C17.5228 2 22 6.47715 22 12C22 17.5228 17.5228 22 12 22ZM17.3186 11.0115C14.4049 7.3295 9.59538 7.3295 6.68165 11.0115C6.2233 11.5907 6.2233 12.4093 6.68165 12.9885C9.59538 16.6705 14.4049 16.6705 17.3186 12.9885C17.777 12.4093 17.777 11.5907 17.3186 11.0115Z" fill="#0D0D12"/>
</svg>
