<svg width="24" height="24" viewBox="0 0 24 24" fill="none" xmlns="http://www.w3.org/2000/svg">
<path d="M13 2.52131C13 2.33229 12.8949 2.15423 12.715 2.09628C12.5189 2.03312 12.3122 2 12.1019 2H10C8.34315 2 7 3.34315 7 5V15C7 16.6569 8.34315 18 10 18H18C19.6569 18 21 16.6569 21 15V11.7604C21 11.6109 20.9833 11.4629 20.9507 11.3191C20.906 11.1214 20.7175 11 20.5148 11H17C14.7909 11 13 9.20915 13 7.00001V2.52131Z" fill="#0D0D12"/>
<path d="M18.8524 8.58392C18.9957 8.74515 18.8812 9.00001 18.6655 9.00001H17C15.8954 9.00001 15 8.10458 15 7.00001V4.90755C15 4.67767 15.2841 4.56964 15.4369 4.74146L18.8524 8.58392Z" fill="#0D0D12"/>
<path d="M5 7C5 6.44772 4.55228 6 4 6C3.44772 6 3 6.44772 3 7V15C3 18.866 6.13401 22 10 22H15C15.5523 22 16 21.5523 16 21C16 20.4477 15.5523 20 15 20H10C7.23858 20 5 17.7614 5 15V7Z" fill="#0D0D12"/>
</svg>
