<svg width="24" height="24" viewBox="0 0 24 24" fill="none" xmlns="http://www.w3.org/2000/svg">
<path d="M17.6655 9.00001C17.8812 9.00001 17.9957 8.74515 17.8524 8.58392L14.4369 4.74146C14.2841 4.56964 14 4.67767 14 4.90755V7.00001C14 8.10458 14.8954 9.00001 16 9.00001H17.6655Z" fill="#0D0D12"/>
<path d="M11.715 2.09628C11.8949 2.15423 12 2.33229 12 2.52131V7.00001C12 9.20915 13.7909 11 16 11H19.5148C19.7175 11 19.906 11.1214 19.9507 11.3191C19.9833 11.4629 20 11.6109 20 11.7604V19C20 20.6569 18.6569 22 17 22H7C5.34315 22 4 20.6569 4 19V17.5V7.5V5C4 3.34315 5.34315 2 7 2H11.1019C11.3122 2 11.5189 2.03312 11.715 2.09628Z" fill="#0D0D12"/>
</svg>
