<svg width="24" height="24" viewBox="0 0 24 24" fill="none" xmlns="http://www.w3.org/2000/svg">
<path fill-rule="evenodd" clip-rule="evenodd" d="M2 17V7H14.6056H19C20.6569 7 22 8.34315 22 10V17C22 18.6569 20.6569 20 19 20H5C3.34315 20 2 18.6569 2 17ZM15.7071 10.7929C16.0976 11.1834 16.0976 11.8166 15.7071 12.2071L11.7071 16.2071C11.3166 16.5976 10.6834 16.5976 10.2929 16.2071L8.29289 14.2071C7.90237 13.8166 7.90237 13.1834 8.29289 12.7929C8.68342 12.4024 9.31658 12.4024 9.70711 12.7929L11 14.0858L14.2929 10.7929C14.6834 10.4024 15.3166 10.4024 15.7071 10.7929Z" fill="black"/>
<path opacity="0.5" d="M14.6056 7C13.6025 7 12.6658 6.4987 12.1094 5.6641L11.8906 5.3359C11.3342 4.5013 10.3975 4 9.39445 4H5C3.34315 4 2 5.34315 2 7H14.6056Z" fill="black"/>
</svg>
