<svg width="24" height="24" viewBox="0 0 24 24" fill="none" xmlns="http://www.w3.org/2000/svg">
<path d="M10.8308 4H7.54005C6.49103 4 5.60617 4.75107 5.47606 5.75193L5.25718 7.43554C5.21828 7.73476 5.45127 8 5.75301 8H16.4784C18.3644 8 20.0781 9.28683 20.4762 11.2005L21.0414 13.918C21.064 14.0267 21.2205 14.0231 21.2381 13.9134L21.9756 9.30411C22.1694 8.0926 21.1945 7 19.9197 7H15.1372C14.4418 7 13.7923 6.6658 13.4065 6.1094L12.5615 4.8906C12.1757 4.3342 11.5262 4 10.8308 4Z" fill="#0D0D12"/>
<path d="M19.7664 17.6078L18.5184 11.6078C18.3239 10.6729 17.4702 10 16.4787 10H4.08076C2.76815 10 1.78368 11.1546 2.0411 12.3922L3.28913 18.3922C3.48358 19.3271 4.33727 20 5.32879 20H17.7267C19.0393 20 20.0238 18.8454 19.7664 17.6078Z" fill="#0D0D12"/>
</svg>
