<svg width="24" height="24" viewBox="0 0 24 24" fill="none" xmlns="http://www.w3.org/2000/svg">
<path d="M6.78883 3.18702L9.45314 2.08342C10.0104 1.85259 10.6493 2.11723 10.8801 2.6745C11.0637 3.11762 11.5233 3.38148 12.0029 3.38184C12.4828 3.38219 12.9361 3.11793 13.1197 2.67459C13.3506 2.11727 13.9895 1.85261 14.5469 2.08346L17.211 3.187C17.7683 3.41784 18.033 4.05676 17.8021 4.61407C17.6185 5.0574 17.7523 5.56484 18.0918 5.90389C18.4312 6.24278 18.9429 6.38129 19.386 6.19774C19.9433 5.96691 20.5822 6.23155 20.813 6.78882L21.9166 9.45314C22.1474 10.0104 21.8828 10.6493 21.3255 10.8801C20.8824 11.0637 20.6185 11.5234 20.6182 12.003C20.6178 12.4828 20.8821 12.9362 21.3254 13.1198C21.8827 13.3507 22.1473 13.9896 21.9165 14.5469L20.813 17.2111C20.5821 17.7684 19.9432 18.033 19.3859 17.8022C18.9426 17.6186 18.4351 17.7523 18.0961 18.0918C17.7572 18.4312 17.6187 18.9429 17.8023 19.386C18.0331 19.9433 17.7685 20.5821 17.2112 20.813L14.5469 21.9166C13.9896 22.1474 13.3507 21.8828 13.1199 21.3255C12.9363 20.8824 12.4766 20.6185 11.997 20.6182C11.5171 20.6178 11.0637 20.8821 10.8801 21.3254C10.6492 21.8827 10.0103 22.1474 9.45297 21.9165L6.78887 20.813C6.23152 20.5822 5.96686 19.9432 6.19772 19.3859C6.38136 18.9425 6.24769 18.4351 5.90812 18.096C5.56872 17.7571 5.05713 17.6187 4.61402 17.8022C4.05674 18.0331 3.41786 17.7684 3.18703 17.2112L2.08343 14.5469C1.8526 13.9896 2.11723 13.3507 2.67451 13.1199C3.11762 12.9363 3.38149 12.4766 3.38185 11.997C3.3822 11.5171 3.11794 11.0638 2.67458 10.8801C2.11724 10.6493 1.85257 10.0103 2.08343 9.45299L3.18693 6.78891C3.41779 6.23157 4.05675 5.9669 4.61409 6.19776C5.05745 6.38141 5.56487 6.24771 5.90395 5.90813C6.24284 5.56874 6.38129 5.05713 6.19775 4.61401C5.96692 4.05674 6.23155 3.41785 6.78883 3.18702Z" stroke="black" stroke-width="2" stroke-linejoin="round"/>
</svg>
