<svg width="24" height="24" viewBox="0 0 24 24" fill="none" xmlns="http://www.w3.org/2000/svg">
<path fill-rule="evenodd" clip-rule="evenodd" d="M12 22C6.47715 22 2 17.5228 2 12C2 6.47715 6.47715 2 12 2C17.5228 2 22 6.47715 22 12C22 17.5228 17.5228 22 12 22ZM12.1994 9.26067C12.0882 9.36919 11.9057 9.36921 11.7944 9.26074C10.8839 8.37278 9.51604 8.18975 8.46961 9.10048C7.34234 10.0816 7.18364 11.7219 8.06889 12.8822C8.69341 13.7008 10.3917 15.2898 11.3379 16.1547C11.7125 16.4971 12.2814 16.4971 12.6559 16.1547C13.6021 15.2898 15.3004 13.7008 15.9249 12.8822C16.8102 11.7219 16.6709 10.0712 15.5242 9.10048C14.4599 8.1994 13.1076 8.37413 12.1994 9.26067Z" fill="#0D0D12"/>
</svg>
