<svg width="24" height="24" viewBox="0 0 24 24" fill="none" xmlns="http://www.w3.org/2000/svg">
<path fill-rule="evenodd" clip-rule="evenodd" d="M18 3H6C4.34315 3 3 4.34315 3 6V18C3 19.6569 4.34315 21 6 21H18C19.6569 21 21 19.6569 21 18V6C21 4.34315 19.6569 3 18 3ZM11.571 9.06413C10.6703 8.35072 9.43357 8.26152 8.46961 9.10048C7.34234 10.0816 7.18364 11.7219 8.06889 12.8822C8.69341 13.7008 10.3917 15.2898 11.3379 16.1547C11.7125 16.4971 12.2814 16.4971 12.6559 16.1547C13.6021 15.2898 15.3004 13.7008 15.9249 12.8822C16.8102 11.7219 16.6709 10.0712 15.5242 9.10048C14.544 8.27063 13.3195 8.35323 12.4227 9.06397C12.1792 9.25695 11.8146 9.25705 11.571 9.06413Z" fill="#0D0D12"/>
</svg>
