<svg width="24" height="24" viewBox="0 0 24 24" fill="none" xmlns="http://www.w3.org/2000/svg">
<path fill-rule="evenodd" clip-rule="evenodd" d="M20.716 10.1489L13.8887 3.73886C12.8394 2.75371 11.1603 2.75371 10.111 3.73886L3.28393 10.1489C2.92158 10.4892 2.90367 11.0587 3.24392 11.4211C3.42096 11.6096 3.66006 11.7049 3.89976 11.705V17.565C3.89976 19.5147 5.56586 21 7.49981 21H16.4999C18.4339 21 20.1 19.5147 20.1 17.565V11.705C20.3398 11.7049 20.579 11.6096 20.7561 11.421C21.0964 11.0587 21.0784 10.4891 20.716 10.1489ZM9.70711 15.2929C9.31658 14.9024 8.68342 14.9024 8.29289 15.2929C7.90237 15.6834 7.90237 16.3166 8.29289 16.7071C9.27287 17.6871 10.6765 18.125 12 18.125C13.3235 18.125 14.7271 17.6871 15.7071 16.7071C16.0976 16.3166 16.0976 15.6834 15.7071 15.2929C15.3166 14.9024 14.6834 14.9024 14.2929 15.2929C13.7729 15.8129 12.9265 16.125 12 16.125C11.0735 16.125 10.2271 15.8129 9.70711 15.2929Z" fill="#0D0D12"/>
</svg>
