<svg width="24" height="24" viewBox="0 0 24 24" fill="none" xmlns="http://www.w3.org/2000/svg">
<path d="M20 10.9V18.1833C20 19.7389 18.6569 21 17 21H16.5C16.2239 21 16 20.7761 16 20.5V15C16 13.8954 15.1046 13 14 13H10C8.89543 13 8 13.8954 8 15V20.5C8 20.7761 7.77614 21 7.5 21H7C5.34315 21 4 19.7389 4 18.1833V10.9C4 10.153 4.31607 9.43656 4.87868 8.90834L10.5858 3.54999C11.3668 2.81667 12.6332 2.81667 13.4142 3.54999L19.1213 8.90834C19.6839 9.43656 20 10.153 20 10.9Z" fill="#0D0D12"/>
<path d="M13.5 21C13.7761 21 14 20.7761 14 20.5V15.5C14 15.2239 13.7761 15 13.5 15H10.5C10.2239 15 10 15.2239 10 15.5V20.5C10 20.7761 10.2239 21 10.5 21H13.5Z" fill="#0D0D12"/>
</svg>
