<svg width="24" height="24" viewBox="0 0 24 24" fill="none" xmlns="http://www.w3.org/2000/svg">
<path fill-rule="evenodd" clip-rule="evenodd" d="M20.716 10.1489L13.8887 3.73886C12.8394 2.75371 11.1603 2.75371 10.111 3.73886L3.28393 10.1489C2.92158 10.4892 2.90367 11.0587 3.24392 11.4211C3.42096 11.6096 3.66006 11.7049 3.89976 11.705V17.565C3.89976 19.5147 5.56586 21 7.49981 21H16.4999C18.4339 21 20.1 19.5147 20.1 17.565V11.705C20.3398 11.7049 20.579 11.6096 20.7561 11.421C21.0964 11.0587 21.0784 10.4891 20.716 10.1489ZM11 14C10.4477 14 10 14.4477 10 15V17C10 17.5523 10.4477 18 11 18H13C13.5523 18 14 17.5523 14 17V15C14 14.4477 13.5523 14 13 14H11Z" fill="#0D0D12"/>
</svg>
