<svg width="24" height="24" viewBox="0 0 24 24" fill="none" xmlns="http://www.w3.org/2000/svg">
<path fill-rule="evenodd" clip-rule="evenodd" d="M20 10.9V18.1833C20 19.7389 18.6569 21 17 21H7C5.34315 21 4 19.7389 4 18.1833V10.9C4 10.153 4.31607 9.43656 4.87868 8.90834L10.5858 3.54999C11.3668 2.81667 12.6332 2.81667 13.4142 3.54999L19.1213 8.90834C19.6839 9.43656 20 10.153 20 10.9ZM9.70711 15.2929C9.31658 14.9024 8.68342 14.9024 8.29289 15.2929C7.90237 15.6834 7.90237 16.3166 8.29289 16.7071C9.27287 17.6871 10.6765 18.125 12 18.125C13.3235 18.125 14.7271 17.6871 15.7071 16.7071C16.0976 16.3166 16.0976 15.6834 15.7071 15.2929C15.3166 14.9024 14.6834 14.9024 14.2929 15.2929C13.7729 15.8129 12.9265 16.125 12 16.125C11.0735 16.125 10.2271 15.8129 9.70711 15.2929Z" fill="#0D0D12"/>
</svg>
