<svg width="24" height="24" viewBox="0 0 24 24" fill="none" xmlns="http://www.w3.org/2000/svg">
<path d="M13.8887 3.73886L20.716 10.1489C21.0784 10.4891 21.0964 11.0587 20.7561 11.421C20.579 11.6096 20.3398 11.7049 20.1 11.705V17.565C20.1 19.5147 18.4339 21 16.4999 21H14.6999C14.2028 21 13.7999 20.5971 13.7999 20.1V15.6C13.7999 15.1029 13.3969 14.7 12.8999 14.7H11.0998C10.6028 14.7 10.1998 15.1029 10.1998 15.6V20.1C10.1998 20.5971 9.79688 21 9.29982 21H7.49981C5.56586 21 3.89976 19.5147 3.89976 17.565V11.705C3.66006 11.7049 3.42096 11.6096 3.24392 11.4211C2.90367 11.0587 2.92158 10.4892 3.28393 10.1489L10.111 3.73886C11.1603 2.75371 12.8394 2.75371 13.8887 3.73886Z" fill="#0D0D12"/>
</svg>
