<svg width="24" height="24" viewBox="0 0 24 24" fill="none" xmlns="http://www.w3.org/2000/svg">
<path fill-rule="evenodd" clip-rule="evenodd" d="M13.8887 3.73886L20.716 10.1489C21.0784 10.4891 21.0964 11.0587 20.7561 11.421C20.579 11.6096 20.3398 11.7049 20.1 11.705V17.565C20.1 19.5147 18.4339 21 16.4999 21H7.49981C5.56586 21 3.89976 19.5147 3.89976 17.565V11.705C3.66006 11.7049 3.42096 11.6096 3.24392 11.4211C2.90367 11.0587 2.92158 10.4892 3.28393 10.1489L10.111 3.73886C11.1603 2.75371 12.8394 2.75371 13.8887 3.73886ZM9 16C8.44772 16 8 16.4477 8 17C8 17.5523 8.44772 18 9 18H15C15.5523 18 16 17.5523 16 17C16 16.4477 15.5523 16 15 16H9Z" fill="#0D0D12"/>
</svg>
