<svg width="24" height="24" viewBox="0 0 24 24" fill="none" xmlns="http://www.w3.org/2000/svg">
<path d="M20.716 10.1489L13.8887 3.73886C12.8394 2.75371 11.1603 2.75371 10.111 3.73886L3.28393 10.1489C2.92158 10.4892 2.90367 11.0587 3.24392 11.4211C3.29898 11.4797 3.36004 11.5293 3.42526 11.5699C3.65971 11.7156 3.89976 11.9287 3.89976 12.2048V17.565C3.89976 19.5147 5.56586 21 7.49981 21C7.77595 21 8 20.7761 8 20.5V16C8 14.3431 9.34315 13 11 13H13C14.6569 13 16 14.3431 16 16V20.5001C16 20.7762 16.2238 21 16.4999 21C18.4339 21 20.1 19.5147 20.1 17.565V12.2049C20.1 11.9288 20.3401 11.7156 20.5746 11.5699C20.6399 11.5294 20.701 11.4797 20.7561 11.421C21.0964 11.0587 21.0784 10.4891 20.716 10.1489Z" fill="#0D0D12"/>
<path d="M13.5 21C13.7761 21 14 20.7761 14 20.5V16C14 15.4477 13.5523 15 13 15H11C10.4477 15 10 15.4477 10 16V20.5C10 20.7761 10.2239 21 10.5 21H13.5Z" fill="#0D0D12"/>
</svg>
