<svg width="24" height="24" viewBox="0 0 24 24" fill="none" xmlns="http://www.w3.org/2000/svg">
<path fill-rule="evenodd" clip-rule="evenodd" d="M18 3H6C4.34315 3 3 4.34315 3 6V18C3 18.8284 3.33579 19.5784 3.87868 20.1213C4.04662 20.2893 4.23437 20.4374 4.43813 20.5619C4.89308 20.8398 5.42784 21 6 21H18C19.6569 21 21 19.6569 21 18V6C21 4.34315 19.6569 3 18 3ZM16.4548 16H7.54533C7.11051 16 6.85116 15.4928 7.09235 15.1141L8.17255 13.4182C8.47715 12.9399 9.0743 12.774 9.56544 13.031L10.1814 13.3534C10.6006 13.5727 11.1069 13.4867 11.4383 13.1399L13.1637 11.3339C13.6646 10.8096 14.5029 10.9176 14.8673 11.5534L16.9216 15.137C17.1393 15.5168 16.8779 16 16.4548 16ZM10 8.5C10 9.32843 9.32843 10 8.5 10C7.67157 10 7 9.32843 7 8.5C7 7.67157 7.67157 7 8.5 7C9.32843 7 10 7.67157 10 8.5Z" fill="#0D0D12"/>
</svg>
