<svg width="24" height="24" viewBox="0 0 24 24" fill="none" xmlns="http://www.w3.org/2000/svg">
<path fill-rule="evenodd" clip-rule="evenodd" d="M17 22H7C5.34315 22 4 20.6569 4 19V5C4 3.34315 5.34315 2 7 2H12.7574C13.1902 2 13.6135 2.09355 14 2.26946C14.324 2.41689 14.6222 2.62216 14.8787 2.87868L19.1213 7.12132C19.3778 7.37784 19.5831 7.67604 19.7305 8C19.9064 8.38655 20 8.80977 20 9.24264V19C20 20.6569 18.6569 22 17 22ZM13 4.21187C13 4.11941 13.0874 4.05151 13.1716 4.0898C13.2796 4.13896 13.3789 4.20733 13.4645 4.29287L17.7071 8.53551C17.7926 8.62105 17.861 8.72035 17.9102 8.82837C17.9485 8.91256 17.8805 9.00004 17.788 9.00004H14C13.4477 9.00004 13 8.55233 13 8.00004V4.21187ZM7 5.25C6.58579 5.25 6.25 5.58579 6.25 6C6.25 6.41421 6.58579 6.75 7 6.75H10C10.4142 6.75 10.75 6.41421 10.75 6C10.75 5.58579 10.4142 5.25 10 5.25H7ZM7 9.25C6.58579 9.25 6.25 9.58579 6.25 10C6.25 10.4142 6.58579 10.75 7 10.75H11C11.4142 10.75 11.75 10.4142 11.75 10C11.75 9.58579 11.4142 9.25 11 9.25H7ZM16 11.5C16 11.0858 15.6642 10.75 15.25 10.75C14.8358 10.75 14.5 11.0858 14.5 11.5V11.8699C13.5086 12.133 12.75 12.9056 12.75 13.8864C12.75 14.5905 13.0054 15.1864 13.5529 15.5674C14.0467 15.9109 14.67 16 15.25 16C15.72 16 15.9717 16.0813 16.0904 16.164C16.1554 16.2092 16.25 16.295 16.25 16.6136C16.25 16.7602 16.0182 17.2273 15.25 17.2273C14.768 17.2273 14.4522 17.0214 14.3182 16.8509C14.0622 16.5252 13.5907 16.4687 13.2651 16.7247C12.9394 16.9807 12.8829 17.4522 13.1389 17.7778C13.4513 18.1754 13.9271 18.4865 14.5 18.6338V19C14.5 19.4142 14.8358 19.75 15.25 19.75C15.6642 19.75 16 19.4142 16 19V18.6301C16.9914 18.367 17.75 17.5944 17.75 16.6136C17.75 15.9095 17.4946 15.3136 16.9471 14.9326C16.4533 14.5891 15.83 14.5 15.25 14.5C14.78 14.5 14.5283 14.4187 14.4096 14.336C14.3446 14.2908 14.25 14.205 14.25 13.8864C14.25 13.7398 14.4818 13.2727 15.25 13.2727C15.732 13.2727 16.0478 13.4786 16.1818 13.6491C16.4378 13.9748 16.9093 14.0313 17.2349 13.7753C17.5606 13.5193 17.6171 13.0478 17.3611 12.7222C17.0487 12.3246 16.5729 12.0136 16 11.8662V11.5Z" fill="#0D0D12"/>
</svg>
