<svg width="24" height="24" viewBox="0 0 24 24" fill="none" xmlns="http://www.w3.org/2000/svg">
<path fill-rule="evenodd" clip-rule="evenodd" d="M21 9C21 11.7614 18.7614 14 16 14C15.3992 14 14.8231 13.894 14.2895 13.6998C13.8726 13.548 13.3927 13.6073 13.0789 13.9211L11.7929 15.2071C11.6054 15.3946 11.351 15.5 11.0858 15.5H10C9.72386 15.5 9.5 15.7239 9.5 16V17C9.5 17.2761 9.27614 17.5 9 17.5H7.5C7.22386 17.5 7 17.7239 7 18V19C7 19.5523 6.55228 20 6 20H4C3.44772 20 3 19.5523 3 19V16.4538C3 16.1654 3.12448 15.8911 3.34149 15.7012L10.6585 9.29881C10.8755 9.10892 10.9945 8.83377 11.0203 8.54657C11.2494 5.99763 13.3914 4 16 4C18.7614 4 21 6.23858 21 9ZM17 9.5C17.8284 9.5 18.5 8.82843 18.5 8C18.5 7.17157 17.8284 6.5 17 6.5C16.1716 6.5 15.5 7.17157 15.5 8C15.5 8.82843 16.1716 9.5 17 9.5Z" fill="#0D0D12"/>
</svg>
