<svg width="24" height="24" viewBox="0 0 24 24" fill="none" xmlns="http://www.w3.org/2000/svg">
<path d="M7 7C4.23858 7 2 9.23858 2 12C2 14.7614 4.23858 17 7 17H9C9.55228 17 10 16.5523 10 16C10 15.4477 9.55228 15 9 15H7C5.34315 15 4 13.6569 4 12C4 10.3431 5.34315 9 7 9H9C9.55228 9 10 8.55228 10 8C10 7.44772 9.55228 7 9 7H7Z" fill="#0D0D12"/>
<path d="M15 7C14.4477 7 14 7.44772 14 8C14 8.55228 14.4477 9 15 9H17C18.6569 9 20 10.3431 20 12C20 13.6569 18.6569 15 17 15H15C14.4477 15 14 15.4477 14 16C14 16.5523 14.4477 17 15 17H17C19.7614 17 22 14.7614 22 12C22 9.23858 19.7614 7 17 7H15Z" fill="#0D0D12"/>
<path d="M9 11C8.44772 11 8 11.4477 8 12C8 12.5523 8.44772 13 9 13H15C15.5523 13 16 12.5523 16 12C16 11.4477 15.5523 11 15 11H9Z" fill="#0D0D12"/>
</svg>
