<svg width="24" height="24" viewBox="0 0 24 24" fill="none" xmlns="http://www.w3.org/2000/svg">
<path d="M6.83205 3.44528C6.5257 2.98576 5.90483 2.86158 5.4453 3.16793C4.98577 3.47429 4.8616 4.09516 5.16795 4.55468L7.16795 7.55468C7.4743 8.01421 8.09517 8.13839 8.5547 7.83203C9.01423 7.52568 9.1384 6.90481 8.83205 6.44528L6.83205 3.44528Z" fill="#0D0D12"/>
<path d="M18.8321 4.55468C19.1384 4.09516 19.0142 3.47429 18.5547 3.16793C18.0952 2.86158 17.4743 2.98576 17.1679 3.44528L15.1679 6.44528C14.8616 6.90481 14.9858 7.52568 15.4453 7.83203C15.9048 8.13839 16.5257 8.01421 16.8321 7.55468L18.8321 4.55468Z" fill="#0D0D12"/>
<path d="M13 5.49998C13 4.9477 12.5523 4.49998 12 4.49998C11.4477 4.49998 11 4.9477 11 5.49998V6.99998C11 7.55227 11.4477 7.99998 12 7.99998C12.5523 7.99998 13 7.55227 13 6.99998V5.49998Z" fill="#0D0D12"/>
<path d="M7 8.99998C4.23858 8.99998 2 11.2386 2 14C2 16.7614 4.23858 19 7 19H9C9.55228 19 10 18.5523 10 18C10 17.4477 9.55228 17 9 17H7C5.34315 17 4 15.6568 4 14C4 12.3431 5.34315 11 7 11H9C9.55228 11 10 10.5523 10 9.99998C10 9.4477 9.55228 8.99998 9 8.99998H7Z" fill="#0D0D12"/>
<path d="M17.6271 10.1276C17.1453 9.85763 16.5359 10.0293 16.2659 10.5111C15.9959 10.9929 16.1676 11.6024 16.6494 11.8723L18.4413 12.8765C19.9428 13.7179 20.4332 15.5545 19.5854 16.9798C18.7268 18.4233 16.7989 18.9396 15.2808 18.0888L13.4889 17.0847C13.0071 16.8147 12.3976 16.9864 12.1276 17.4682C11.8576 17.95 12.0293 18.5594 12.5111 18.8294L14.3031 19.8335C16.7435 21.2012 19.8775 20.4009 21.3043 18.0022C22.742 15.5852 21.8762 12.5087 19.419 11.1318L17.6271 10.1276Z" fill="#0D0D12"/>
<path d="M8 13C7.44772 13 7 13.4477 7 14C7 14.5523 7.44772 15 8 15H11C11.5523 15 12 14.5523 12 14C12 13.4477 11.5523 13 11 13H8Z" fill="#0D0D12"/>
<path d="M15.9472 13.8556C15.4532 13.6086 14.8526 13.8088 14.6056 14.3028C14.3586 14.7967 14.5588 15.3974 15.0528 15.6444L16.5528 16.3944C17.0468 16.6414 17.6474 16.4412 17.8944 15.9472C18.1414 15.4532 17.9412 14.8525 17.4472 14.6056L15.9472 13.8556Z" fill="#0D0D12"/>
</svg>
