<svg width="24" height="24" viewBox="0 0 24 24" fill="none" xmlns="http://www.w3.org/2000/svg">
<path d="M6.54545 7.5C4.03507 7.5 2 9.51472 2 12C2 14.4853 4.03507 16.5 6.54545 16.5H10.1818C12.6922 16.5 14.7273 14.4853 14.7273 12C14.7273 11.5029 14.3203 11.1 13.8182 11.1C13.3161 11.1 12.9091 11.5029 12.9091 12C12.9091 13.4912 11.688 14.7 10.1818 14.7H6.54545C5.03922 14.7 3.81818 13.4912 3.81818 12C3.81818 10.5088 5.03922 9.3 6.54545 9.3H7.45455C7.95662 9.3 8.36364 8.89706 8.36364 8.4C8.36364 7.90294 7.95662 7.5 7.45455 7.5H6.54545Z" fill="#0D0D12"/>
<path d="M13.8182 7.5C11.3078 7.5 9.27273 9.51472 9.27273 12C9.27273 12.4971 9.67974 12.9 10.1818 12.9C10.6839 12.9 11.0909 12.4971 11.0909 12C11.0909 10.5088 12.312 9.3 13.8182 9.3H17.4545C18.9608 9.3 20.1818 10.5088 20.1818 12C20.1818 13.4912 18.9608 14.7 17.4545 14.7H16.5455C16.0434 14.7 15.6364 15.1029 15.6364 15.6C15.6364 16.0971 16.0434 16.5 16.5455 16.5H17.4545C19.9649 16.5 22 14.4853 22 12C22 9.51472 19.9649 7.5 17.4545 7.5H13.8182Z" fill="#0D0D12"/>
</svg>
