<svg width="24" height="24" viewBox="0 0 24 24" fill="none" xmlns="http://www.w3.org/2000/svg">
<path d="M14.0797 5.84419C15.2053 4.7186 17.0302 4.7186 18.1558 5.84419C19.2814 6.96978 19.2814 8.79472 18.1558 9.92031L17.4695 10.6066C17.079 10.9971 17.079 11.6303 17.4695 12.0208C17.86 12.4113 18.4932 12.4113 18.8837 12.0208L19.57 11.3345C21.4767 9.42789 21.4767 6.33662 19.57 4.42998C17.6634 2.52334 14.5721 2.52334 12.6655 4.42998L9.92031 7.17514C8.01367 9.08178 8.01367 12.1731 9.92031 14.0797C10.3108 14.4702 10.944 14.4702 11.3345 14.0797C11.725 13.6892 11.725 13.056 11.3345 12.6655C10.2089 11.5399 10.2089 9.71495 11.3345 8.58936L14.0797 5.84419Z" fill="#0D0D12"/>
<path d="M12.6655 9.92031C12.275 10.3108 12.275 10.944 12.6655 11.3345C13.7911 12.4601 13.7911 14.2851 12.6655 15.4106L9.92031 18.1558C8.79472 19.2814 6.96978 19.2814 5.84419 18.1558C4.7186 17.0302 4.7186 15.2053 5.84419 14.0797L6.53048 13.3934C6.92101 13.0029 6.92101 12.3697 6.53048 11.9792C6.13996 11.5887 5.50679 11.5887 5.11627 11.9792L4.42998 12.6655C2.52334 14.5721 2.52334 17.6634 4.42998 19.57C6.33662 21.4767 9.42789 21.4767 11.3345 19.57L14.0797 16.8249C15.9863 14.9182 15.9863 11.8269 14.0797 9.92031C13.6892 9.52979 13.056 9.52979 12.6655 9.92031Z" fill="#0D0D12"/>
</svg>
