<svg width="24" height="24" viewBox="0 0 24 24" fill="none" xmlns="http://www.w3.org/2000/svg">
<path d="M13.4578 5.95089C14.7257 4.68304 16.7813 4.68304 18.0491 5.95089C19.317 7.21875 19.317 9.27435 18.0491 10.5422L16.5477 12.0436C16.1572 12.4341 16.1572 13.0673 16.5477 13.4578C16.9383 13.8483 17.5714 13.8483 17.9619 13.4578L19.4633 11.9564C21.5122 9.90751 21.5122 6.58558 19.4633 4.53668C17.4144 2.48777 14.0925 2.48777 12.0436 4.53668L10.5422 6.03806C10.1517 6.42858 10.1517 7.06175 10.5422 7.45227C10.9327 7.8428 11.5659 7.8428 11.9564 7.45227L13.4578 5.95089Z" fill="#0D0D12"/>
<path d="M14.9592 10.455C15.3497 10.0645 15.3497 9.43135 14.9592 9.04082C14.5687 8.6503 13.9355 8.6503 13.545 9.04082L9.04082 13.545C8.6503 13.9355 8.6503 14.5687 9.04082 14.9592C9.43135 15.3497 10.0645 15.3497 10.455 14.9592L14.9592 10.455Z" fill="#0D0D12"/>
<path d="M7.45227 11.9564C7.8428 11.5659 7.8428 10.9327 7.45227 10.5422C7.06175 10.1517 6.42858 10.1517 6.03806 10.5422L4.53668 12.0436C2.48777 14.0925 2.48777 17.4144 4.53668 19.4633C6.58558 21.5122 9.90751 21.5122 11.9564 19.4633L13.4578 17.9619C13.8483 17.5714 13.8483 16.9383 13.4578 16.5477C13.0673 16.1572 12.4341 16.1572 12.0436 16.5477L10.5422 18.0491C9.27435 19.317 7.21875 19.317 5.95089 18.0491C4.68304 16.7813 4.68304 14.7257 5.95089 13.4578L7.45227 11.9564Z" fill="#0D0D12"/>
</svg>
