<svg width="24" height="24" viewBox="0 0 24 24" fill="none" xmlns="http://www.w3.org/2000/svg">
<path d="M11.2 3C11.2 2.44772 10.7523 2 10.2 2C9.64772 2 9.2 2.44772 9.2 3V4.8C9.2 5.35228 9.64772 5.8 10.2 5.8C10.7523 5.8 11.2 5.35228 11.2 4.8V3Z" fill="#0D0D12"/>
<path d="M4.60711 3.19289C4.21658 2.80237 3.58342 2.80237 3.19289 3.19289C2.80237 3.58342 2.80237 4.21658 3.19289 4.60711L4.99289 6.40711C5.38342 6.79763 6.01658 6.79763 6.40711 6.40711C6.79763 6.01658 6.79763 5.38342 6.40711 4.99289L4.60711 3.19289Z" fill="#0D0D12"/>
<path d="M13.3827 6.62651L13.384 6.62523C14.4861 5.5245 16.2719 5.52492 17.3735 6.62651C18.4751 7.72815 18.4755 9.51402 17.3746 10.6161L17.3735 10.6173L16.6955 11.2903C16.3035 11.6794 16.3012 12.3126 16.6903 12.7045C17.0794 13.0965 17.7126 13.0988 18.1045 12.7097L18.7851 12.0341L18.7877 12.0315C20.6708 10.1484 20.6708 7.09537 18.7877 5.2123C16.9046 3.32923 13.8516 3.32923 11.9685 5.2123L11.9659 5.2149L11.2903 5.89549C10.9012 6.28744 10.9035 6.9206 11.2955 7.30969C11.6874 7.69878 12.3206 7.69646 12.7097 7.30451L13.3827 6.62651Z" fill="#0D0D12"/>
<path d="M3 8.3C2.44772 8.3 2 8.74771 2 9.3C2 9.85228 2.44772 10.3 3 10.3H4.8C5.35228 10.3 5.8 9.85228 5.8 9.3C5.8 8.74771 5.35228 8.3 4.8 8.3H3Z" fill="#0D0D12"/>
<path d="M7.30451 12.7097C7.69646 12.3206 7.69878 11.6874 7.30969 11.2955C6.9206 10.9035 6.28744 10.9012 5.89549 11.2903L5.2149 11.9659L5.2123 11.9685C3.32923 13.8516 3.32923 16.9046 5.2123 18.7877C7.09537 20.6708 10.1484 20.6708 12.0315 18.7877L12.0341 18.7851L12.7097 18.1045C13.0988 17.7126 13.0965 17.0794 12.7045 16.6903C12.3126 16.3012 11.6794 16.3035 11.2903 16.6955L10.6173 17.3735L10.6161 17.3747C9.51396 18.4755 7.72813 18.4751 6.62651 17.3735C5.52492 16.2719 5.5245 14.4861 6.62523 13.384L6.62651 13.3827L7.30451 12.7097Z" fill="#0D0D12"/>
<path d="M19.2 12.8C18.6477 12.8 18.2 13.2477 18.2 13.8C18.2 14.3523 18.6477 14.8 19.2 14.8H21C21.5523 14.8 22 14.3523 22 13.8C22 13.2477 21.5523 12.8 21 12.8H19.2Z" fill="#0D0D12"/>
<path d="M19.0071 17.5929C18.6166 17.2024 17.9834 17.2024 17.5929 17.5929C17.2024 17.9834 17.2024 18.6166 17.5929 19.0071L19.3929 20.8071C19.7834 21.1976 20.4166 21.1976 20.8071 20.8071C21.1976 20.4166 21.1976 19.7834 20.8071 19.3929L19.0071 17.5929Z" fill="#0D0D12"/>
<path d="M14.8 19.2C14.8 18.6477 14.3523 18.2 13.8 18.2C13.2477 18.2 12.8 18.6477 12.8 19.2V21C12.8 21.5523 13.2477 22 13.8 22C14.3523 22 14.8 21.5523 14.8 21V19.2Z" fill="#0D0D12"/>
</svg>
