<svg width="24" height="24" viewBox="0 0 24 24" fill="none" xmlns="http://www.w3.org/2000/svg">
<path d="M12 9C11.4477 9 11 9.44772 11 10V11.5C11 11.7761 11.2239 12 11.5 12H12.5C12.7761 12 13 11.7761 13 11.5V10C13 9.44772 12.5523 9 12 9Z" fill="#0D0D12"/>
<path d="M13 14.5C13 15.0523 12.5523 15.5 12 15.5C11.4477 15.5 11 15.0523 11 14.5C11 13.9477 11.4477 13.5 12 13.5C12.5523 13.5 13 13.9477 13 14.5Z" fill="#0D0D12"/>
<path fill-rule="evenodd" clip-rule="evenodd" d="M6 3H18C19.6569 3 21 4.34315 21 6V18C21 19.6569 19.6569 21 18 21H6C4.34315 21 3 19.6569 3 18V6C3 4.34315 4.34315 3 6 3ZM15.2475 12.0309C15.1137 11.9968 15 11.8881 15 11.75V10C15 8.34315 13.6569 7 12 7C10.3431 7 9 8.34315 9 10V11.75C9 11.8881 8.88633 11.9968 8.75253 12.0309C8.31994 12.141 8 12.5331 8 13V16C8 16.5523 8.44772 17 9 17H15C15.5523 17 16 16.5523 16 16V13C16 12.5331 15.6801 12.141 15.2475 12.0309Z" fill="#0D0D12"/>
</svg>
