<svg width="24" height="24" viewBox="0 0 24 24" fill="none" xmlns="http://www.w3.org/2000/svg">
<path fill-rule="evenodd" clip-rule="evenodd" d="M7 11.75C7 11.8881 6.88751 11.9984 6.7505 12.0154C5.76368 12.1382 5 12.9799 5 14V18C5 19.1046 5.89543 20 7 20H17C18.1046 20 19 19.1046 19 18V14C19 12.9799 18.2363 12.1382 17.2495 12.0154C17.1125 11.9984 17 11.8881 17 11.75V9C17 6.23858 14.7614 4 12 4C9.23858 4 7 6.23858 7 9V11.75ZM12 6C10.3431 6 9 7.34315 9 9V11.5C9 11.7761 9.22386 12 9.5 12H14.5C14.7761 12 15 11.7761 15 11.5V9C15 7.34315 13.6569 6 12 6ZM10 16C10 16.5523 9.55228 17 9 17C8.44772 17 8 16.5523 8 16C8 15.4477 8.44772 15 9 15C9.55228 15 10 15.4477 10 16ZM13 16C13 16.5523 12.5523 17 12 17C11.4477 17 11 16.5523 11 16C11 15.4477 11.4477 15 12 15C12.5523 15 13 15.4477 13 16ZM15 17C15.5523 17 16 16.5523 16 16C16 15.4477 15.5523 15 15 15C14.4477 15 14 15.4477 14 16C14 16.5523 14.4477 17 15 17Z" fill="#0D0D12"/>
</svg>
