<svg width="24" height="24" viewBox="0 0 24 24" fill="none" xmlns="http://www.w3.org/2000/svg">
<path d="M12 8.5C11.4477 8.5 11 8.94772 11 9.5V11.25C11 11.3881 11.1119 11.5 11.25 11.5H12.75C12.8881 11.5 13 11.3881 13 11.25V9.5C13 8.94772 12.5523 8.5 12 8.5Z" fill="#0D0D12"/>
<path d="M12 15C12.5523 15 13 14.5523 13 14C13 13.4477 12.5523 13 12 13C11.4477 13 11 13.4477 11 14C11 14.5523 11.4477 15 12 15Z" fill="#0D0D12"/>
<path fill-rule="evenodd" clip-rule="evenodd" d="M12 22C6.47715 22 2 17.5228 2 12C2 6.47715 6.47715 2 12 2C17.5228 2 22 6.47715 22 12C22 17.5228 17.5228 22 12 22ZM15 9.5V11.5C15.5523 11.5 16 11.9477 16 12.5V15.5C16 16.0523 15.5523 16.5 15 16.5H9C8.44772 16.5 8 16.0523 8 15.5V12.5C8 11.9477 8.44772 11.5 9 11.5V9.5C9 7.84315 10.3431 6.5 12 6.5C13.6569 6.5 15 7.84315 15 9.5Z" fill="#0D0D12"/>
</svg>
