<svg width="24" height="24" viewBox="0 0 24 24" fill="none" xmlns="http://www.w3.org/2000/svg">
<path d="M7.05025 7.05025C9.78392 4.31658 14.2161 4.31658 16.9497 7.05025C19.6834 9.78392 19.6834 14.2161 16.9497 16.9497C14.2161 19.6834 9.78392 19.6834 7.05025 16.9497C6.65972 16.5592 6.02656 16.5592 5.63603 16.9497C5.24551 17.3403 5.24551 17.9734 5.63603 18.364C9.15075 21.8787 14.8492 21.8787 18.364 18.364C21.8787 14.8492 21.8787 9.15076 18.364 5.63604C14.8492 2.12132 9.15075 2.12132 5.63603 5.63604C5.24551 6.02656 5.24551 6.65973 5.63603 7.05025C6.02656 7.44078 6.65972 7.44078 7.05025 7.05025Z" fill="#0D0D12"/>
<path d="M11.2071 7.79289C10.8166 7.40237 10.1834 7.40237 9.79289 7.79289C9.40237 8.18342 9.40237 8.81658 9.79289 9.20711L11.5858 11H4C3.44772 11 3 11.4477 3 12C3 12.5523 3.44772 13 4 13H11.5858L9.79289 14.7929C9.40237 15.1834 9.40237 15.8166 9.79289 16.2071C10.1834 16.5976 10.8166 16.5976 11.2071 16.2071L14.7071 12.7071C15.0976 12.3166 15.0976 11.6834 14.7071 11.2929L11.2071 7.79289Z" fill="#0D0D12"/>
</svg>
