<svg width="24" height="24" viewBox="0 0 24 24" fill="none" xmlns="http://www.w3.org/2000/svg">
<path d="M19 4C19 3.44772 18.5523 3 18 3C17.4477 3 17 3.44772 17 4V20C17 20.5523 17.4477 21 18 21C18.5523 21 19 20.5523 19 20V4Z" fill="#0D0D12"/>
<path d="M12.2071 8.79289C11.8166 8.40237 11.1834 8.40237 10.7929 8.79289C10.4024 9.18342 10.4024 9.81658 10.7929 10.2071L11.5858 11H6C5.44772 11 5 11.4477 5 12C5 12.5523 5.44772 13 6 13H11.5858L10.7929 13.7929C10.4024 14.1834 10.4024 14.8166 10.7929 15.2071C11.1834 15.5976 11.8166 15.5976 12.2071 15.2071L14.7071 12.7071C15.0976 12.3166 15.0976 11.6834 14.7071 11.2929L12.2071 8.79289Z" fill="#0D0D12"/>
</svg>
