<svg width="24" height="24" viewBox="0 0 24 24" fill="none" xmlns="http://www.w3.org/2000/svg">
<path d="M4 7V17C4 18.6569 5.34315 20 7 20H9C10.6569 20 12 18.6569 12 17V15.5C12 15.2239 11.7761 15 11.5 15H11C9.34315 15 8 13.6569 8 12C8 10.3431 9.34315 9 11 9H11.5C11.7761 9 12 8.77614 12 8.5V7C12 5.34315 10.6569 4 9 4H7C5.34315 4 4 5.34315 4 7Z" fill="#0D0D12"/>
<path d="M17.2071 8.79289C16.8166 8.40237 16.1834 8.40237 15.7929 8.79289C15.4024 9.18342 15.4024 9.81658 15.7929 10.2071L16.5858 11H11C10.4477 11 10 11.4477 10 12C10 12.5523 10.4477 13 11 13H16.5858L15.7929 13.7929C15.4024 14.1834 15.4024 14.8166 15.7929 15.2071C16.1834 15.5976 16.8166 15.5976 17.2071 15.2071L19.7071 12.7071C20.0976 12.3166 20.0976 11.6834 19.7071 11.2929L17.2071 8.79289Z" fill="#0D0D12"/>
</svg>
