<svg width="24" height="24" viewBox="0 0 24 24" fill="none" xmlns="http://www.w3.org/2000/svg">
<path d="M12 3C11.4477 3 11 3.44772 11 4C11 4.55228 11.4477 5 12 5H15C16.1046 5 17 5.89543 17 7V17C17 18.1046 16.1046 19 15 19H12C11.4477 19 11 19.4477 11 20C11 20.5523 11.4477 21 12 21H15C17.2091 21 19 19.2091 19 17V7C19 4.79086 17.2091 3 15 3H12Z" fill="#0D0D12"/>
<path d="M12.2071 8.79289C11.8166 8.40237 11.1834 8.40237 10.7929 8.79289C10.4024 9.18342 10.4024 9.81658 10.7929 10.2071L11.5858 11H6C5.44772 11 5 11.4477 5 12C5 12.5523 5.44772 13 6 13H11.5858L10.7929 13.7929C10.4024 14.1834 10.4024 14.8166 10.7929 15.2071C11.1834 15.5976 11.8166 15.5976 12.2071 15.2071L14.7071 12.7071C15.0976 12.3166 15.0976 11.6834 14.7071 11.2929L12.2071 8.79289Z" fill="#0D0D12"/>
</svg>
