<svg width="24" height="24" viewBox="0 0 24 24" fill="none" xmlns="http://www.w3.org/2000/svg">
<path d="M15.3745 3.65429C12.1287 2.34341 8.27002 3.00201 5.63604 5.63599C2.12132 9.15071 2.12132 14.8492 5.63604 18.3639C8.27002 20.9979 12.1287 21.6565 15.3745 20.3456C15.8866 20.1388 16.134 19.556 15.9272 19.0439C15.7204 18.5318 15.1376 18.2843 14.6255 18.4911C12.0974 19.5122 9.09694 18.9964 7.05025 16.9497C4.31658 14.216 4.31658 9.78388 7.05025 7.05021C9.09694 5.00352 12.0974 4.48774 14.6255 5.50876C15.1376 5.71558 15.7204 5.46811 15.9272 4.95601C16.134 4.44391 15.8866 3.86111 15.3745 3.65429Z" fill="#0D0D12"/>
<path d="M17.2071 7.79285C16.8166 7.40232 16.1834 7.40232 15.7929 7.79285C15.4024 8.18337 15.4024 8.81654 15.7929 9.20706L17.5858 11H9.99999C9.44771 11 8.99999 11.4477 8.99999 12C8.99999 12.5522 9.44771 13 9.99999 13H17.5858L15.7929 14.7928C15.4024 15.1834 15.4024 15.8165 15.7929 16.2071C16.1834 16.5976 16.8166 16.5976 17.2071 16.2071L20.7071 12.7071C21.0976 12.3165 21.0976 11.6834 20.7071 11.2928L17.2071 7.79285Z" fill="#0D0D12"/>
</svg>
