<svg width="24" height="24" viewBox="0 0 24 24" fill="none" xmlns="http://www.w3.org/2000/svg">
<path d="M19 17C19 18.6569 17.6569 20 16 20H12C10.3431 20 9 18.6569 9 17V16.7577C9 16.5787 9.2521 16.4947 9.37868 16.6213C10.5503 17.7929 12.4497 17.7929 13.6213 16.6213L16.1213 14.1213C17.2929 12.9497 17.2929 11.0503 16.1213 9.87868L13.6213 7.37868C12.4497 6.20711 10.5503 6.20711 9.37868 7.37868C9.2521 7.50526 9 7.42134 9 7.24233V7C9 5.34315 10.3431 4 12 4H16C17.6569 4 19 5.34315 19 7V17Z" fill="#0D0D12"/>
<path d="M12.2071 8.79289C11.8166 8.40237 11.1834 8.40237 10.7929 8.79289C10.4024 9.18342 10.4024 9.81658 10.7929 10.2071L11.5858 11H6C5.44772 11 5 11.4477 5 12C5 12.5523 5.44772 13 6 13H11.5858L10.7929 13.7929C10.4024 14.1834 10.4024 14.8166 10.7929 15.2071C11.1834 15.5976 11.8166 15.5976 12.2071 15.2071L14.7071 12.7071C15.0976 12.3166 15.0976 11.6834 14.7071 11.2929L12.2071 8.79289Z" fill="#0D0D12"/>
</svg>
