<svg width="24" height="24" viewBox="0 0 24 24" fill="none" xmlns="http://www.w3.org/2000/svg">
<path d="M7 7C7 5.89543 7.89543 5 9 5H12C12.5523 5 13 4.55228 13 4C13 3.44772 12.5523 3 12 3H9C6.79086 3 5 4.79086 5 7V17C5 19.2091 6.79086 21 9 21H12C12.5523 21 13 20.5523 13 20C13 19.4477 12.5523 19 12 19H9C7.89543 19 7 18.1046 7 17V7Z" fill="#0D0D12"/>
<path d="M16.2071 8.79289C15.8166 8.40237 15.1834 8.40237 14.7929 8.79289C14.4024 9.18342 14.4024 9.81658 14.7929 10.2071L15.5858 11H10C9.44772 11 9 11.4477 9 12C9 12.5523 9.44772 13 10 13H15.5858L14.7929 13.7929C14.4024 14.1834 14.4024 14.8166 14.7929 15.2071C15.1834 15.5976 15.8166 15.5976 16.2071 15.2071L18.7071 12.7071C19.0976 12.3166 19.0976 11.6834 18.7071 11.2929L16.2071 8.79289Z" fill="#0D0D12"/>
</svg>
