<svg width="24" height="24" viewBox="0 0 24 24" fill="none" xmlns="http://www.w3.org/2000/svg">
<path d="M19 7.27015V16.7298C19 18.7928 17.0948 20.34 15.0528 19.9354L10.6528 19.0637C9.11032 18.7581 8 17.4164 8 15.8581V15.2501C8 15.112 8.11193 15.0001 8.25 15.0001H8.28463C8.41383 15.0001 8.52061 15.0988 8.54214 15.2262C8.64936 15.8607 8.9607 16.4658 9.47158 16.9346C10.6923 18.0549 12.5901 17.9734 13.7103 16.7527L16.2103 14.0285C17.2632 12.8812 17.2632 11.119 16.2103 9.97166L13.7103 7.24746C12.5901 6.02674 10.6923 5.94529 9.47158 7.06556C8.9607 7.5344 8.64936 8.13941 8.54214 8.77399C8.52061 8.90138 8.41383 9.00008 8.28463 9.00008H8.25C8.11193 9.00008 8 8.88815 8 8.75008V8.14189C8 6.5836 9.11032 5.24194 10.6528 4.93634L15.0528 4.06459C17.0948 3.66002 19 5.20723 19 7.27015Z" fill="#0D0D12"/>
<path d="M12.2368 8.59974C11.8634 8.19283 11.2308 8.16568 10.8239 8.5391C10.417 8.91253 10.3898 9.54511 10.7632 9.95202L11.725 11.0001H6C5.44772 11.0001 5 11.4478 5 12.0001C5 12.5524 5.44772 13.0001 6 13.0001H11.725L10.7632 14.0481C10.3898 14.455 10.417 15.0876 10.8239 15.4611C11.2308 15.8345 11.8634 15.8073 12.2368 15.4004L14.7368 12.6762C15.0877 12.2938 15.0877 11.7064 14.7368 11.3239L12.2368 8.59974Z" fill="#0D0D12"/>
</svg>
