<svg width="24" height="24" viewBox="0 0 24 24" fill="none" xmlns="http://www.w3.org/2000/svg">
<path d="M20.6179 9.84497C20.7844 9.74134 21 9.86109 21 10.0572V18.013C21 18.5807 20.8409 19.1115 20.5647 19.5635C20.0383 20.4248 19.0866 21 18 21H6C4.91337 21 3.96167 20.4248 3.43531 19.5635C3.15909 19.1115 3 18.5807 3 18.013V10.0572C3 9.86108 3.21556 9.74134 3.38209 9.84497L10.9417 14.5493C11.5894 14.9523 12.4106 14.9523 13.0583 14.5493L20.6179 9.84497Z" fill="#0D0D12"/>
<path d="M19.7424 8.03419C19.8938 7.93997 19.9007 7.72206 19.7555 7.61845L14.3307 3.74593C12.9374 2.75136 11.0626 2.75136 9.66931 3.74593L4.24453 7.61841C4.09937 7.72203 4.10629 7.93996 4.25773 8.03416L11.7375 12.6869C11.8992 12.7875 12.104 12.7875 12.2657 12.6869L19.7424 8.03419Z" fill="#0D0D12"/>
</svg>
