<svg width="24" height="24" viewBox="0 0 24 24" fill="none" xmlns="http://www.w3.org/2000/svg">
<path fill-rule="evenodd" clip-rule="evenodd" d="M5 3H19C20.1046 3 21 3.89147 21 4.99115V14.9513C21 16.051 20.1046 16.9424 19 16.9424H7.48063C7.17684 16.9424 6.88953 17.0799 6.69976 17.3161L3.89043 20.8122C3.59518 21.1796 3 20.9718 3 20.5012V4.99115C3 3.89147 3.89543 3 5 3ZM8 7C7.44772 7 7 7.44772 7 8C7 8.55228 7.44772 9 8 9H11C11.5523 9 12 8.55228 12 8C12 7.44772 11.5523 7 11 7H8ZM8 11C7.44772 11 7 11.4477 7 12C7 12.5523 7.44772 13 8 13H14C14.5523 13 15 12.5523 15 12C15 11.4477 14.5523 11 14 11H8Z" fill="#0D0D12"/>
</svg>
