<svg width="24" height="24" viewBox="0 0 24 24" fill="none" xmlns="http://www.w3.org/2000/svg">
<path fill-rule="evenodd" clip-rule="evenodd" d="M22 11.4737C22 16.7059 17.7585 20.9474 12.5263 20.9474C11.2629 20.9474 10.0573 20.7001 8.95524 20.2513C8.45117 20.046 7.89066 19.9939 7.37544 20.1694L3.92428 21.3447C3.13857 21.6122 2.38772 20.8614 2.6553 20.0757L3.8306 16.6245C4.00606 16.1093 3.95399 15.5488 3.74871 15.0447C3.29989 13.9426 3.0526 12.737 3.0526 11.4737C3.0526 6.24151 7.29411 2 12.5263 2C17.7585 2 22 6.24151 22 11.4737ZM9.5 11.5C9.5 12.0523 9.05228 12.5 8.5 12.5C7.94771 12.5 7.5 12.0523 7.5 11.5C7.5 10.9477 7.94771 10.5 8.5 10.5C9.05228 10.5 9.5 10.9477 9.5 11.5ZM13.5 11.5C13.5 12.0523 13.0523 12.5 12.5 12.5C11.9477 12.5 11.5 12.0523 11.5 11.5C11.5 10.9477 11.9477 10.5 12.5 10.5C13.0523 10.5 13.5 10.9477 13.5 11.5ZM16.5 12.5C17.0523 12.5 17.5 12.0523 17.5 11.5C17.5 10.9477 17.0523 10.5 16.5 10.5C15.9477 10.5 15.5 10.9477 15.5 11.5C15.5 12.0523 15.9477 12.5 16.5 12.5Z" fill="#0D0D12"/>
</svg>
