<svg width="24" height="24" viewBox="0 0 24 24" fill="none" xmlns="http://www.w3.org/2000/svg">
<path d="M21 5.5C21 6.88071 19.8807 8 18.5 8C17.1193 8 16 6.88071 16 5.5C16 4.11929 17.1193 3 18.5 3C19.8807 3 21 4.11929 21 5.5Z" fill="#0D0D12"/>
<path fill-rule="evenodd" clip-rule="evenodd" d="M18.5 10C18.7792 10 19.0524 9.97458 19.3175 9.92592C19.6569 9.86363 20 10.1059 20 10.451V18C20 19.6569 18.6569 21 17 21H6C4.34315 21 3 19.6569 3 18V7C3 5.34315 4.34315 4 6 4H13.549C13.8941 4 14.1364 4.34305 14.0741 4.68246C14.0254 4.94757 14 5.22082 14 5.5C14 7.98528 16.0147 10 18.5 10ZM7 12C6.44772 12 6 12.4477 6 13C6 13.5523 6.44772 14 7 14H15C15.5523 14 16 13.5523 16 13C16 12.4477 15.5523 12 15 12H7ZM7 16C6.44772 16 6 16.4477 6 17C6 17.5523 6.44772 18 7 18H12C12.5523 18 13 17.5523 13 17C13 16.4477 12.5523 16 12 16H7Z" fill="#0D0D12"/>
</svg>
