<svg width="24" height="24" viewBox="0 0 24 24" fill="none" xmlns="http://www.w3.org/2000/svg">
<path fill-rule="evenodd" clip-rule="evenodd" d="M18.5 10C19.054 10 19.5847 9.89987 20.0749 9.71672C20.3729 9.60537 20.722 9.74893 20.7903 10.0596C20.9276 10.6846 21 11.3338 21 12C21 16.9706 16.9705 21 12 21C10.8148 21 9.68322 20.7709 8.64696 20.3547C8.14191 20.1518 7.58156 20.0992 7.06635 20.2746L3.92428 21.3447C3.13857 21.6122 2.38772 20.8614 2.6553 20.0757L3.72534 16.9336C3.9008 16.4184 3.84819 15.8581 3.64531 15.353C3.22903 14.3167 2.99997 13.1851 2.99997 12C2.99997 7.02944 7.0294 3 12 3C12.6661 3 13.3154 3.07238 13.9403 3.2097C14.251 3.27797 14.3946 3.62711 14.2832 3.92512C14.1001 4.41528 14 4.94595 14 5.5C14 7.98528 16.0147 10 18.5 10ZM7.49997 11C6.94768 11 6.49997 11.4477 6.49997 12C6.49997 12.5523 6.94768 13 7.49997 13H15.5C16.0523 13 16.5 12.5523 16.5 12C16.5 11.4477 16.0523 11 15.5 11H7.49997ZM7.49997 15C6.94768 15 6.49997 15.4477 6.49997 16C6.49997 16.5523 6.94768 17 7.49997 17H12.5C13.0523 17 13.5 16.5523 13.5 16C13.5 15.4477 13.0523 15 12.5 15H7.49997Z" fill="#0D0D12"/>
<path d="M21 5.5C21 6.88071 19.8807 8 18.5 8C17.1193 8 16 6.88071 16 5.5C16 4.11929 17.1193 3 18.5 3C19.8807 3 21 4.11929 21 5.5Z" fill="#0D0D12"/>
</svg>
