<svg width="24" height="24" viewBox="0 0 24 24" fill="none" xmlns="http://www.w3.org/2000/svg">
<path d="M9.25195 12.2057L11.7925 14.742C12.6102 15.5583 13.936 15.5583 14.7537 14.742C15.4845 14.0124 16.6392 13.9242 17.4726 14.5344L20.2933 16.5995C21.148 17.2252 21.2429 18.4642 20.4935 19.2123C19.3811 20.3229 17.9183 21.0813 16.3476 20.993C9.49836 20.6079 3.44184 15.4326 3.00713 7.6906C2.91814 6.10588 3.67086 4.62058 4.79506 3.49826C5.53346 2.76108 6.75631 2.85444 7.37385 3.69514L9.45987 6.53498C10.071 7.36701 9.98275 8.51977 9.25195 9.24935C8.43422 10.0657 8.43422 11.3893 9.25195 12.2057Z" fill="#0D0D12"/>
<path d="M18.7071 5.29289C18.3166 4.90237 17.6834 4.90237 17.2929 5.29289L15 7.58579V7C15 6.44772 14.5523 6 14 6C13.4477 6 13 6.44772 13 7V10C13 10.5523 13.4477 11 14 11H17C17.5523 11 18 10.5523 18 10C18 9.44772 17.5523 9 17 9H16.4142L18.7071 6.70711C19.0976 6.31658 19.0976 5.68342 18.7071 5.29289Z" fill="#0D0D12"/>
</svg>
