<svg width="24" height="24" viewBox="0 0 24 24" fill="none" xmlns="http://www.w3.org/2000/svg">
<path d="M9.25195 12.2057L11.7925 14.742C12.6102 15.5583 13.936 15.5583 14.7537 14.742C15.4845 14.0124 16.6392 13.9242 17.4726 14.5344L20.2933 16.5995C21.148 17.2252 21.2429 18.4642 20.4935 19.2123C19.3811 20.3229 17.9183 21.0813 16.3476 20.993C9.49836 20.6079 3.44184 15.4326 3.00713 7.6906C2.91814 6.10588 3.67086 4.62058 4.79506 3.49826C5.53346 2.76108 6.75631 2.85444 7.37385 3.69514L9.45987 6.53498C10.071 7.36701 9.98275 8.51977 9.25195 9.24935C8.43422 10.0657 8.43422 11.3893 9.25195 12.2057Z" fill="#0D0D12"/>
<path d="M14 6C14 6.55228 14.4477 7 15 7H15.5858L13.2929 9.29289C12.9024 9.68342 12.9024 10.3166 13.2929 10.7071C13.6834 11.0976 14.3166 11.0976 14.7071 10.7071L17 8.41421V9C17 9.55228 17.4477 10 18 10C18.5523 10 19 9.55228 19 9V6C19 5.44772 18.5523 5 18 5H15C14.4477 5 14 5.44772 14 6Z" fill="#0D0D12"/>
</svg>
