<svg width="24" height="24" viewBox="0 0 24 24" fill="none" xmlns="http://www.w3.org/2000/svg">
<path d="M8.44978 6.43884C10.4082 4.52039 13.5918 4.52039 15.5502 6.43884C15.9448 6.82532 16.5779 6.81879 16.9644 6.42426C17.3508 6.02974 17.3443 5.3966 16.9498 5.01013C14.2138 2.32996 9.78622 2.32996 7.05022 5.01013C6.65569 5.3966 6.64916 6.02974 7.03564 6.42426C7.42212 6.81879 8.05525 6.82532 8.44978 6.43884Z" fill="#0D0D12"/>
<path d="M11.2831 9.21436C11.6767 8.82878 12.3233 8.82878 12.7169 9.21436C13.1114 9.60084 13.7445 9.59431 14.131 9.19978C14.5175 8.80525 14.511 8.17212 14.1164 7.78564C12.9453 6.63835 11.0547 6.63835 9.88355 7.78564C9.48902 8.17212 9.4825 8.80525 9.86898 9.19978C10.2555 9.59431 10.8886 9.60084 11.2831 9.21436Z" fill="#0D0D12"/>
<path d="M13.6184 16.0602L10.3861 16.0627C9.34567 16.0635 8.50154 16.8458 8.50068 17.81C8.4999 18.6717 7.82086 19.4051 6.90175 19.5369L3.79102 19.9827C2.8485 20.1178 1.99921 19.4427 2 18.559C2.00118 17.2473 2.44962 15.9366 3.50588 15.0619C8.1119 11.2476 15.2631 10.7276 20.4691 15.0395C21.5348 15.9221 22.0012 17.2427 22 18.5683C21.9992 19.439 21.1612 20.1055 20.2328 19.9738L17.0965 19.529C16.1776 19.3987 15.4999 18.6663 15.5007 17.8046C15.5016 16.8404 14.6588 16.0594 13.6184 16.0602Z" fill="#0D0D12"/>
</svg>
