<svg width="24" height="24" viewBox="0 0 24 24" fill="none" xmlns="http://www.w3.org/2000/svg">
<path d="M10 21C13.5275 21 16.4456 18.3908 16.9295 14.997C17.0075 14.4503 16.5523 14 16 14H11C10.4477 14 10 13.5523 10 13V8C10 7.44772 9.54972 6.9925 9.00297 7.07046C5.60923 7.55442 3 10.4725 3 14C3 17.866 6.13401 21 10 21Z" fill="#0D0D12"/>
<path d="M20 10C20.5523 10 21.0075 9.54972 20.9295 9.00297C20.492 5.93489 18.0651 3.50798 14.997 3.07046C14.4503 2.9925 14 3.44772 14 4V9C14 9.55228 14.4477 10 15 10H20Z" fill="#0D0D12"/>
</svg>
