<svg width="24" height="24" viewBox="0 0 24 24" fill="none" xmlns="http://www.w3.org/2000/svg">
<path d="M7.06461 6.827C7.03197 6.99461 7.18724 7.13061 7.35535 7.10069C7.72703 7.03454 8.10955 7 8.49997 7H12.4872C12.7948 7 13.0827 6.85618 13.2836 6.62319C13.352 6.54389 13.422 6.46535 13.4938 6.38785C13.6323 6.23829 13.6793 6.02038 13.5826 5.84095C12.9914 4.74485 11.8327 4 10.5 4C8.79717 4 7.37839 5.216 7.06461 6.827Z" fill="#0D0D12"/>
<path fill-rule="evenodd" clip-rule="evenodd" d="M20 11.4364C20.5523 11.4364 21 11.8841 21 12.4364V14.5636C21 15.1159 20.5523 15.5636 20 15.5636H19.5C18.9595 16.6092 18.021 17.4158 16.8849 17.7829C16.6627 17.8547 16.5 18.0542 16.5 18.2877V19.5C16.5 19.7761 16.2761 20 16 20H13.5C13.2239 20 13 19.7761 13 19.5V18.5C13 18.2239 12.7761 18 12.5 18H11C10.7239 18 10.5 18.2239 10.5 18.5V19.5C10.5 19.7761 10.2761 20 10 20H7.5C7.22386 20 7 19.7761 7 19.5V18.0975C7 17.8856 6.86519 17.6992 6.6716 17.613C5.09747 16.9122 4 15.3343 4 13.5C4 12.2648 4.49769 11.1458 5.30349 10.3326C6.11896 9.5097 7.24996 9 8.5 9H13.7324C13.8996 9 14.0553 8.91585 14.1504 8.77832C15.0448 7.48427 15.9592 6.6092 17.25 6.50952C17.3877 6.49889 17.5 6.61193 17.5 6.75V9.1579C17.5 9.34773 17.6088 9.51913 17.7725 9.61513C18.4193 9.99427 18.9629 10.5303 19.3512 11.1709C19.4481 11.3308 19.6174 11.4364 19.8044 11.4364H20ZM16 13C16.5523 13 17 12.5523 17 12C17 11.4477 16.5523 11 16 11C15.4477 11 15 11.4477 15 12C15 12.5523 15.4477 13 16 13Z" fill="#0D0D12"/>
<path d="M4.83201 5.44538C5.13838 5.9049 5.01423 6.52577 4.55471 6.83214C4.1748 7.08543 3.9205 7.66753 4.02257 8.24166C4.0359 8.31667 4.05574 8.39287 4.0837 8.46842C4.1248 8.57951 4.10625 8.70854 4.02043 8.79019C3.65402 9.13879 3.32823 9.52972 3.05092 9.95512C2.95969 10.0951 2.76016 10.118 2.65897 9.98504C2.3463 9.57436 2.14338 9.09764 2.05344 8.59171C1.82962 7.33268 2.32527 5.91479 3.44525 5.16807C3.90477 4.86171 4.52564 4.98586 4.83201 5.44538Z" fill="#0D0D12"/>
</svg>
