<svg width="24" height="24" viewBox="0 0 24 24" fill="none" xmlns="http://www.w3.org/2000/svg">
<path fill-rule="evenodd" clip-rule="evenodd" d="M12 22C6.47715 22 2 17.5228 2 12C2 6.47715 6.47715 2 12 2C17.5228 2 22 6.47715 22 12C22 17.5228 17.5228 22 12 22ZM13 7.5C13 6.94772 12.5523 6.5 12 6.5C11.4477 6.5 11 6.94772 11 7.5V10.75C11 10.8881 10.8881 11 10.75 11H7.5C6.94772 11 6.5 11.4477 6.5 12C6.5 12.5523 6.94772 13 7.5 13H10.75C10.8881 13 11 13.1119 11 13.25V16.5C11 17.0523 11.4477 17.5 12 17.5C12.5523 17.5 13 17.0523 13 16.5V13.25C13 13.1119 13.1119 13 13.25 13H16.5C17.0523 13 17.5 12.5523 17.5 12C17.5 11.4477 17.0523 11 16.5 11H13.25C13.1119 11 13 10.8881 13 10.75V7.5Z" fill="#0D0D12"/>
</svg>
