<svg width="24" height="24" viewBox="0 0 24 24" fill="none" xmlns="http://www.w3.org/2000/svg">
<path d="M8.9269 8.61351C9.29203 7.69587 9.71252 7.05691 10.1918 6.64925C10.6492 6.26012 11.2176 6.03175 11.9998 6.03175C13.8052 6.03175 14.9998 7.46483 14.9998 9.03704C14.9998 10.1185 14.1597 10.9448 12.5619 11.7083C11.7054 12.1176 11.0101 12.9026 10.7998 13.9176L10.6879 14.4574C10.5741 15.0064 10.92 15.5452 11.4604 15.6607C12.0009 15.7763 12.5312 15.425 12.645 14.8759L12.7569 14.3361C12.8231 14.0166 13.0549 13.7181 13.4132 13.5468C15.0587 12.7605 16.9998 11.4399 16.9998 9.03704C16.9998 6.43061 14.9943 4 11.9998 4C10.7819 4 9.75032 4.3748 8.90778 5.09149C8.08703 5.78965 7.50753 6.75916 7.07265 7.8521C6.86568 8.37227 7.11299 8.96439 7.62502 9.17464C8.13706 9.3849 8.71993 9.13367 8.9269 8.61351Z" fill="#0D0D12"/>
<path d="M11.4998 20C12.1901 20 12.7498 19.4315 12.7498 18.7302C12.7498 18.0288 12.1901 17.4603 11.4998 17.4603C10.8094 17.4603 10.2498 18.0288 10.2498 18.7302C10.2498 19.4315 10.8094 20 11.4998 20Z" fill="#0D0D12"/>
</svg>
