<svg width="24" height="24" viewBox="0 0 24 24" fill="none" xmlns="http://www.w3.org/2000/svg">
<path fill-rule="evenodd" clip-rule="evenodd" d="M12 22C6.47715 22 2 17.5228 2 12C2 6.47715 6.47715 2 12 2C17.5228 2 22 6.47715 22 12C22 17.5228 17.5228 22 12 22ZM12.8698 8.29439C11.8148 7.68814 10.468 8.04976 9.86177 9.09498C9.58467 9.57272 8.97275 9.73537 8.49501 9.45827C8.01728 9.18117 7.85463 8.56926 8.13172 8.09152C9.29278 6.08978 11.8601 5.40743 13.8663 6.56035C15.8751 7.7148 16.567 10.2758 15.4043 12.2802C14.8238 13.2811 13.8896 13.9526 12.854 14.2288C12.3203 14.3711 11.7724 14.0539 11.63 13.5203C11.4877 12.9867 11.8049 12.4387 12.3385 12.2964C12.885 12.1506 13.3712 11.7993 13.6743 11.2768C14.279 10.2343 13.922 8.8991 12.8698 8.29439ZM13.2502 17.0001C13.2502 17.6904 12.6905 18.2501 12.0002 18.2501C11.3098 18.2501 10.7502 17.6904 10.7502 17.0001C10.7502 16.3097 11.3098 15.7501 12.0002 15.7501C12.6905 15.7501 13.2502 16.3097 13.2502 17.0001Z" fill="#0D0D12"/>
</svg>
