<svg width="24" height="24" viewBox="0 0 24 24" fill="none" xmlns="http://www.w3.org/2000/svg">
<path fill-rule="evenodd" clip-rule="evenodd" d="M11.5528 21.8936L8.44721 20.3316C8.16569 20.19 7.83431 20.19 7.55279 20.3316L4.72361 21.7546C4.39116 21.9218 4 21.6786 4 21.3047V2.69508C4 2.32119 4.39116 2.078 4.72361 2.24522L7.55279 3.66821C7.83431 3.8098 8.16569 3.8098 8.44721 3.66821L11.5528 2.1062C11.6935 2.0354 11.8468 2 12 2C12.1532 2 12.3064 2.0354 12.4472 2.1062L15.5528 3.66821C15.8343 3.8098 16.1657 3.8098 16.4472 3.66821L19.2764 2.24522C19.6088 2.078 20 2.32119 20 2.69508V21.3047C20 21.6786 19.6088 21.9218 19.2764 21.7546L16.4472 20.3316C16.1657 20.19 15.8343 20.19 15.5528 20.3316L12.4472 21.8936C12.1657 22.0352 11.8343 22.0352 11.5528 21.8936ZM8 7C7.44772 7 7 7.44772 7 8C7 8.55228 7.44772 9 8 9H16C16.5523 9 17 8.55228 17 8C17 7.44772 16.5523 7 16 7H8ZM8 11C7.44772 11 7 11.4477 7 12C7 12.5523 7.44772 13 8 13H16C16.5523 13 17 12.5523 17 12C17 11.4477 16.5523 11 16 11H8ZM8 15C7.44772 15 7 15.4477 7 16C7 16.5523 7.44772 17 8 17H16C16.5523 17 17 16.5523 17 16C17 15.4477 16.5523 15 16 15H8Z" fill="#0D0D12"/>
</svg>
