<svg width="24" height="24" viewBox="0 0 24 24" fill="none" xmlns="http://www.w3.org/2000/svg">
<path fill-rule="evenodd" clip-rule="evenodd" d="M7 2H17C18.6569 2 20 3.35112 20 5.01781V21.3049C20 21.6788 19.6088 21.922 19.2764 21.7548L16.4472 20.3318C16.1657 20.1902 15.8343 20.1902 15.5528 20.3318L12.4472 21.8938C12.1657 22.0354 11.8343 22.0354 11.5528 21.8938L8.44721 20.3318C8.16569 20.1902 7.83431 20.1902 7.55279 20.3318L4.72361 21.7548C4.39116 21.922 4 21.6788 4 21.3049V5.01781C4 3.35112 5.34315 2 7 2ZM8 6C7.44772 6 7 6.44772 7 7C7 7.55228 7.44772 8 8 8H16C16.5523 8 17 7.55228 17 7C17 6.44772 16.5523 6 16 6H8ZM8 10C7.44772 10 7 10.4477 7 11C7 11.5523 7.44772 12 8 12H16C16.5523 12 17 11.5523 17 11C17 10.4477 16.5523 10 16 10H8ZM8 14C7.44772 14 7 14.4477 7 15C7 15.5523 7.44772 16 8 16H16C16.5523 16 17 15.5523 17 15C17 14.4477 16.5523 14 16 14H8Z" fill="#0D0D12"/>
</svg>
