<svg width="24" height="24" viewBox="0 0 24 24" fill="none" xmlns="http://www.w3.org/2000/svg">
<path d="M4 3.5C4 3.22386 4.22386 3 4.5 3H9.5C9.77614 3 10 3.22386 10 3.5V8.5C10 8.77614 9.77614 9 9.5 9H4.5C4.22386 9 4 8.77614 4 8.5V3.5Z" fill="#0D0D12"/>
<path d="M15 14.5C15 14.2239 15.2239 14 15.5 14H20.5C20.7761 14 21 14.2239 21 14.5V19.5C21 19.7761 20.7761 20 20.5 20H15.5C15.2239 20 15 19.7761 15 19.5V14.5Z" fill="#0D0D12"/>
<path d="M7.35044 13.1452C7.1569 12.9516 6.8431 12.9516 6.64956 13.1452L3.14516 16.6496C2.95161 16.8431 2.95161 17.1569 3.14516 17.3504L6.64956 20.8548C6.8431 21.0484 7.1569 21.0484 7.35044 20.8548L10.8548 17.3504C11.0484 17.1569 11.0484 16.8431 10.8548 16.6496L7.35044 13.1452Z" fill="#0D0D12"/>
<path d="M18.5 4C18.5 3.44772 18.0523 3 17.5 3C16.9477 3 16.5 3.44772 16.5 4V5.25C16.5 5.38807 16.3881 5.5 16.25 5.5H15C14.4477 5.5 14 5.94772 14 6.5C14 7.05228 14.4477 7.5 15 7.5H16.25C16.3881 7.5 16.5 7.61193 16.5 7.75V9C16.5 9.55228 16.9477 10 17.5 10C18.0523 10 18.5 9.55228 18.5 9V7.75C18.5 7.61193 18.6119 7.5 18.75 7.5H20C20.5523 7.5 21 7.05228 21 6.5C21 5.94772 20.5523 5.5 20 5.5H18.75C18.6119 5.5 18.5 5.38807 18.5 5.25V4Z" fill="#0D0D12"/>
</svg>
