<svg width="24" height="24" viewBox="0 0 24 24" fill="none" xmlns="http://www.w3.org/2000/svg">
<path fill-rule="evenodd" clip-rule="evenodd" d="M16.6569 5.34315C19.781 8.46734 19.781 13.5327 16.6569 16.6569C13.5327 19.781 8.46734 19.781 5.34315 16.6569C2.21895 13.5327 2.21895 8.46734 5.34315 5.34315C8.46734 2.21895 13.5327 2.21895 16.6569 5.34315ZM8.04695 8.04699C9.67796 6.41598 12.3224 6.41598 13.9534 8.04699C14.3439 8.43751 14.9771 8.43751 15.3676 8.04699C15.7581 7.65647 15.7581 7.0233 15.3676 6.63278C12.9555 4.22072 9.0448 4.22072 6.63274 6.63278C6.24221 7.0233 6.24221 7.65647 6.63274 8.04699C7.02326 8.43751 7.65643 8.43751 8.04695 8.04699Z" fill="#0D0D12"/>
<path d="M18.5654 17.5401C18.6622 17.4284 18.8339 17.4197 18.9385 17.5242L20.707 19.2927C21.0975 19.6833 21.0975 20.3164 20.707 20.707C20.3164 21.0975 19.6833 21.0975 19.2927 20.707L17.5242 18.9385C17.4197 18.8339 17.4284 18.6622 17.5401 18.5654C17.7216 18.4082 17.8987 18.2435 18.0711 18.0711C18.2435 17.8987 18.4082 17.7216 18.5654 17.5401Z" fill="#0D0D12"/>
</svg>
