<svg width="24" height="24" viewBox="0 0 24 24" fill="none" xmlns="http://www.w3.org/2000/svg">
<path d="M14.0962 14.0962C16.6346 11.5578 16.6346 7.44221 14.0962 4.90381C11.5578 2.3654 7.44221 2.3654 4.90381 4.90381C2.3654 7.44221 2.3654 11.5578 4.90381 14.0962C7.44221 16.6346 11.5578 16.6346 14.0962 14.0962Z" fill="#0D0D12"/>
<path d="M16.3751 14.9608C16.2693 14.8551 16.0951 14.8655 15.9985 14.9797C15.8447 15.1617 15.682 15.3388 15.5104 15.5104C15.3388 15.682 15.1617 15.8447 14.9797 15.9985C14.8655 16.0951 14.8551 16.2693 14.9608 16.3751L19.2929 20.7071C19.6834 21.0976 20.3165 21.0976 20.7071 20.7071C21.0976 20.3165 21.0976 19.6834 20.7071 19.2929L16.3751 14.9608Z" fill="#0D0D12"/>
</svg>
