<svg width="24" height="24" viewBox="0 0 24 24" fill="none" xmlns="http://www.w3.org/2000/svg">
<path fill-rule="evenodd" clip-rule="evenodd" d="M15.8033 5.1967C18.7322 8.12563 18.7322 12.8744 15.8033 15.8033C12.8744 18.7322 8.12563 18.7322 5.1967 15.8033C2.26777 12.8744 2.26777 8.12563 5.1967 5.1967C8.12563 2.26777 12.8744 2.26777 15.8033 5.1967ZM7.89265 7.89254C9.33271 6.45249 11.6675 6.45249 13.1076 7.89254C13.4981 8.28307 14.1313 8.28307 14.5218 7.89254C14.9123 7.50202 14.9123 6.86885 14.5218 6.47833C12.3007 4.25722 8.69955 4.25722 6.47844 6.47833C6.08792 6.86885 6.08792 7.50202 6.47844 7.89254C6.86896 8.28307 7.50213 8.28307 7.89265 7.89254Z" fill="#0D0D12"/>
<path d="M18.0841 16.6699C17.9792 16.565 17.8067 16.5742 17.71 16.6867C17.5538 16.8683 17.3897 17.0454 17.2175 17.2175C17.0454 17.3897 16.8683 17.5538 16.6867 17.71C16.5742 17.8067 16.565 17.9792 16.6699 18.0841L19.2928 20.707C19.6833 21.0975 20.3165 21.0975 20.707 20.707C21.0975 20.3165 21.0975 19.6833 20.707 19.2928L18.0841 16.6699Z" fill="#0D0D12"/>
</svg>
