<svg width="24" height="24" viewBox="0 0 24 24" fill="none" xmlns="http://www.w3.org/2000/svg">
<path fill-rule="evenodd" clip-rule="evenodd" d="M14.0962 4.90381C16.6346 7.44221 16.6346 11.5578 14.0962 14.0962C11.5578 16.6346 7.44221 16.6346 4.90381 14.0962C2.3654 11.5578 2.3654 7.44221 4.90381 4.90381C7.44221 2.3654 11.5578 2.3654 14.0962 4.90381ZM7.58064 7.58064C8.64064 6.52065 10.3592 6.52065 11.4192 7.58064C11.8097 7.97116 12.4429 7.97116 12.8334 7.58064C13.224 7.19012 13.224 6.55695 12.8334 6.16643C10.9924 4.32538 8.00747 4.32538 6.16643 6.16643C5.7759 6.55695 5.7759 7.19012 6.16643 7.58064C6.55695 7.97116 7.19012 7.97116 7.58064 7.58064Z" fill="#0D0D12"/>
<path d="M15.9985 14.9797C16.0951 14.8655 16.2693 14.8551 16.3751 14.9608L17.2344 15.8202C17.2957 15.8815 17.3841 15.9051 17.4699 15.893C17.922 15.8295 18.3975 15.9717 18.7452 16.3194L20.559 18.1331C21.147 18.7212 21.147 19.6746 20.559 20.2627L20.2627 20.559C19.6746 21.147 18.7212 21.147 18.1331 20.559L16.3194 18.7452C15.9717 18.3975 15.8295 17.922 15.893 17.4699C15.9051 17.3841 15.8815 17.2957 15.8202 17.2344L14.9608 16.3751C14.8551 16.2693 14.8655 16.0951 14.9797 15.9985C15.1617 15.8447 15.3388 15.682 15.5104 15.5104C15.682 15.3388 15.8447 15.1617 15.9985 14.9797Z" fill="#0D0D12"/>
</svg>
