<svg width="24" height="24" viewBox="0 0 24 24" fill="none" xmlns="http://www.w3.org/2000/svg">
<path fill-rule="evenodd" clip-rule="evenodd" d="M14.0962 4.90381C16.6346 7.44221 16.6346 11.5578 14.0962 14.0962C11.5578 16.6346 7.44221 16.6346 4.90381 14.0962C2.3654 11.5578 2.3654 7.44221 4.90381 4.90381C7.44221 2.3654 11.5578 2.3654 14.0962 4.90381ZM7.58064 7.58064C8.64064 6.52065 10.3592 6.52065 11.4192 7.58064C11.8097 7.97116 12.4429 7.97116 12.8334 7.58064C13.224 7.19012 13.224 6.55695 12.8334 6.16643C10.9924 4.32538 8.00747 4.32538 6.16643 6.16643C5.7759 6.55695 5.7759 7.19012 6.16643 7.58064C6.55695 7.97116 7.19012 7.97116 7.58064 7.58064Z" fill="#0D0D12"/>
<path d="M15.9985 14.9797C16.0951 14.8655 16.2693 14.8551 16.3751 14.9608L20.7071 19.2929C21.0976 19.6834 21.0976 20.3165 20.7071 20.7071C20.3165 21.0976 19.6834 21.0976 19.2929 20.7071L14.9608 16.3751C14.8551 16.2693 14.8655 16.0951 14.9797 15.9985C15.1617 15.8447 15.3388 15.682 15.5104 15.5104C15.682 15.3388 15.8447 15.1617 15.9985 14.9797Z" fill="#0D0D12"/>
</svg>
