<svg width="24" height="24" viewBox="0 0 24 24" fill="none" xmlns="http://www.w3.org/2000/svg">
<path d="M7 3C4.79086 3 3 4.79086 3 7V17C3 19.2091 4.79086 21 7 21H17C19.2091 21 21 19.2091 21 17V13C21 12.4477 20.5523 12 20 12C19.4477 12 19 12.4477 19 13V17C19 18.1046 18.1046 19 17 19H7C5.89543 19 5 18.1046 5 17V7C5 5.89543 5.89543 5 7 5H11C11.5523 5 12 4.55228 12 4C12 3.44772 11.5523 3 11 3H7Z" fill="#0D0D12"/>
<path d="M14 4C14 4.55228 14.4477 5 15 5H17.5858L11.2929 11.2929C10.9024 11.6834 10.9024 12.3166 11.2929 12.7071C11.6834 13.0976 12.3166 13.0976 12.7071 12.7071L19 6.41421V9C19 9.55228 19.4477 10 20 10C20.5523 10 21 9.55228 21 9V4C21 3.44772 20.5523 3 20 3H15C14.4477 3 14 3.44772 14 4Z" fill="#0D0D12"/>
</svg>
