<svg width="24" height="24" viewBox="0 0 24 24" fill="none" xmlns="http://www.w3.org/2000/svg">
<path fill-rule="evenodd" clip-rule="evenodd" d="M3.00059 7.59352C3.20646 13.6197 5.53308 19.0699 11.1059 20.8601C11.6866 21.0466 12.3134 21.0466 12.8941 20.8601C18.4669 19.0699 20.7935 13.6197 20.9994 7.59352C21.0169 7.08167 20.6467 6.65046 20.1578 6.55081C17.5104 6.01123 15.4106 4.85537 13.1163 3.3374C12.4363 2.88753 11.5637 2.88753 10.8837 3.3374C8.58942 4.85537 6.48962 6.01123 3.8422 6.55081C3.35327 6.65046 2.98311 7.08167 3.00059 7.59352ZM10.7616 11.5706C10.9017 11.6812 11 11.8423 11 12.0208V15C11 15.5523 11.4477 16 12 16C12.5523 16 13 15.5523 13 15V12.0208C13 11.8423 13.0983 11.6812 13.2384 11.5706C13.7023 11.2043 14 10.6369 14 10C14 8.89543 13.1046 8 12 8C10.8954 8 10 8.89543 10 10C10 10.6369 10.2977 11.2043 10.7616 11.5706Z" fill="#0D0D12"/>
</svg>
