<svg width="24" height="24" viewBox="0 0 24 24" fill="none" xmlns="http://www.w3.org/2000/svg">
<path fill-rule="evenodd" clip-rule="evenodd" d="M7 3H17C19.2091 3 21 4.79086 21 7V17C21 19.2091 19.2091 21 17 21H7C4.79086 21 3 19.2091 3 17V7C3 4.79086 4.79086 3 7 3ZM17 8C17 7.44772 16.5523 7 16 7C15.4477 7 15 7.44772 15 8V16C15 16.5523 15.4477 17 16 17C16.5523 17 17 16.5523 17 16V8ZM13 11C13 10.4477 12.5523 10 12 10C11.4477 10 11 10.4477 11 11V16C11 16.5523 11.4477 17 12 17C12.5523 17 13 16.5523 13 16V11ZM9 14C9 13.4477 8.55228 13 8 13C7.44772 13 7 13.4477 7 14V16C7 16.5523 7.44772 17 8 17C8.55228 17 9 16.5523 9 16V14Z" fill="#0D0D12"/>
</svg>
