<svg width="24" height="24" viewBox="0 0 24 24" fill="none" xmlns="http://www.w3.org/2000/svg">
<path fill-rule="evenodd" clip-rule="evenodd" d="M12 22C6.47715 22 2 17.5228 2 12C2 6.47715 6.47715 2 12 2C17.5228 2 22 6.47715 22 12C22 17.5228 17.5228 22 12 22ZM11.4187 6.88516C11.6323 6.37161 12.3597 6.37161 12.5733 6.88516L13.5605 9.25868C13.65 9.47383 13.8516 9.62138 14.0838 9.6415L16.4279 9.84473C16.9647 9.89127 17.1952 10.5497 16.8046 10.9209L15.0239 12.6136C14.8624 12.7671 14.7948 12.9951 14.8465 13.2119L15.4473 15.7309C15.5764 16.272 14.9878 16.6996 14.5132 16.4096L12.3219 15.0711C12.1218 14.9489 11.8702 14.9489 11.6701 15.0711L9.47882 16.4096C9.00419 16.6996 8.41567 16.272 8.54472 15.7309L9.14575 13.2111C9.19736 12.9947 9.13014 12.7672 8.96921 12.6136L7.19449 10.9201C6.80515 10.5485 7.03584 9.89136 7.57197 9.84474L9.90837 9.64159C10.1404 9.62141 10.3421 9.47388 10.4315 9.25878L11.4187 6.88516Z" fill="#0D0D12"/>
</svg>
