<svg width="24" height="24" viewBox="0 0 24 24" fill="none" xmlns="http://www.w3.org/2000/svg">
<path d="M13.032 3.69306C12.6475 2.76898 11.3381 2.76898 10.9537 3.69306L9.17675 7.96418C9.01572 8.35124 8.65281 8.6167 8.23507 8.65301L4.02955 9.01857C3.06452 9.10246 2.64927 10.285 3.35008 10.9535L6.54457 14.001C6.83424 14.2773 6.95525 14.6867 6.86235 15.0761L5.78049 19.6103C5.54821 20.5838 6.60755 21.3532 7.46188 20.8316L11.4062 18.423C11.7663 18.2031 12.2193 18.2031 12.5795 18.423L16.5238 20.8316C17.3781 21.3532 18.4375 20.5838 18.2052 19.6103L17.1237 15.0775C17.0306 14.6874 17.1522 14.2772 17.443 14.0009L20.6483 10.9551C21.3513 10.2871 20.9364 9.1023 19.9702 9.01856L15.7508 8.65286C15.333 8.61665 14.9699 8.35115 14.8088 7.964L13.032 3.69306Z" fill="#0D0D12"/>
</svg>
