<svg width="24" height="24" viewBox="0 0 24 24" fill="none" xmlns="http://www.w3.org/2000/svg">
<path fill-rule="evenodd" clip-rule="evenodd" d="M9 9C9 7.34315 10.3431 6 12 6C13.6569 6 15 7.34315 15 9C15 9.55228 15.4477 10 16 10C16.5523 10 17 9.55228 17 9C17 6.23858 14.7614 4 12 4C9.23858 4 7 6.23858 7 9V11.75C7 11.8881 6.88751 11.9984 6.7505 12.0154C5.76368 12.1382 5 12.9799 5 14V18C5 19.1046 5.89543 20 7 20H17C18.1046 20 19 19.1046 19 18V14C19 12.8954 18.1046 12 17 12H9.5C9.22386 12 9 11.7761 9 11.5V9ZM13.25 16C13.25 16.6904 12.6904 17.25 12 17.25C11.3096 17.25 10.75 16.6904 10.75 16C10.75 15.3096 11.3096 14.75 12 14.75C12.6904 14.75 13.25 15.3096 13.25 16Z" fill="#0D0D12"/>
</svg>
