<svg width="24" height="24" viewBox="0 0 24 24" fill="none" xmlns="http://www.w3.org/2000/svg">
<path fill-rule="evenodd" clip-rule="evenodd" d="M12 6C10.3431 6 9 7.34315 9 9V11.5C9 11.7761 9.22386 12 9.5 12H17C18.1046 12 19 12.8954 19 14V18C19 19.1046 18.1046 20 17 20H7C5.89543 20 5 19.1046 5 18V14C5 12.9799 5.76368 12.1382 6.7505 12.0154C6.88751 11.9984 7 11.8881 7 11.75V9C7 6.23858 9.23858 4 12 4C14.7614 4 17 6.23858 17 9C17 9.55228 16.5523 10 16 10C15.4477 10 15 9.55228 15 9C15 7.34315 13.6569 6 12 6ZM10 16C10 16.5523 9.55228 17 9 17C8.44772 17 8 16.5523 8 16C8 15.4477 8.44772 15 9 15C9.55228 15 10 15.4477 10 16ZM13 16C13 16.5523 12.5523 17 12 17C11.4477 17 11 16.5523 11 16C11 15.4477 11.4477 15 12 15C12.5523 15 13 15.4477 13 16ZM15 17C15.5523 17 16 16.5523 16 16C16 15.4477 15.5523 15 15 15C14.4477 15 14 15.4477 14 16C14 16.5523 14.4477 17 15 17Z" fill="#0D0D12"/>
</svg>
