<svg width="24" height="24" viewBox="0 0 24 24" fill="none" xmlns="http://www.w3.org/2000/svg">
<path fill-rule="evenodd" clip-rule="evenodd" d="M9 9C9 7.34315 10.3431 6 12 6C13.6569 6 15 7.34315 15 9C15 9.55228 15.4477 10 16 10C16.5523 10 17 9.55228 17 9C17 6.23858 14.7614 4 12 4C9.23858 4 7 6.23858 7 9V11.75C7 11.8881 6.88751 11.9984 6.7505 12.0154C5.76368 12.1382 5 12.9799 5 14V18C5 19.1046 5.89543 20 7 20H17C18.1046 20 19 19.1046 19 18V14C19 12.8954 18.1046 12 17 12H9.5C9.22386 12 9 11.7761 9 11.5V9ZM13 16.6181C13.3069 16.3434 13.5 15.9443 13.5 15.5C13.5 14.6716 12.8284 14 12 14C11.1716 14 10.5 14.6716 10.5 15.5C10.5 15.9443 10.6931 16.3434 11 16.6181V17C11 17.5523 11.4477 18 12 18C12.5523 18 13 17.5523 13 17V16.6181Z" fill="#0D0D12"/>
</svg>
