<svg width="24" height="24" viewBox="0 0 24 24" fill="none" xmlns="http://www.w3.org/2000/svg">
<path d="M12.7071 3.29289C12.3166 2.90237 11.6834 2.90237 11.2929 3.29289L7.79289 6.79289C7.40237 7.18342 7.40237 7.81658 7.79289 8.20711C8.18342 8.59763 8.81658 8.59763 9.20711 8.20711L11 6.41421V14C11 14.5523 11.4477 15 12 15C12.5523 15 13 14.5523 13 14V6.41421L14.7929 8.20711C15.1834 8.59763 15.8166 8.59763 16.2071 8.20711C16.5976 7.81658 16.5976 7.18342 16.2071 6.79289L12.7071 3.29289Z" fill="#0D0D12"/>
<path d="M5.5088 9.37448C5.71563 8.86239 5.46815 8.27959 4.95605 8.07277C4.44396 7.86594 3.86116 8.11342 3.65434 8.62552C2.34346 11.8713 3.00206 15.73 5.63604 18.364C9.15076 21.8787 14.8492 21.8787 18.364 18.364C20.9979 15.73 21.6565 11.8713 20.3457 8.62552C20.1388 8.11342 19.556 7.86594 19.0439 8.07277C18.5318 8.27959 18.2844 8.86239 18.4912 9.37448C19.5122 11.9026 18.9964 14.9031 16.9497 16.9497C14.2161 19.6834 9.78392 19.6834 7.05025 16.9497C5.00357 14.9031 4.48778 11.9026 5.5088 9.37448Z" fill="#0D0D12"/>
</svg>
