<svg width="24" height="24" viewBox="0 0 24 24" fill="none" xmlns="http://www.w3.org/2000/svg">
<path d="M7.27015 20H16.7298C18.7928 20 20.34 18.4412 19.9354 16.7705L19.0637 13.1705C18.7581 11.9084 17.4164 11 15.8581 11H15.4996C15.2234 11 14.9996 11.2239 14.9996 11.5V13C14.9996 14.6569 13.6564 16 11.9996 16C10.3427 16 8.99959 14.6569 8.99959 13V11.5C8.99959 11.2239 8.77573 11 8.49959 11H8.14189C6.5836 11 5.24194 11.9084 4.93634 13.1705L4.06459 16.7705C3.66002 18.4412 5.20723 20 7.27015 20Z" fill="#0D0D12"/>
<path d="M8.59925 6.76323C8.19234 7.13665 8.16519 7.76923 8.53862 8.17614C8.91204 8.58305 9.54462 8.6102 9.95153 8.23677L10.9996 7.27497V13C10.9996 13.5523 11.4473 14 11.9996 14C12.5519 14 12.9996 13.5523 12.9996 13V7.27497L14.0476 8.23677C14.4546 8.6102 15.0871 8.58305 15.4606 8.17614C15.834 7.76923 15.8068 7.13665 15.3999 6.76323L12.6757 4.26323C12.2933 3.91226 11.7059 3.91226 11.3235 4.26323L8.59925 6.76323Z" fill="#0D0D12"/>
</svg>
