<svg width="24" height="24" viewBox="0 0 24 24" fill="none" xmlns="http://www.w3.org/2000/svg">
<path d="M7 20H17C18.6569 20 20 18.6569 20 17V15C20 13.3431 18.6569 12 17 12H15.5C15.2239 12 15 12.2239 15 12.5V13C15 14.6569 13.6569 16 12 16C10.3431 16 9 14.6569 9 13V12.5C9 12.2239 8.77614 12 8.5 12H7C5.34315 12 4 13.3431 4 15V17C4 18.6569 5.34315 20 7 20Z" fill="#0D0D12"/>
<path d="M8.79289 6.79289C8.40237 7.18342 8.40237 7.81658 8.79289 8.20711C9.18342 8.59763 9.81658 8.59763 10.2071 8.20711L11 7.41421V13C11 13.5523 11.4477 14 12 14C12.5523 14 13 13.5523 13 13V7.41421L13.7929 8.20711C14.1834 8.59763 14.8166 8.59763 15.2071 8.20711C15.5976 7.81658 15.5976 7.18342 15.2071 6.79289L12.7071 4.29289C12.3166 3.90237 11.6834 3.90237 11.2929 4.29289L8.79289 6.79289Z" fill="#0D0D12"/>
</svg>
