<svg width="24" height="24" viewBox="0 0 24 24" fill="none" xmlns="http://www.w3.org/2000/svg">
<path d="M12.7071 5.29289C12.3166 4.90237 11.6834 4.90237 11.2929 5.29289L8.79289 7.79289C8.40237 8.18342 8.40237 8.81658 8.79289 9.20711C9.18342 9.59763 9.81658 9.59763 10.2071 9.20711L11 8.41421V14C11 14.5523 11.4477 15 12 15C12.5523 15 13 14.5523 13 14V8.41421L13.7929 9.20711C14.1834 9.59763 14.8166 9.59763 15.2071 9.20711C15.5976 8.81658 15.5976 8.18342 15.2071 7.79289L12.7071 5.29289Z" fill="#0D0D12"/>
<path d="M4 17C3.44772 17 3 17.4477 3 18C3 18.5523 3.44772 19 4 19H20C20.5523 19 21 18.5523 21 18C21 17.4477 20.5523 17 20 17H4Z" fill="#0D0D12"/>
</svg>
