<svg width="24" height="24" viewBox="0 0 24 24" fill="none" xmlns="http://www.w3.org/2000/svg">
<path fill-rule="evenodd" clip-rule="evenodd" d="M12 2C17.5228 2 22 6.47715 22 12C22 15.7014 19.989 18.9331 17 20.6622C15.5291 21.513 13.8214 22 12 22C10.1786 22 8.47087 21.513 7 20.6622C4.01099 18.9331 2 15.7014 2 12C2 6.47715 6.47715 2 12 2ZM12.0002 12.5C13.6571 12.5 15.0002 11.1569 15.0002 9.5C15.0002 7.84315 13.6571 6.5 12.0002 6.5C10.3434 6.5 9.00023 7.84315 9.00023 9.5C9.00023 11.1569 10.3434 12.5 12.0002 12.5ZM13.0002 14.5C15.0377 14.5 16.7194 16.0233 16.9684 17.9932C16.9888 18.1546 16.9177 18.313 16.7874 18.4105C16.5356 18.5988 16.2724 18.7727 15.9988 18.931C14.8241 19.6105 13.4607 20 12.0002 20C10.5398 20 9.17634 19.6105 8.00169 18.931C7.7281 18.7727 7.46482 18.5988 7.21307 18.4105C7.08279 18.313 7.01163 18.1546 7.03203 17.9932C7.2811 16.0233 8.96277 14.5 11.0002 14.5H13.0002Z" fill="#0D0D12"/>
</svg>
