<svg width="24" height="24" viewBox="0 0 24 24" fill="none" xmlns="http://www.w3.org/2000/svg">
<path d="M14 7C14 9.20914 12.2091 11 10 11C7.79086 11 6 9.20914 6 7C6 4.79086 7.79086 3 10 3C12.2091 3 14 4.79086 14 7Z" fill="black"/>
<path d="M3 18C3 15.2386 5.23858 13 8 13H12C14.7614 13 17 15.2386 17 18V20C17 20.5523 16.5523 21 16 21H4C3.44772 21 3 20.5523 3 20V18Z" fill="black"/>
<path d="M18.5 8.5C18.5 7.94772 18.0523 7.5 17.5 7.5C16.9477 7.5 16.5 7.94772 16.5 8.5V10H15C14.4477 10 14 10.4477 14 11C14 11.5523 14.4477 12 15 12H16.5V13.5C16.5 14.0523 16.9477 14.5 17.5 14.5C18.0523 14.5 18.5 14.0523 18.5 13.5V12H20C20.5523 12 21 11.5523 21 11C21 10.4477 20.5523 10 20 10H18.5V8.5Z" fill="black"/>
</svg>
