<svg width="24" height="24" viewBox="0 0 24 24" fill="none" xmlns="http://www.w3.org/2000/svg">
<path d="M6.1072 9.86495C6.4829 7.90273 7.81438 6.28 9.59848 5.49991C9.07975 4.60326 8.11027 4 6.99988 4C5.34303 4 3.99988 5.34315 3.99988 7C3.99988 8.34598 4.88629 9.48493 6.1072 9.86495Z" fill="#0D0D12"/>
<path d="M6.08454 12.0095C3.80371 12.159 2 14.0564 2 16.375C2 16.7202 2.27982 17 2.625 17H5.02185C5.60567 16.0881 6.41092 15.3317 7.36176 14.8064C6.71341 14.0173 6.2625 13.0598 6.08454 12.0095Z" fill="#0D0D12"/>
<path d="M18.9782 17H21.375C21.7202 17 22 16.7202 22 16.375C22 14.0563 20.1963 12.159 17.9154 12.0095C17.7375 13.0598 17.2866 14.0173 16.6383 14.8064C17.5891 15.3316 18.3944 16.0881 18.9782 17Z" fill="#0D0D12"/>
<path d="M17.8928 9.86489C19.1136 9.48481 19.9999 8.34591 19.9999 7C19.9999 5.34315 18.6567 4 16.9999 4C15.8895 4 14.9201 4.60322 14.4013 5.49984C16.1855 6.27989 17.517 7.90264 17.8928 9.86489Z" fill="#0D0D12"/>
<path d="M16.95 20H7.05001C6.74624 20 6.49999 19.7761 6.5 19.5C6.50006 17.567 8.22379 16 10.3501 16H13.6501C15.7764 16 17.5001 17.567 17.5 19.5C17.5 19.7762 17.2538 20 16.95 20Z" fill="#0D0D12"/>
<path d="M16 11C16 13.2091 14.2091 15 12 15C9.79086 15 8 13.2091 8 11C8 8.79086 9.79086 7 12 7C14.2091 7 16 8.79086 16 11Z" fill="#0D0D12"/>
</svg>
