<svg width="24" height="24" viewBox="0 0 24 24" fill="none" xmlns="http://www.w3.org/2000/svg">
<path d="M13.8574 10.8344C14.5799 9.73304 15.0001 8.41559 15.0001 7C15.0001 5.58441 14.5799 4.26696 13.8574 3.16558C14.2195 3.05785 14.603 3 15 3C17.2092 3 19 4.79086 19 7C19 9.20914 17.2092 11 15 11C14.603 11 14.2195 10.9422 13.8574 10.8344Z" fill="#0D0D12"/>
<path d="M16.8741 21C16.9563 20.6804 17.0001 20.3453 17.0001 20V19C17.0001 17.1081 16.3434 15.3696 15.2455 14H16C18.7615 14 21 16.2386 21 19V20C21 20.5523 20.5523 21 20 21H16.8741Z" fill="#0D0D12"/>
<path d="M10 14H8C5.23858 14 3 16.2386 3 19V20C3 20.5523 3.44772 21 4 21H14C14.5523 21 15 20.5523 15 20V19C15 16.2386 12.7614 14 10 14Z" fill="#0D0D12"/>
<path d="M9 11C11.2091 11 13 9.20914 13 7C13 4.79086 11.2091 3 9 3C6.79086 3 5 4.79086 5 7C5 9.20914 6.79086 11 9 11Z" fill="#0D0D12"/>
</svg>
