<svg width="24" height="24" viewBox="0 0 24 24" fill="none" xmlns="http://www.w3.org/2000/svg">
<path d="M18 4H5C3.34315 4 2 5.34315 2 7V17C2 18.6569 3.34315 20 5 20H18C19.6569 20 21 18.6569 21 17V16.5C21 16.2239 20.7761 16 20.5 16H14C11.7909 16 10 14.2091 10 12C10 9.79086 11.7909 8 14 8H20.5C20.7761 8 21 7.77614 21 7.5V7C21 5.34315 19.6569 4 18 4Z" fill="#0D0D12"/>
<path fill-rule="evenodd" clip-rule="evenodd" d="M21.5 10C21.7761 10 22 10.2239 22 10.5V13.5C22 13.7761 21.7761 14 21.5 14H14C12.8954 14 12 13.1046 12 12C12 10.8954 12.8954 10 14 10H21.5ZM14 13C14.5523 13 15 12.5523 15 12C15 11.4477 14.5523 11 14 11C13.4477 11 13 11.4477 13 12C13 12.5523 13.4477 13 14 13Z" fill="#0D0D12"/>
</svg>
